# Blender v2.78 (sub 0) OBJ File: 'medal-4.blend'
# www.blender.org
mtllib medal-4.mtl
o medal_Cylinder
v 8.660254 -0.000000 5.000000
v 6.928203 2.000000 4.000000
v 0.000000 2.000000 4.000000
v 6.928203 -2.000000 4.000000
v 8.660254 0.000000 -5.000000
v 6.928203 2.000000 -4.000000
v -3.464102 2.000000 2.000000
v 6.928203 -2.000000 -4.000000
v 0.000001 0.000000 -10.000000
v 0.000001 2.000000 -8.000000
v -3.464101 2.000000 -2.000000
v 0.000001 -2.000000 -8.000000
v -8.660253 0.000000 -5.000001
v -6.928203 2.000000 -4.000000
v 0.000001 2.000000 -4.000000
v -6.928203 -2.000000 -4.000000
v -8.660254 -0.000000 5.000001
v -6.928204 2.000000 4.000000
v 3.464101 2.000000 -2.000000
v -6.928204 -2.000000 4.000000
v 0.000000 -0.000000 9.999999
v 0.000000 2.000000 8.000000
v 3.464102 2.000000 2.000000
v 0.000000 -2.000000 8.000000
v 5.773502 -0.000000 5.707843
v -5.773502 -0.000000 5.707844
v 0.000000 -0.000000 17.251217
v 5.773502 -0.000000 13.917888
v 0.000000 -0.000000 9.041175
v -5.773502 -0.000000 13.917888
v 5.484827 0.500000 13.584554
v 0.000000 0.500000 16.751217
v -5.484827 0.500000 5.874509
v 0.000000 0.500000 9.041175
v 5.484827 0.500000 5.874509
v -5.484827 0.500000 13.584554
v 5.484827 -0.500000 5.874509
v 5.484827 -0.500000 13.584554
v 0.000000 -0.500000 16.751217
v 0.000000 -0.500000 9.041175
v -5.484827 -0.500000 13.584554
v -5.484827 -0.500000 5.874509
v 0.000000 -2.000000 4.000000
v -3.464102 -2.000000 2.000000
v -3.464101 -2.000000 -2.000000
v 0.000001 -2.000000 -4.000000
v 3.464101 -2.000000 -2.000000
v 3.464102 -2.000000 2.000000
v 0.000000 1.749138 3.498275
v -3.029595 1.749138 1.749138
v -3.029595 1.749138 -1.749138
v 0.000000 1.749138 -3.498275
v 3.029595 1.749138 -1.749138
v 3.029595 1.749138 1.749138
v 0.000000 -1.749138 3.498275
v -3.029595 -1.749138 1.749138
v -3.029595 -1.749138 -1.749138
v 0.000000 -1.749138 -3.498275
v 3.029595 -1.749138 -1.749138
v 3.029595 -1.749138 1.749138
v 0.000000 2.345338 2.328705
v -2.016717 2.345338 1.164353
v -2.016717 2.345338 -1.164353
v 0.000000 2.345338 -2.328705
v 2.016717 2.345338 -1.164352
v 2.016717 2.345338 1.164352
v 0.000000 -2.345339 2.328705
v -2.016717 -2.345339 1.164353
v -2.016717 -2.345339 -1.164353
v 0.000000 -2.345339 -2.328705
v 2.016717 -2.345339 -1.164352
v 2.016717 -2.345339 1.164352
vn 0.7559 0.6547 -0.0000
vn 0.0000 -1.0000 0.0000
vn 0.7559 -0.6547 -0.0000
vn 0.3780 0.6547 -0.6547
vn 0.3780 -0.6547 -0.6547
vn -0.3780 0.6547 -0.6547
vn 0.0000 1.0000 0.0000
vn -0.3780 -0.6547 -0.6547
vn -0.7559 0.6547 -0.0000
vn -0.7559 -0.6547 -0.0000
vn 0.3780 0.6547 0.6547
vn 0.8660 -0.5000 0.0000
vn -0.3780 0.6547 0.6547
vn 0.3780 -0.6547 0.6547
vn -0.8660 0.5000 0.0000
vn -0.3780 -0.6547 0.6547
vn 0.5000 0.0000 -0.8660
vn -0.5000 0.0000 -0.8660
vn 0.8660 0.5000 0.0000
vn -0.8660 -0.5000 0.0000
vn 0.5000 -0.8660 0.0000
vn 0.2500 -0.8660 0.4330
vn -0.5000 -0.8660 0.0000
vn 0.5000 0.8660 0.0000
vn 0.2500 0.8660 -0.4330
vn -0.2500 0.8660 -0.4330
vn 0.2500 -0.8660 -0.4330
vn -0.2500 0.8660 0.4330
vn -0.2500 -0.8660 -0.4330
vn 0.2500 0.8660 0.4330
vn -0.2500 -0.8660 0.4330
vn -0.5000 0.8660 0.0000
vn 0.2536 -0.8618 -0.4393
vn 0.2536 0.8618 0.4393
vn -0.2536 0.8618 -0.4393
vn 0.2536 -0.8618 0.4393
vn -0.5073 0.8618 -0.0000
vn -0.2536 0.8618 0.4393
vn -0.2536 -0.8618 0.4393
vn 0.5073 0.8618 0.0000
vn 0.2536 0.8618 -0.4393
vn -0.2536 -0.8618 -0.4393
vn 0.5073 -0.8618 0.0000
vn -0.5073 -0.8618 -0.0000
usemtl None
s off
f 1//1 5//1 6//1 2//1
f 8//2 4//2 48//2 47//2
f 4//2 24//2 43//2 48//2
f 1//3 4//3 8//3 5//3
f 5//4 9//4 10//4 6//4
f 12//2 8//2 47//2 46//2
f 24//2 20//2 44//2 43//2
f 8//5 12//5 9//5 5//5
f 9//6 13//6 14//6 10//6
f 2//7 6//7 19//7 23//7
f 10//7 14//7 11//7 15//7
f 12//8 16//8 13//8 9//8
f 13//9 17//9 18//9 14//9
f 22//7 2//7 23//7 3//7
f 14//7 18//7 7//7 11//7
f 16//10 20//10 17//10 13//10
f 34//7 32//7 31//7 35//7
f 21//11 1//11 2//11 22//11
f 20//2 16//2 45//2 44//2
f 16//2 12//2 46//2 45//2
f 18//7 22//7 3//7 7//7
f 27//11 28//11 31//11 32//11
f 6//7 10//7 15//7 19//7
f 37//12 25//12 28//12 38//12
f 17//13 21//13 22//13 18//13
f 24//14 4//14 1//14 21//14
f 33//15 26//15 30//15 36//15
f 20//16 24//16 21//16 17//16
f 41//16 39//16 27//16 30//16
f 42//17 26//17 29//17 40//17
f 39//14 38//14 28//14 27//14
f 40//18 29//18 25//18 37//18
f 29//18 34//18 35//18 25//18
f 30//13 27//13 32//13 36//13
f 26//17 33//17 34//17 29//17
f 25//19 35//19 31//19 28//19
f 33//7 36//7 32//7 34//7
f 40//2 39//2 41//2 42//2
f 37//2 38//2 39//2 40//2
f 26//20 42//20 41//20 30//20
f 44//21 45//21 57//21 56//21
f 45//22 46//22 58//22 57//22
f 47//23 48//23 60//23 59//23
f 11//24 7//24 50//24 51//24
f 7//25 3//25 49//25 50//25
f 3//26 23//26 54//26 49//26
f 43//27 44//27 56//27 55//27
f 19//28 15//28 52//28 53//28
f 48//29 43//29 55//29 60//29
f 15//30 11//30 51//30 52//30
f 46//31 47//31 59//31 58//31
f 23//32 19//32 53//32 54//32
f 58//33 59//33 71//33 70//33
f 49//34 54//34 66//34 61//34
f 52//35 51//35 63//35 64//35
f 60//36 55//36 67//36 72//36
f 51//37 50//37 62//37 63//37
f 50//38 49//38 61//38 62//38
f 55//39 56//39 68//39 67//39
f 54//40 53//40 65//40 66//40
f 53//41 52//41 64//41 65//41
f 57//42 58//42 70//42 69//42
f 59//43 60//43 72//43 71//43
f 56//44 57//44 69//44 68//44
f 65//7 64//7 63//7 62//7 61//7 66//7
f 71//2 72//2 67//2 68//2 69//2 70//2
