# Blender v2.78 (sub 0) OBJ File: 'medal-3.blend'
# www.blender.org
mtllib medal-3.mtl
o medal_Cylinder
v 8.660254 -0.000000 5.000000
v 6.928203 2.000000 4.000000
v 5.196152 -0.000000 3.000000
v 6.928203 -2.000000 4.000000
v 8.660254 0.000000 -5.000000
v 6.928203 2.000000 -4.000000
v 5.196152 0.000000 -3.000000
v 6.928203 -2.000000 -4.000000
v 0.000001 0.000000 -10.000000
v 0.000001 2.000000 -8.000000
v 0.000001 0.000000 -6.000000
v 0.000001 -2.000000 -8.000000
v -8.660253 0.000000 -5.000001
v -6.928203 2.000000 -4.000000
v -5.196152 0.000000 -3.000000
v -6.928203 -2.000000 -4.000000
v -8.660254 -0.000000 5.000001
v -6.928204 2.000000 4.000000
v -5.196152 -0.000000 3.000000
v -6.928204 -2.000000 4.000000
v 0.000000 -0.000000 9.999999
v 0.000000 2.000000 8.000000
v -0.000000 -0.000000 5.999999
v 0.000000 -2.000000 8.000000
v 5.773502 -0.000000 5.707843
v -5.773502 -0.000000 5.707844
v 0.000000 -0.000000 17.251217
v 5.773502 -0.000000 13.917888
v 0.000000 -0.000000 9.041175
v -5.773502 -0.000000 13.917888
v 5.484827 0.500000 13.584554
v 0.000000 0.500000 16.751217
v -5.484827 0.500000 5.874509
v 0.000000 0.500000 9.041175
v 5.484827 0.500000 5.874509
v -5.484827 0.500000 13.584554
v 5.484827 -0.500000 5.874509
v 5.484827 -0.500000 13.584554
v 0.000000 -0.500000 16.751217
v 0.000000 -0.500000 9.041175
v -5.484827 -0.500000 13.584554
v -5.484827 -0.500000 5.874509
v 5.196152 -0.000000 3.000000
v 5.196152 0.000000 -3.000000
v 0.000001 0.000000 -6.000000
v -5.196152 0.000000 -3.000000
v -5.196152 -0.000000 3.000000
v -0.000000 -0.000000 5.999999
v 4.676537 1.000000 2.700000
v 4.676537 1.000000 -2.700000
v 0.000001 1.000000 -5.400000
v -4.676537 1.000000 -2.700000
v -4.676537 1.000000 2.700000
v -0.000000 1.000000 5.399999
v 4.676537 -1.000000 2.700000
v 4.676537 -1.000000 -2.700000
v 0.000001 -1.000000 -5.400000
v -4.676537 -1.000000 -2.700000
v -4.676537 -1.000000 2.700000
v -0.000000 -1.000000 5.399999
vn 0.7559 0.6547 -0.0000
vn -0.7559 0.6547 0.0000
vn -0.7559 -0.6547 0.0000
vn 0.7559 -0.6547 -0.0000
vn 0.3780 0.6547 -0.6547
vn -0.3780 0.6547 0.6547
vn -0.3780 -0.6547 0.6547
vn 0.3780 -0.6547 -0.6547
vn -0.3780 0.6547 -0.6547
vn 0.3780 0.6547 0.6547
vn 0.3780 -0.6547 0.6547
vn -0.3780 -0.6547 -0.6547
vn -0.0000 1.0000 0.0000
vn 0.8660 -0.5000 0.0000
vn -0.8660 0.5000 0.0000
vn 0.5000 0.0000 -0.8660
vn -0.5000 0.0000 -0.8660
vn 0.8660 0.5000 0.0000
vn -0.0000 -1.0000 0.0000
vn -0.8660 -0.5000 0.0000
vn 0.0000 0.0000 1.0000
vn -0.8874 0.4611 0.0000
vn 0.8874 0.4611 -0.0000
vn 0.4437 0.4611 0.7685
vn -0.4437 0.4611 -0.7685
vn 0.4437 0.4611 -0.7685
vn -0.4437 0.4611 0.7685
vn -0.8874 -0.4611 0.0000
vn 0.8874 -0.4611 -0.0000
vn 0.4437 -0.4611 0.7685
vn -0.4437 -0.4611 -0.7685
vn 0.4437 -0.4611 -0.7685
vn -0.4437 -0.4611 0.7685
usemtl None
s off
f 1//1 5//1 6//1 2//1
f 2//2 6//2 7//2 3//2
f 3//3 7//3 8//3 4//3
f 1//4 4//4 8//4 5//4
f 5//5 9//5 10//5 6//5
f 6//6 10//6 11//6 7//6
f 7//7 11//7 12//7 8//7
f 8//8 12//8 9//8 5//8
f 9//9 13//9 14//9 10//9
f 10//10 14//10 15//10 11//10
f 11//11 15//11 16//11 12//11
f 12//12 16//12 13//12 9//12
f 13//2 17//2 18//2 14//2
f 14//1 18//1 19//1 15//1
f 15//4 19//4 20//4 16//4
f 16//3 20//3 17//3 13//3
f 34//13 32//13 31//13 35//13
f 21//10 1//10 2//10 22//10
f 22//9 2//9 3//9 23//9
f 23//12 3//12 4//12 24//12
f 19//8 23//8 24//8 20//8
f 27//10 28//10 31//10 32//10
f 18//5 22//5 23//5 19//5
f 37//14 25//14 28//14 38//14
f 17//6 21//6 22//6 18//6
f 24//11 4//11 1//11 21//11
f 33//15 26//15 30//15 36//15
f 20//7 24//7 21//7 17//7
f 41//7 39//7 27//7 30//7
f 42//16 26//16 29//16 40//16
f 39//11 38//11 28//11 27//11
f 40//17 29//17 25//17 37//17
f 29//17 34//17 35//17 25//17
f 30//6 27//6 32//6 36//6
f 26//16 33//16 34//16 29//16
f 25//18 35//18 31//18 28//18
f 33//13 36//13 32//13 34//13
f 40//19 39//19 41//19 42//19
f 37//19 38//19 39//19 40//19
f 26//20 42//20 41//20 30//20
f 15//21 11//21 45//21 46//21
f 19//21 47//21 48//21 23//21
f 11//21 7//21 44//21 45//21
f 7//21 3//21 43//21 44//21
f 3//21 23//21 48//21 43//21
f 19//21 15//21 46//21 47//21
f 47//22 53//22 52//22 46//22
f 44//23 50//23 49//23 43//23
f 43//24 49//24 54//24 48//24
f 46//25 52//25 51//25 45//25
f 45//26 51//26 50//26 44//26
f 47//27 48//27 54//27 53//27
f 46//28 58//28 59//28 47//28
f 43//29 55//29 56//29 44//29
f 48//30 60//30 55//30 43//30
f 45//31 57//31 58//31 46//31
f 44//32 56//32 57//32 45//32
f 48//33 47//33 59//33 60//33
f 55//19 60//19 59//19 58//19 57//19 56//19
f 49//13 50//13 51//13 52//13 53//13 54//13
