# Blender v2.78 (sub 0) OBJ File: 'medal-2.blend'
# www.blender.org
mtllib medal-2.mtl
o medal_Cylinder
v 0.000000 -1.000000 13.548925
v 0.000000 1.000000 13.548925
v -3.826834 -1.000000 12.787721
v -3.826834 1.000000 12.787721
v -7.071068 -1.000000 10.619991
v -7.071068 1.000000 10.619991
v -9.238793 -1.000000 7.375760
v -9.238793 1.000000 7.375760
v -9.999998 -1.000000 3.548925
v -9.999998 1.000000 3.548925
v -9.238793 -1.000000 -0.277910
v -9.238793 1.000000 -0.277910
v -7.071066 -1.000000 -3.522142
v -7.071066 1.000000 -3.522142
v -3.826833 -1.000000 -5.689870
v -3.826833 1.000000 -5.689870
v 0.000000 -1.000000 -6.451075
v 0.000000 1.000000 -6.451075
v 3.826834 -1.000000 -5.689869
v 3.826834 1.000000 -5.689869
v 7.071068 -1.000000 -3.522144
v 7.071068 1.000000 -3.522144
v 9.238797 -1.000000 -0.277909
v 9.238797 1.000000 -0.277909
v 10.000002 -1.000000 3.548927
v 10.000002 1.000000 3.548927
v 9.238794 -1.000000 7.375763
v 9.238794 1.000000 7.375763
v 7.071065 -1.000000 10.619997
v 7.071065 1.000000 10.619997
v 3.826830 -1.000000 12.787723
v 3.826830 1.000000 12.787723
v 0.000000 1.000000 11.548925
v -3.061467 1.000000 10.939962
v -5.656855 1.000000 9.205780
v -7.391036 1.000000 6.610394
v -7.999999 1.000000 3.548925
v -7.391035 1.000000 0.487457
v -5.656853 1.000000 -2.107928
v -3.061466 1.000000 -3.842110
v 0.000000 1.000000 -4.451074
v 3.061468 1.000000 -3.842110
v 5.656855 1.000000 -2.107929
v 7.391037 1.000000 0.487458
v 8.000002 1.000000 3.548927
v 7.391036 1.000000 6.610395
v 5.656853 1.000000 9.205782
v 3.061465 1.000000 10.939963
v 0.000000 -1.000000 11.548925
v -3.061467 -1.000000 10.939962
v -5.656855 -1.000000 9.205780
v -7.391036 -1.000000 6.610394
v -7.999999 -1.000000 3.548925
v -7.391035 -1.000000 0.487457
v -5.656853 -1.000000 -2.107928
v -3.061466 -1.000000 -3.842110
v 0.000000 -1.000000 -4.451074
v 3.061468 -1.000000 -3.842110
v 5.656855 -1.000000 -2.107929
v 7.391037 -1.000000 0.487458
v 8.000002 -1.000000 3.548927
v 7.391036 -1.000000 6.610395
v 5.656853 -1.000000 9.205782
v 3.061465 -1.000000 10.939963
v 0.000000 0.500000 11.548925
v -3.061467 0.500000 10.939962
v -5.656855 0.500000 9.205780
v -7.391036 0.500000 6.610394
v -7.999999 0.500000 3.548925
v -7.391035 0.500000 0.487457
v -5.656853 0.500000 -2.107928
v -3.061466 0.500000 -3.842110
v 0.000000 0.500000 -4.451074
v 3.061468 0.500000 -3.842110
v 5.656855 0.500000 -2.107929
v 7.391037 0.500000 0.487458
v 8.000002 0.500000 3.548927
v 7.391036 0.500000 6.610395
v 5.656853 0.500000 9.205782
v 3.061465 0.500000 10.939963
v 0.000000 -0.500000 11.548925
v -3.061467 -0.500000 10.939962
v -5.656855 -0.500000 9.205780
v -7.391036 -0.500000 6.610394
v -7.999999 -0.500000 3.548925
v -7.391035 -0.500000 0.487457
v -5.656853 -0.500000 -2.107928
v -3.061466 -0.500000 -3.842110
v 0.000000 -0.500000 -4.451074
v 3.061468 -0.500000 -3.842110
v 5.656855 -0.500000 -2.107929
v 7.391037 -0.500000 0.487458
v 8.000002 -0.500000 3.548927
v 7.391036 -0.500000 6.610395
v 5.656853 -0.500000 9.205782
v 3.061465 -0.500000 10.939963
v 0.000000 -0.500000 3.548926
v 0.000000 0.500000 3.548926
v -7.560728 -0.500000 -12.217480
v -7.560728 0.500000 -12.217480
v -5.905400 -0.631893 -23.397816
v -5.905400 0.631893 -23.397816
v 5.905409 -0.631893 -23.397816
v 5.905409 0.631893 -23.397816
v 7.560732 -0.500000 -12.217474
v 7.560732 0.500000 -12.217474
v 0.850137 -0.500000 -6.084594
v -0.850133 -0.500000 -6.084594
v -0.850133 0.500000 -6.084594
v 0.850137 0.500000 -6.084594
v 0.000001 -0.750000 7.351010
v 0.000001 0.750000 7.351010
v -2.016686 -0.750000 3.548926
v -2.016686 0.750000 3.548926
v 0.000002 -0.750000 -0.253158
v 0.000002 0.750000 -0.253158
v 2.016689 -0.750000 3.548926
v 2.016689 0.750000 3.548926
v -5.905400 0.631893 -24.825043
v -5.905400 -0.631893 -24.825043
v 5.905409 -0.631893 -24.825043
v 5.905409 0.631893 -24.825043
v -7.169190 0.631893 -23.397816
v -7.169190 -0.631893 -23.397816
v 7.169199 0.631893 -23.397816
v 7.169199 -0.631893 -23.397816
v -7.169190 0.631893 -24.825043
v -7.169190 -0.631893 -24.825043
v 7.169199 0.631893 -24.825043
v 7.169199 -0.631893 -24.825043
v -5.905400 0.631893 -26.564383
v -5.905400 -0.631893 -26.564383
v 5.905409 -0.631893 -26.564383
v 5.905409 0.631893 -26.564383
v -7.169190 0.631893 -26.564383
v -7.169190 -0.631893 -26.564383
v 7.169199 0.631893 -26.564383
v 7.169199 -0.631893 -26.564383
v 7.169199 -1.233468 -26.564383
v 7.169199 -1.233468 -24.825043
v 5.905409 -1.233468 -24.825043
v -5.905400 -1.233468 -24.825043
v -5.905400 1.233468 -24.825043
v 5.905409 1.233468 -24.825043
v 5.905409 -1.233468 -26.564383
v -7.169190 -1.233468 -24.825043
v -7.169190 1.233468 -24.825043
v 7.169199 1.233468 -24.825043
v -5.905400 -1.233468 -26.564383
v -5.905400 1.233468 -26.564383
v 5.905409 1.233468 -26.564383
v -7.169190 -1.233468 -26.564383
v -7.169190 1.233468 -26.564383
v 7.169199 1.233468 -26.564383
vn -0.1951 0.0000 0.9808
vn -0.5556 0.0000 0.8315
vn -0.8315 0.0000 0.5556
vn -0.9808 0.0000 0.1951
vn -0.9808 0.0000 -0.1951
vn -0.8315 0.0000 -0.5556
vn -0.5556 0.0000 -0.8315
vn -0.1951 0.0000 -0.9808
vn 0.1951 0.0000 -0.9808
vn 0.5556 0.0000 -0.8315
vn 0.8315 0.0000 -0.5556
vn 0.9808 0.0000 -0.1951
vn 0.9808 0.0000 0.1951
vn 0.8315 0.0000 0.5556
vn 0.5556 0.0000 0.8315
vn 0.1951 0.0000 0.9808
vn 0.0000 1.0000 0.0000
vn 0.0000 -1.0000 0.0000
vn 0.6746 0.0000 0.7382
vn -0.9892 0.0000 -0.1465
vn 0.0000 0.0000 1.0000
vn 0.9892 0.0000 -0.1465
vn -0.0000 1.0000 0.0088
vn -0.6746 0.0000 0.7382
vn -0.0000 -1.0000 0.0088
vn -0.8834 0.0000 0.4686
vn -0.8834 0.0000 -0.4686
vn 0.8834 0.0000 -0.4686
vn 0.8834 0.0000 0.4686
vn 0.0000 0.0000 -1.0000
vn 1.0000 0.0000 0.0000
vn -1.0000 0.0000 0.0000
usemtl None
s off
f 1//1 2//1 4//1 3//1
f 3//2 4//2 6//2 5//2
f 5//3 6//3 8//3 7//3
f 7//4 8//4 10//4 9//4
f 9//5 10//5 12//5 11//5
f 11//6 12//6 14//6 13//6
f 13//7 14//7 16//7 15//7
f 15//8 16//8 18//8 17//8
f 17//9 18//9 20//9 19//9
f 19//10 20//10 22//10 21//10
f 21//11 22//11 24//11 23//11
f 23//12 24//12 26//12 25//12
f 25//13 26//13 28//13 27//13
f 27//14 28//14 30//14 29//14
f 29//15 30//15 32//15 31//15
f 31//16 32//16 2//16 1//16
f 8//17 6//17 35//17 36//17
f 18//17 16//17 40//17 41//17
f 28//17 26//17 45//17 46//17
f 4//17 2//17 33//17 34//17
f 14//17 12//17 38//17 39//17
f 24//17 22//17 43//17 44//17
f 2//17 32//17 48//17 33//17
f 10//17 8//17 36//17 37//17
f 20//17 18//17 41//17 42//17
f 30//17 28//17 46//17 47//17
f 6//17 4//17 34//17 35//17
f 16//17 14//17 39//17 40//17
f 26//17 24//17 44//17 45//17
f 12//17 10//17 37//17 38//17
f 22//17 20//17 42//17 43//17
f 32//17 30//17 47//17 48//17
f 11//18 13//18 55//18 54//18
f 21//18 23//18 60//18 59//18
f 31//18 1//18 49//18 64//18
f 7//18 9//18 53//18 52//18
f 17//18 19//18 58//18 57//18
f 27//18 29//18 63//18 62//18
f 3//18 5//18 51//18 50//18
f 13//18 15//18 56//18 55//18
f 23//18 25//18 61//18 60//18
f 9//18 11//18 54//18 53//18
f 19//18 21//18 59//18 58//18
f 29//18 31//18 64//18 63//18
f 5//18 7//18 52//18 51//18
f 15//18 17//18 57//18 56//18
f 1//18 3//18 50//18 49//18
f 25//18 27//18 62//18 61//18
f 47//6 46//6 78//6 79//6
f 57//1 58//1 90//1 89//1
f 34//9 33//9 65//9 66//9
f 48//7 47//7 79//7 80//7
f 58//2 59//2 91//2 90//2
f 35//10 34//10 66//10 67//10
f 33//8 48//8 80//8 65//8
f 59//3 60//3 92//3 91//3
f 36//11 35//11 67//11 68//11
f 60//4 61//4 93//4 92//4
f 37//12 36//12 68//12 69//12
f 61//5 62//5 94//5 93//5
f 38//13 37//13 69//13 70//13
f 62//6 63//6 95//6 94//6
f 39//14 38//14 70//14 71//14
f 49//9 50//9 82//9 81//9
f 63//7 64//7 96//7 95//7
f 40//15 39//15 71//15 72//15
f 50//10 51//10 83//10 82//10
f 64//8 49//8 81//8 96//8
f 41//16 40//16 72//16 73//16
f 51//11 52//11 84//11 83//11
f 42//1 41//1 73//1 74//1
f 52//12 53//12 85//12 84//12
f 43//2 42//2 74//2 75//2
f 53//13 54//13 86//13 85//13
f 44//3 43//3 75//3 76//3
f 54//14 55//14 87//14 86//14
f 45//4 44//4 76//4 77//4
f 55//15 56//15 88//15 87//15
f 46//5 45//5 77//5 78//5
f 56//16 57//16 89//16 88//16
f 87//18 88//18 97//18
f 95//18 96//18 97//18
f 88//18 89//18 97//18
f 81//18 82//18 97//18
f 96//18 81//18 97//18
f 89//18 90//18 97//18
f 82//18 83//18 97//18
f 90//18 91//18 97//18
f 83//18 84//18 97//18
f 91//18 92//18 97//18
f 84//18 85//18 97//18
f 92//18 93//18 97//18
f 85//18 86//18 97//18
f 93//18 94//18 97//18
f 86//18 87//18 97//18
f 94//18 95//18 97//18
f 73//17 72//17 98//17
f 66//17 65//17 98//17
f 65//17 80//17 98//17
f 74//17 73//17 98//17
f 67//17 66//17 98//17
f 75//17 74//17 98//17
f 68//17 67//17 98//17
f 76//17 75//17 98//17
f 69//17 68//17 98//17
f 77//17 76//17 98//17
f 70//17 69//17 98//17
f 78//17 77//17 98//17
f 71//17 70//17 98//17
f 79//17 78//17 98//17
f 72//17 71//17 98//17
f 80//17 79//17 98//17
f 105//19 106//19 110//19 107//19
f 99//20 100//20 102//20 101//20
f 104//21 103//21 126//21 125//21
f 103//22 104//22 106//22 105//22
f 109//23 110//23 106//23 104//23 102//23 100//23
f 108//24 109//24 100//24 99//24
f 107//21 110//21 109//21 108//21
f 99//25 101//25 103//25 105//25 107//25 108//25
f 111//26 112//26 114//26 113//26
f 113//27 114//27 116//27 115//27
f 115//28 116//28 118//28 117//28
f 117//29 118//29 112//29 111//29
f 112//17 118//17 116//17 114//17
f 113//18 115//18 117//18 111//18
f 134//30 131//30 150//30 151//30
f 103//18 101//18 120//18 121//18
f 102//17 104//17 122//17 119//17
f 129//31 130//31 138//31 137//31
f 125//31 126//31 130//31 129//31
f 124//32 123//32 127//32 128//32
f 102//17 119//17 127//17 123//17
f 122//17 104//17 125//17 129//17
f 133//30 138//30 139//30 145//30
f 120//18 101//18 124//18 128//18
f 101//21 102//21 123//21 124//21
f 103//18 121//18 130//18 126//18
f 132//30 131//30 134//30 133//30
f 131//30 132//30 136//30 135//30
f 133//30 134//30 137//30 138//30
f 132//30 133//30 145//30 149//30
f 137//30 134//30 151//30 154//30
f 128//32 127//32 135//32 136//32
f 127//21 119//21 143//21 147//21
f 119//21 122//21 144//21 143//21
f 142//18 146//18 152//18 149//18
f 140//18 141//18 145//18 139//18
f 141//18 142//18 149//18 145//18
f 144//17 148//17 154//17 151//17
f 147//17 143//17 150//17 153//17
f 143//17 144//17 151//17 150//17
f 129//31 137//31 154//31 148//31
f 128//32 136//32 152//32 146//32
f 122//21 129//21 148//21 144//21
f 130//21 121//21 141//21 140//21
f 138//31 130//31 140//31 139//31
f 136//30 132//30 149//30 152//30
f 135//32 127//32 147//32 153//32
f 121//21 120//21 142//21 141//21
f 120//21 128//21 146//21 142//21
f 131//30 135//30 153//30 150//30
