# Blender v2.78 (sub 0) OBJ File: 'gem-8-long.blend'
# www.blender.org
mtllib gem-8-long.mtl
o gem_Cylinder
v -1.845333 -1.469116 -7.714509
v -1.871996 -1.500000 -7.519398
v -2.028814 -1.469116 -7.638509
v -1.871996 1.500000 -7.519398
v -1.845333 1.469116 -7.714509
v -2.028814 1.469116 -7.638509
v 1.845333 -1.469116 -7.714509
v 2.028814 -1.469116 -7.638509
v 1.871995 -1.500000 -7.519398
v 1.845333 1.469116 -7.714509
v 1.871995 1.500000 -7.519398
v 2.028814 1.469116 -7.638509
v 4.519398 -1.500000 -4.871995
v 4.638509 -1.469116 -5.028814
v 4.714509 -1.469116 -4.845333
v 4.638509 1.469116 -5.028813
v 4.519398 1.500000 -4.871995
v 4.714509 1.469116 -4.845333
v 4.519398 -1.500000 4.871995
v 4.714509 -1.469116 4.845333
v 4.638509 -1.469116 5.028813
v 4.714509 1.469116 4.845333
v 4.519398 1.500000 4.871995
v 4.638509 1.469116 5.028813
v 2.028814 -1.469116 7.638509
v 1.845333 -1.469116 7.714509
v 1.871995 -1.500000 7.519398
v 2.028814 1.469116 7.638509
v 1.871995 1.500000 7.519398
v 1.845333 1.469116 7.714509
v -1.871996 -1.500000 7.519397
v -1.845334 -1.469116 7.714509
v -2.028815 -1.469116 7.638508
v -1.845334 1.469116 7.714509
v -1.871996 1.500000 7.519397
v -2.028815 1.469116 7.638508
v -4.519398 -1.500000 4.871996
v -4.638509 -1.469116 5.028814
v -4.714509 -1.469116 4.845333
v -4.638509 1.469116 5.028814
v -4.519398 1.500000 4.871996
v -4.714509 1.469116 4.845333
v -4.519398 -1.500000 -4.871995
v -4.714509 -1.469116 -4.845332
v -4.638510 -1.469116 -5.028813
v -4.714509 1.469116 -4.845332
v -4.519398 1.500000 -4.871995
v -4.638510 1.469116 -5.028813
v -9.238796 0.000000 -6.719352
v -9.162796 0.000000 -6.902833
v 9.238795 0.000000 6.719353
v 9.162795 0.000000 6.902834
v -9.162795 0.000000 6.902835
v -9.238795 0.000000 6.719354
v 9.162795 0.000000 -6.902834
v 9.238795 0.000000 -6.719354
v -3.719355 0.000000 12.238794
v -3.902836 0.000000 12.162794
v 3.719353 0.000000 -12.238795
v 3.902834 0.000000 -12.162795
v 3.902834 0.000000 12.162795
v 3.719353 0.000000 12.238795
v -3.719354 0.000000 -12.238795
v -3.902835 0.000000 -12.162795
vn 0.0000 0.9511 -0.3088
vn -0.2184 -0.9511 0.2184
vn -0.2184 0.9511 -0.2184
vn -0.0000 0.9511 0.3088
vn 0.2184 0.9511 -0.2184
vn -0.2184 0.9511 0.2184
vn 0.3088 0.9511 0.0000
vn 0.2184 0.9511 0.2184
vn -0.3088 0.9511 0.0000
vn 0.2184 -0.9511 -0.2184
vn -0.2184 -0.9511 -0.2184
vn 0.0000 1.0000 0.0000
vn -0.0000 -0.9511 0.3088
vn 0.2184 -0.9511 0.2184
vn -0.3088 -0.9511 0.0000
vn 0.3088 -0.9511 -0.0000
vn 0.0000 -0.9511 -0.3088
vn -0.0684 -0.9839 -0.1651
vn -0.0684 0.9839 -0.1651
vn 0.0684 -0.9839 -0.1651
vn 0.0684 0.9839 -0.1651
vn 0.1651 -0.9839 -0.0684
vn 0.1651 0.9839 -0.0684
vn 0.1651 -0.9839 0.0684
vn 0.1651 0.9839 0.0684
vn 0.0684 -0.9839 0.1651
vn 0.0684 0.9839 0.1651
vn -0.0684 -0.9839 0.1651
vn -0.0684 0.9839 0.1651
vn -0.1651 -0.9839 0.0684
vn -0.1651 0.9839 0.0684
vn -0.1651 -0.9839 -0.0684
vn -0.1651 0.9839 -0.0684
vn -0.0000 -0.9877 -0.1563
vn 0.0000 0.9877 -0.1563
vn 0.1106 -0.9877 -0.1106
vn 0.1106 0.9877 -0.1106
vn 0.2655 -0.9578 -0.1100
vn 0.1563 -0.9877 0.0000
vn 0.1563 0.9877 0.0000
vn 0.2655 -0.9578 0.1100
vn 0.1106 -0.9877 0.1106
vn 0.1100 -0.9578 -0.2655
vn 0.1106 0.9877 0.1106
vn 0.0000 -0.9877 0.1563
vn -0.0000 0.9877 0.1563
vn -0.1100 -0.9578 0.2655
vn 0.1100 -0.9578 0.2655
vn -0.1106 -0.9877 0.1106
vn -0.1100 0.9578 -0.2655
vn -0.1106 0.9877 0.1106
vn -0.2655 -0.9578 0.1100
vn -0.1563 -0.9877 0.0000
vn -0.1563 0.9877 0.0000
vn -0.2655 -0.9578 -0.1100
vn -0.1106 -0.9877 -0.1106
vn -0.1106 0.9877 -0.1106
vn -0.2655 0.9578 -0.1100
vn 0.2655 0.9578 0.1100
vn -0.2655 0.9578 0.1100
vn 0.2655 0.9578 -0.1100
vn -0.1100 0.9578 0.2655
vn 0.1100 0.9578 -0.2655
vn 0.1100 0.9578 0.2655
vn -0.1100 -0.9578 -0.2655
vn 0.0000 -1.0000 0.0000
usemtl None
s off
f 63//1 5//1 10//1 59//1
f 33//2 58//2 53//2 38//2
f 48//3 6//3 64//3 50//3
f 62//4 30//4 34//4 57//4
f 12//5 16//5 55//5 60//5
f 36//6 40//6 53//6 58//6
f 18//7 22//7 51//7 56//7
f 52//8 24//8 28//8 61//8
f 42//9 46//9 49//9 54//9
f 8//10 60//10 55//10 14//10
f 45//11 50//11 64//11 3//11
f 11//12 4//12 47//12 41//12 35//12 29//12 23//12 17//12
f 26//13 62//13 57//13 32//13
f 21//14 52//14 61//14 25//14
f 39//15 54//15 49//15 44//15
f 15//16 56//16 51//16 20//16
f 1//17 63//17 59//17 7//17
f 1//18 2//18 3//18
f 4//19 5//19 6//19
f 7//20 8//20 9//20
f 10//21 11//21 12//21
f 13//22 14//22 15//22
f 16//23 17//23 18//23
f 19//24 20//24 21//24
f 22//25 23//25 24//25
f 25//26 26//26 27//26
f 28//27 29//27 30//27
f 31//28 32//28 33//28
f 34//29 35//29 36//29
f 37//30 38//30 39//30
f 40//31 41//31 42//31
f 43//32 44//32 45//32
f 46//33 47//33 48//33
f 1//34 7//34 9//34 2//34
f 10//35 5//35 4//35 11//35
f 8//36 14//36 13//36 9//36
f 16//37 12//37 11//37 17//37
f 56//38 15//38 14//38 55//38
f 15//39 20//39 19//39 13//39
f 22//40 18//40 17//40 23//40
f 52//41 21//41 20//41 51//41
f 21//42 25//42 27//42 19//42
f 60//43 8//43 7//43 59//43
f 28//44 24//44 23//44 29//44
f 26//45 32//45 31//45 27//45
f 34//46 30//46 29//46 35//46
f 58//47 33//47 32//47 57//47
f 62//48 26//48 25//48 61//48
f 33//49 38//49 37//49 31//49
f 64//50 6//50 5//50 63//50
f 40//51 36//51 35//51 41//51
f 54//52 39//52 38//52 53//52
f 39//53 44//53 43//53 37//53
f 46//54 42//54 41//54 47//54
f 50//55 45//55 44//55 49//55
f 45//56 3//56 2//56 43//56
f 6//57 48//57 47//57 4//57
f 48//58 50//58 49//58 46//58
f 24//59 52//59 51//59 22//59
f 42//60 54//60 53//60 40//60
f 18//61 56//61 55//61 16//61
f 36//62 58//62 57//62 34//62
f 12//63 60//63 59//63 10//63
f 30//64 62//64 61//64 28//64
f 3//65 64//65 63//65 1//65
f 2//66 9//66 13//66 19//66 27//66 31//66 37//66 43//66
