# Blender v2.78 (sub 0) OBJ File: 'gem-6-cut.blend'
# www.blender.org
mtllib gem-6-cut.mtl
o gem_Cylinder
v -0.000000 1.500000 0.000000
v -0.000000 -1.500000 0.000000
v -0.000000 -1.500000 -6.633975
v -0.000000 1.500000 -6.633975
v 5.745191 -1.500000 -3.316987
v 5.745191 1.500000 -3.316987
v 5.745190 -1.500000 3.316988
v 5.745190 1.500000 3.316988
v -0.000001 -1.500000 6.633975
v -0.000001 1.500000 6.633975
v -5.745191 -1.500000 3.316987
v -5.745191 1.500000 3.316987
v -5.745191 -1.500000 -3.316986
v -5.745191 1.500000 -3.316986
v -0.866025 0.000000 -9.500000
v 0.866025 0.000000 -9.500000
v 8.660254 0.000000 -4.000000
v 7.794229 0.000000 -5.500000
v 7.794228 0.000000 5.500000
v 8.660254 0.000000 4.000000
v -0.866026 0.000000 9.500000
v 0.866025 0.000000 9.500000
v -8.660254 0.000000 3.999999
v -7.794229 0.000000 5.499999
v -7.794229 0.000000 -5.499999
v -8.660254 0.000000 -3.999999
vn -0.2288 -0.8892 0.3962
vn -0.4575 -0.8892 0.0000
vn -0.2288 -0.8892 -0.3962
vn 0.2288 -0.8892 0.3962
vn 0.0000 -1.0000 -0.0000
vn 0.4575 -0.8892 0.0000
vn 0.0000 0.8860 -0.4637
vn 0.4016 -0.8860 -0.2319
vn 0.4016 0.8860 -0.2319
vn 0.4016 -0.8860 0.2319
vn 0.4016 0.8860 0.2319
vn 0.0000 -0.8860 0.4637
vn 0.0000 0.8860 0.4637
vn -0.4016 -0.8860 0.2319
vn -0.4016 0.8860 0.2319
vn -0.4016 -0.8860 -0.2319
vn -0.4016 0.8860 -0.2319
vn 0.2288 -0.8892 -0.3962
vn 0.0000 1.0000 0.0000
vn 0.2288 0.8892 -0.3962
vn 0.4575 0.8892 0.0000
vn -0.4575 0.8892 0.0000
vn -0.2288 0.8892 0.3962
vn 0.2288 0.8892 0.3962
vn -0.2288 0.8892 -0.3962
vn 0.0000 -0.8860 -0.4637
usemtl None
s off
f 11//1 9//1 21//1 24//1
f 13//2 11//2 23//2 26//2
f 3//3 13//3 25//3 15//3
f 9//4 7//4 19//4 22//4
f 13//5 3//5 2//5
f 7//5 9//5 2//5
f 7//6 5//6 17//6 20//6
f 15//7 4//7 16//7
f 17//8 5//8 18//8
f 6//9 17//9 18//9
f 19//10 7//10 20//10
f 8//11 19//11 20//11
f 21//12 9//12 22//12
f 10//13 21//13 22//13
f 23//14 11//14 24//14
f 12//15 23//15 24//15
f 25//16 13//16 26//16
f 14//17 25//17 26//17
f 5//18 3//18 16//18 18//18
f 9//5 11//5 2//5
f 5//5 7//5 2//5
f 11//5 13//5 2//5
f 3//5 5//5 2//5
f 10//19 8//19 1//19
f 4//19 14//19 1//19
f 8//19 6//19 1//19
f 14//19 12//19 1//19
f 6//19 4//19 1//19
f 12//19 10//19 1//19
f 4//20 6//20 18//20 16//20
f 6//21 8//21 20//21 17//21
f 12//22 14//22 26//22 23//22
f 10//23 12//23 24//23 21//23
f 8//24 10//24 22//24 19//24
f 14//25 4//25 15//25 25//25
f 3//26 15//26 16//26
