# Blender v2.78 (sub 0) OBJ File: 'gem-4-flat.blend'
# www.blender.org
mtllib gem-4-flat.mtl
o gem_Cube
v -4.925525 -1.370695 3.555099
v -2.988474 -1.791617 2.988474
v -3.555100 -1.370695 4.925525
v -3.555100 1.370695 4.925525
v -2.988474 1.791617 2.988474
v -4.925525 1.370695 3.555099
v -2.988474 -1.791617 -2.988474
v -4.925525 -1.370695 -3.555099
v -3.555100 -1.370695 -4.925525
v -4.925525 1.370695 -3.555099
v -2.988474 1.791617 -2.988474
v -3.555100 1.370695 -4.925525
v 2.988474 -1.791617 2.988474
v 4.925525 -1.370695 3.555099
v 3.555100 -1.370695 4.925525
v 4.925525 1.370695 3.555099
v 2.988474 1.791617 2.988474
v 3.555100 1.370695 4.925525
v 2.988474 -1.791617 -2.988474
v 3.555100 -1.370695 -4.925525
v 4.925525 -1.370695 -3.555099
v 3.555100 1.370695 -4.925525
v 2.988474 1.791617 -2.988474
v 4.925525 1.370695 -3.555099
v -7.976948 -0.000000 6.606524
v -6.606523 -0.000000 7.976948
v -7.976948 -0.000000 -6.606524
v -6.606523 -0.000000 -7.976948
v 6.606523 -0.000000 -7.976948
v 7.976948 -0.000000 -6.606524
v 7.976948 -0.000000 6.606524
v 6.606523 -0.000000 7.976948
vn 0.0000 1.0000 0.0000
vn 0.4098 -0.9122 0.0000
vn -0.4098 0.9122 0.0000
vn 0.0000 -0.9122 0.4098
vn 0.0000 -0.9122 -0.4098
vn -0.4098 -0.9122 0.0000
vn 0.4098 0.9122 0.0000
vn 0.0000 0.9122 -0.4098
vn 0.0000 0.9122 0.4098
vn -0.1636 -0.9729 0.1636
vn -0.1636 0.9729 0.1636
vn -0.1636 -0.9729 -0.1636
vn -0.1636 0.9729 -0.1636
vn 0.1636 -0.9729 0.1636
vn 0.1636 0.9729 0.1636
vn 0.1636 -0.9729 -0.1636
vn 0.1636 0.9729 -0.1636
vn -0.2123 -0.9772 0.0000
vn -0.2141 0.9531 0.2141
vn -0.2123 0.9772 0.0000
vn -0.2141 -0.9531 -0.2141
vn 0.0000 -0.9772 -0.2123
vn 0.0000 0.9772 -0.2123
vn 0.2141 -0.9531 -0.2141
vn 0.2123 -0.9772 0.0000
vn 0.2123 0.9772 0.0000
vn 0.2141 -0.9531 0.2141
vn 0.0000 -0.9772 0.2123
vn 0.0000 0.9772 0.2123
vn -0.2141 -0.9531 0.2141
vn -0.2141 0.9531 -0.2141
vn 0.2141 0.9531 -0.2141
vn 0.2141 0.9531 0.2141
vn 0.0000 -1.0000 0.0000
usemtl None
s off
f 23//1 11//1 5//1 17//1
f 21//2 30//2 31//2 14//2
f 25//3 6//3 10//3 27//3
f 15//4 32//4 26//4 3//4
f 9//5 28//5 29//5 20//5
f 1//6 25//6 27//6 8//6
f 30//7 24//7 16//7 31//7
f 28//8 12//8 22//8 29//8
f 32//9 18//9 4//9 26//9
f 1//10 2//10 3//10
f 4//11 5//11 6//11
f 7//12 8//12 9//12
f 10//13 11//13 12//13
f 13//14 14//14 15//14
f 16//15 17//15 18//15
f 19//16 20//16 21//16
f 22//17 23//17 24//17
f 7//18 2//18 1//18 8//18
f 26//19 4//19 6//19 25//19
f 5//20 11//20 10//20 6//20
f 28//21 9//21 8//21 27//21
f 19//22 7//22 9//22 20//22
f 11//23 23//23 22//23 12//23
f 30//24 21//24 20//24 29//24
f 13//25 19//25 21//25 14//25
f 23//26 17//26 16//26 24//26
f 32//27 15//27 14//27 31//27
f 2//28 13//28 15//28 3//28
f 17//29 5//29 4//29 18//29
f 3//30 26//30 25//30 1//30
f 12//31 28//31 27//31 10//31
f 24//32 30//32 29//32 22//32
f 18//33 32//33 31//33 16//33
f 7//34 19//34 13//34 2//34
