# Blender v2.78 (sub 0) OBJ File: 'gem-7.blend'
# www.blender.org
mtllib gem-7.mtl
o gem_Cube
v -4.406368 -0.500000 8.925008
v -4.230527 -0.500000 9.009688
v 4.230525 -0.500000 9.009689
v 4.406367 -0.500000 8.925009
v 0.097585 -0.500000 -9.953006
v -0.097585 -0.500000 -9.953006
v 0.097585 1.199294 -6.716465
v -0.097585 1.199294 -6.716465
v 0.000000 1.249643 -6.556571
v 5.190301 1.199294 -4.263942
v 5.126134 1.249643 -4.087955
v 5.311987 1.199294 -4.111352
v 6.569784 1.199294 1.399416
v 6.392184 1.249643 1.458974
v 6.526354 1.199294 1.589692
v 3.002085 1.199294 6.008986
v 2.844789 1.249643 5.907268
v 2.826244 1.199294 6.093668
v -2.826244 1.199294 6.093667
v -2.844790 1.249643 5.907267
v -3.002086 1.199294 6.008986
v -9.725178 -0.500000 2.119615
v -9.681748 -0.500000 2.309891
v -6.526355 1.199294 1.589693
v -6.392184 1.249643 1.458975
v -6.569784 1.199294 1.399416
v -7.720732 -0.500000 -6.281891
v -7.842418 -0.500000 -6.129301
v -5.311988 1.199295 -4.111352
v -5.126135 1.249643 -4.087954
v -5.190302 1.199294 -4.263941
v 9.681747 -0.500000 2.309891
v 9.725178 -0.500000 2.119615
v 7.842418 -0.500000 -6.129301
v 7.720732 -0.500000 -6.281891
v -0.097585 -2.199294 -6.716465
v 0.097584 -2.199294 -6.716465
v -0.000000 -2.249643 -6.556571
v -5.190301 -2.199293 -4.263942
v -5.126134 -2.249642 -4.087955
v -5.311987 -2.199293 -4.111352
v -6.569784 -2.199293 1.399416
v -6.392184 -2.249642 1.458974
v -6.526355 -2.199293 1.589692
v -3.002086 -2.199293 6.008986
v -2.844790 -2.249643 5.907268
v -2.826244 -2.199294 6.093668
v 2.826244 -2.199294 6.093667
v 2.844789 -2.249643 5.907267
v 3.002085 -2.199294 6.008986
v 6.526355 -2.199294 1.589693
v 6.392184 -2.249643 1.458974
v 6.569784 -2.199294 1.399416
v 5.311988 -2.199294 -4.111351
v 5.126135 -2.249643 -4.087954
v 5.190302 -2.199294 -4.263941
vn 0.3936 -0.8640 0.3139
vn -0.3936 -0.8640 0.3139
vn -0.0000 -0.8640 0.5035
vn -0.3936 0.8640 0.3139
vn 0.2185 0.8640 -0.4536
vn 0.4909 -0.8640 -0.1120
vn -0.4909 -0.8640 -0.1120
vn -0.0000 -1.0000 -0.0000
vn -0.2185 -0.8640 -0.4536
vn -0.2185 0.8640 -0.4536
vn 0.3936 0.8640 0.3139
vn 0.2185 -0.8640 -0.4536
vn 0.4909 0.8640 -0.1120
vn -0.4909 0.8640 -0.1120
vn 0.0000 1.0000 -0.0000
vn 0.0000 0.9538 -0.3004
vn 0.2348 0.9538 -0.1873
vn 0.2928 0.9538 0.0668
vn 0.1303 0.9538 0.2706
vn -0.1303 0.9538 0.2706
vn -0.2928 0.9538 0.0668
vn -0.2348 0.9538 -0.1873
vn 0.0000 -0.9538 -0.3004
vn -0.2348 -0.9538 -0.1873
vn -0.2928 -0.9538 0.0668
vn -0.1303 -0.9538 0.2706
vn 0.1303 -0.9538 0.2706
vn 0.2928 -0.9538 0.0668
vn 0.2348 -0.9538 -0.1873
vn 0.1131 0.9654 -0.2349
vn 0.2542 0.9654 -0.0580
vn 0.2039 0.9654 0.1626
vn -0.0000 0.9654 0.2608
vn -0.2039 0.9654 0.1626
vn -0.2542 0.9654 -0.0580
vn -0.1131 0.9654 -0.2349
vn 0.0000 0.8854 -0.4649
vn -0.3634 0.8854 -0.2898
vn -0.4532 0.8854 0.1034
vn -0.1131 -0.9654 -0.2349
vn -0.2542 -0.9654 -0.0580
vn -0.2039 -0.9654 0.1626
vn -0.0000 -0.9654 0.2608
vn 0.2039 -0.9654 0.1626
vn 0.2542 -0.9654 -0.0580
vn 0.1131 -0.9654 -0.2349
vn 0.3634 0.8854 -0.2898
vn 0.4532 0.8854 0.1034
vn 0.2017 0.8854 0.4188
vn -0.2017 0.8854 0.4188
vn 0.0000 -0.8854 -0.4649
vn -0.3634 -0.8854 -0.2898
vn 0.3634 -0.8854 -0.2898
vn -0.4532 -0.8854 0.1034
vn -0.2017 -0.8854 0.4188
vn 0.2017 -0.8854 0.4188
vn 0.4532 -0.8854 0.1034
vn -0.0000 0.8640 0.5035
usemtl Material
s off
f 4//1 50//1 51//1 32//1
f 23//2 44//2 45//2 1//2
f 2//3 47//3 48//3 3//3
f 1//4 21//4 24//4 23//4
f 7//5 10//5 35//5 5//5
f 33//6 53//6 54//6 34//6
f 28//7 41//7 42//7 22//7
f 38//8 55//8 52//8 49//8 46//8 43//8 40//8
f 36//9 39//9 27//9 6//9
f 27//10 31//10 8//10 6//10
f 32//11 15//11 16//11 4//11
f 35//12 56//12 37//12 5//12
f 34//13 12//13 13//13 33//13
f 22//14 26//14 29//14 28//14
f 9//15 30//15 25//15 20//15 17//15 14//15 11//15
f 7//16 8//16 9//16
f 10//17 11//17 12//17
f 13//18 14//18 15//18
f 16//19 17//19 18//19
f 19//20 20//20 21//20
f 24//21 25//21 26//21
f 29//22 30//22 31//22
f 36//23 37//23 38//23
f 39//24 40//24 41//24
f 42//25 43//25 44//25
f 45//26 46//26 47//26
f 48//27 49//27 50//27
f 51//28 52//28 53//28
f 54//29 55//29 56//29
f 9//30 11//30 10//30 7//30
f 11//31 14//31 13//31 12//31
f 14//32 17//32 16//32 15//32
f 17//33 20//33 19//33 18//33
f 20//34 25//34 24//34 21//34
f 25//35 30//35 29//35 26//35
f 30//36 9//36 8//36 31//36
f 6//37 8//37 7//37 5//37
f 28//38 29//38 31//38 27//38
f 26//39 22//39 23//39 24//39
f 38//40 40//40 39//40 36//40
f 40//41 43//41 42//41 41//41
f 43//42 46//42 45//42 44//42
f 46//43 49//43 48//43 47//43
f 49//44 52//44 51//44 50//44
f 52//45 55//45 54//45 53//45
f 55//46 38//46 37//46 56//46
f 12//47 34//47 35//47 10//47
f 15//48 32//48 33//48 13//48
f 18//49 3//49 4//49 16//49
f 21//50 1//50 2//50 19//50
f 5//51 37//51 36//51 6//51
f 41//52 28//52 27//52 39//52
f 34//53 54//53 56//53 35//53
f 44//54 23//54 22//54 42//54
f 47//55 2//55 1//55 45//55
f 50//56 4//56 3//56 48//56
f 53//57 33//57 32//57 51//57
f 3//58 18//58 19//58 2//58
