# Blender v2.78 (sub 0) OBJ File: 'gem-6.blend'
# www.blender.org
mtllib gem-6.mtl
o gem_Cylinder
v 0.098123 -1.682573 -4.804456
v 0.000000 -1.721140 -4.639100
v -0.098123 -1.682573 -4.804456
v 0.000000 1.721140 -4.639100
v 0.098123 1.682573 -4.804456
v -0.098123 1.682573 -4.804456
v 4.017579 -1.721140 -2.319550
v 4.111720 -1.682573 -2.487205
v 4.209843 -1.682573 -2.317250
v 4.111720 1.682574 -2.487205
v 4.017579 1.721140 -2.319550
v 4.209843 1.682573 -2.317250
v 4.017579 -1.721140 2.319550
v 4.209843 -1.682573 2.317251
v 4.111720 -1.682574 2.487205
v 4.209843 1.682573 2.317251
v 4.017579 1.721140 2.319550
v 4.111720 1.682573 2.487205
v -0.000000 -1.721140 4.639100
v 0.098123 -1.682573 4.804456
v -0.098124 -1.682573 4.804456
v 0.098123 1.682573 4.804456
v -0.000000 1.721140 4.639100
v -0.098124 1.682573 4.804456
v -4.017579 -1.721140 2.319549
v -4.111720 -1.682573 2.487205
v -4.209843 -1.682573 2.317250
v -4.111720 1.682574 2.487205
v -4.017579 1.721140 2.319549
v -4.209843 1.682573 2.317250
v -4.017579 -1.721140 -2.319549
v -4.209843 -1.682573 -2.317250
v -4.111720 -1.682574 -2.487205
v -4.209843 1.682573 -2.317250
v -4.017579 1.721140 -2.319549
v -4.111720 1.682573 -2.487205
v 0.098123 0.000000 -9.452489
v -0.098123 0.000000 -9.452489
v 8.137033 0.000000 -4.811221
v 8.235157 0.000000 -4.641267
v 8.235157 0.000000 4.641268
v 8.137033 0.000000 4.811222
v 0.098122 0.000000 9.452489
v -0.098124 0.000000 9.452489
v -8.137033 0.000000 4.811221
v -8.235157 0.000000 4.641266
v -8.235157 0.000000 -4.641266
v -8.137033 0.000000 -4.811221
vn -0.1928 0.9226 -0.3340
vn 0.1928 -0.9226 0.3340
vn -0.1928 -0.9226 0.3340
vn -0.3857 -0.9226 0.0000
vn 0.3857 -0.9226 0.0000
vn 0.0000 1.0000 0.0000
vn -0.1928 -0.9226 -0.3340
vn 0.1928 -0.9226 -0.3340
vn -0.3857 0.9226 0.0000
vn -0.1928 0.9226 0.3340
vn 0.1928 0.9226 0.3340
vn 0.3857 0.9226 0.0000
vn 0.1928 0.9226 -0.3340
vn 0.0000 -0.9739 -0.2271
vn 0.0000 0.9739 -0.2271
vn 0.1967 -0.9739 -0.1136
vn 0.1967 0.9739 -0.1136
vn 0.1967 -0.9739 0.1136
vn 0.1967 0.9739 0.1136
vn 0.0000 -0.9739 0.2271
vn 0.0000 0.9739 0.2271
vn -0.1967 -0.9739 0.1136
vn -0.1967 0.9739 0.1136
vn -0.1967 -0.9739 -0.1136
vn -0.1967 0.9739 -0.1136
vn 0.0983 -0.9805 -0.1703
vn 0.0983 0.9805 -0.1703
vn 0.0000 0.9403 -0.3404
vn 0.2948 -0.9403 -0.1702
vn 0.1967 -0.9805 0.0000
vn 0.1967 0.9805 0.0000
vn 0.2948 -0.9403 0.1702
vn 0.0983 -0.9805 0.1703
vn 0.0983 0.9805 0.1703
vn 0.0000 -0.9403 0.3404
vn -0.0983 -0.9805 0.1703
vn -0.0983 0.9805 0.1703
vn -0.2948 -0.9403 0.1702
vn -0.1967 -0.9805 0.0000
vn -0.1967 0.9805 0.0000
vn -0.2948 -0.9403 -0.1702
vn -0.0983 -0.9805 -0.1703
vn -0.0983 0.9805 -0.1703
vn 0.0000 -0.9403 -0.3404
vn 0.2948 0.9403 -0.1702
vn 0.2948 0.9403 0.1702
vn 0.0000 0.9403 0.3404
vn -0.2948 0.9403 0.1702
vn -0.2948 0.9403 -0.1702
vn 0.0000 -1.0000 0.0000
usemtl None
s off
f 48//1 36//1 6//1 38//1
f 15//2 42//2 43//2 20//2
f 21//3 44//3 45//3 26//3
f 27//4 46//4 47//4 32//4
f 9//5 40//5 41//5 14//5
f 11//6 4//6 35//6 29//6 23//6 17//6
f 33//7 48//7 38//7 3//7
f 1//8 37//8 39//8 8//8
f 46//9 30//9 34//9 47//9
f 44//10 24//10 28//10 45//10
f 42//11 18//11 22//11 43//11
f 40//12 12//12 16//12 41//12
f 37//13 5//13 10//13 39//13
f 1//14 2//14 3//14
f 4//15 5//15 6//15
f 7//16 8//16 9//16
f 10//17 11//17 12//17
f 13//18 14//18 15//18
f 16//19 17//19 18//19
f 19//20 20//20 21//20
f 22//21 23//21 24//21
f 25//22 26//22 27//22
f 28//23 29//23 30//23
f 31//24 32//24 33//24
f 34//25 35//25 36//25
f 1//26 8//26 7//26 2//26
f 10//27 5//27 4//27 11//27
f 38//28 6//28 5//28 37//28
f 40//29 9//29 8//29 39//29
f 9//30 14//30 13//30 7//30
f 16//31 12//31 11//31 17//31
f 42//32 15//32 14//32 41//32
f 15//33 20//33 19//33 13//33
f 22//34 18//34 17//34 23//34
f 44//35 21//35 20//35 43//35
f 21//36 26//36 25//36 19//36
f 28//37 24//37 23//37 29//37
f 46//38 27//38 26//38 45//38
f 27//39 32//39 31//39 25//39
f 34//40 30//40 29//40 35//40
f 48//41 33//41 32//41 47//41
f 33//42 3//42 2//42 31//42
f 6//43 36//43 35//43 4//43
f 3//44 38//44 37//44 1//44
f 12//45 40//45 39//45 10//45
f 18//46 42//46 41//46 16//46
f 24//47 44//47 43//47 22//47
f 30//48 46//48 45//48 28//48
f 36//49 48//49 47//49 34//49
f 2//50 7//50 13//50 19//50 25//50 31//50
