# Blender v2.78 (sub 0) OBJ File: 'gem-8.blend'
# www.blender.org
mtllib gem-8.mtl
o gem_Cylinder
v 0.099223 -1.555769 -5.061258
v -0.000000 -1.588284 -4.891760
v -0.099223 -1.555769 -5.061258
v -0.000000 1.588284 -4.891760
v 0.099223 1.555769 -5.061258
v -0.099223 1.555769 -5.061258
v 3.508689 -1.555769 -3.649011
v 3.649011 -1.555769 -3.508689
v 3.458997 -1.588284 -3.458997
v 3.508689 1.555769 -3.649011
v 3.458997 1.588284 -3.458997
v 3.649011 1.555769 -3.508689
v 4.891760 -1.588284 0.000000
v 5.061258 -1.555769 -0.099223
v 5.061258 -1.555769 0.099223
v 5.061258 1.555769 -0.099223
v 4.891760 1.588284 0.000000
v 5.061258 1.555769 0.099223
v 3.458997 -1.588284 3.458997
v 3.649011 -1.555769 3.508689
v 3.508689 -1.555769 3.649011
v 3.649011 1.555769 3.508689
v 3.458997 1.588284 3.458997
v 3.508689 1.555769 3.649011
v 0.099222 -1.555769 5.061258
v -0.099223 -1.555769 5.061258
v -0.000000 -1.588284 4.891760
v 0.099222 1.555769 5.061258
v -0.000000 1.588284 4.891760
v -0.099223 1.555769 5.061258
v -3.458998 -1.588284 3.458997
v -3.508689 -1.555769 3.649011
v -3.649012 -1.555769 3.508688
v -3.508689 1.555769 3.649011
v -3.458998 1.588284 3.458997
v -3.649012 1.555769 3.508688
v -4.891760 -1.588284 -0.000000
v -5.061258 -1.555769 0.099223
v -5.061258 -1.555769 -0.099223
v -5.061258 1.555769 0.099223
v -4.891760 1.588284 -0.000000
v -5.061258 1.555769 -0.099223
v -3.458998 -1.588284 -3.458997
v -3.649012 -1.555769 -3.508688
v -3.508689 -1.555769 -3.649011
v -3.649012 1.555769 -3.508688
v -3.458998 1.588284 -3.458997
v -3.508689 1.555769 -3.649011
v -7.112168 0.000000 -6.971844
v -6.971846 0.000000 -7.112166
v 7.112167 0.000000 6.971845
v 6.971845 0.000000 7.112167
v -9.958900 0.000000 0.099223
v -9.958900 0.000000 -0.099223
v 9.958900 0.000000 -0.099222
v 9.958900 0.000000 0.099223
v -6.971846 0.000000 7.112166
v -7.112168 0.000000 6.971844
v 6.971845 0.000000 -7.112167
v 7.112167 0.000000 -6.971845
v 0.099222 0.000000 9.958900
v -0.099224 0.000000 9.958900
v 0.099223 0.000000 -9.958900
v -0.099223 0.000000 -9.958900
vn 0.1244 0.9457 -0.3004
vn -0.3004 -0.9457 0.1244
vn -0.1244 0.9457 -0.3004
vn -0.1244 0.9457 0.3004
vn 0.3004 0.9457 -0.1244
vn -0.3004 -0.9457 -0.1244
vn 0.1244 -0.9457 0.3004
vn -0.3004 0.9457 0.1244
vn 0.3004 0.9457 0.1244
vn 0.1244 0.9457 0.3004
vn -0.1244 -0.9457 0.3004
vn -0.3004 0.9457 -0.1244
vn 0.3004 -0.9457 -0.1244
vn 0.0000 1.0000 0.0000
vn 0.3004 -0.9457 0.1244
vn -0.1244 -0.9457 -0.3004
vn 0.1244 -0.9457 -0.3004
vn 0.0000 -0.9821 -0.1884
vn 0.0000 0.9821 -0.1884
vn 0.1332 -0.9821 -0.1332
vn 0.1332 0.9821 -0.1332
vn 0.1884 -0.9821 0.0000
vn 0.1884 0.9821 0.0000
vn 0.1332 -0.9821 0.1332
vn 0.1332 0.9821 0.1332
vn 0.0000 -0.9821 0.1884
vn 0.0000 0.9821 0.1884
vn -0.1332 -0.9821 0.1332
vn -0.1332 0.9821 0.1332
vn -0.1884 -0.9821 0.0000
vn -0.1884 0.9821 0.0000
vn -0.1332 -0.9821 -0.1332
vn -0.1332 0.9821 -0.1332
vn 0.0631 -0.9863 -0.1523
vn 0.0631 0.9863 -0.1523
vn 0.1523 -0.9863 -0.0631
vn 0.1523 0.9863 -0.0631
vn 0.3027 -0.9531 0.0000
vn 0.1523 -0.9863 0.0631
vn 0.1523 0.9863 0.0631
vn 0.2141 -0.9531 0.2141
vn 0.0631 -0.9863 0.1523
vn 0.2141 -0.9531 -0.2141
vn 0.0631 0.9863 0.1523
vn -0.0631 -0.9863 0.1523
vn -0.0631 0.9863 0.1523
vn -0.2141 -0.9531 0.2141
vn 0.0000 -0.9531 0.3027
vn -0.1523 -0.9863 0.0631
vn 0.0000 0.9531 -0.3027
vn -0.1523 0.9863 0.0631
vn -0.3027 -0.9531 0.0000
vn -0.1523 -0.9863 -0.0631
vn -0.1523 0.9863 -0.0631
vn -0.2141 -0.9531 -0.2141
vn -0.0631 -0.9863 -0.1523
vn -0.0631 0.9863 -0.1523
vn -0.2141 0.9531 -0.2141
vn 0.2141 0.9531 0.2141
vn -0.3027 0.9531 0.0000
vn 0.3027 0.9531 0.0000
vn -0.2141 0.9531 0.2141
vn 0.2141 0.9531 -0.2141
vn 0.0000 0.9531 0.3027
vn 0.0000 -0.9531 -0.3027
vn 0.0000 -1.0000 0.0000
usemtl None
s off
f 63//1 5//1 10//1 59//1
f 58//2 53//2 38//2 33//2
f 48//3 6//3 64//3 50//3
f 62//4 30//4 34//4 57//4
f 12//5 16//5 55//5 60//5
f 54//6 49//6 44//6 39//6
f 52//7 61//7 25//7 21//7
f 36//8 40//8 53//8 58//8
f 18//9 22//9 51//9 56//9
f 52//10 24//10 28//10 61//10
f 26//11 62//11 57//11 32//11
f 42//12 46//12 49//12 54//12
f 8//13 60//13 55//13 14//13
f 11//14 4//14 47//14 41//14 35//14 29//14 23//14 17//14
f 56//15 51//15 20//15 15//15
f 50//16 64//16 3//16 45//16
f 1//17 63//17 59//17 7//17
f 1//18 2//18 3//18
f 4//19 5//19 6//19
f 7//20 8//20 9//20
f 10//21 11//21 12//21
f 13//22 14//22 15//22
f 16//23 17//23 18//23
f 19//24 20//24 21//24
f 22//25 23//25 24//25
f 25//26 26//26 27//26
f 28//27 29//27 30//27
f 31//28 32//28 33//28
f 34//29 35//29 36//29
f 37//30 38//30 39//30
f 40//31 41//31 42//31
f 43//32 44//32 45//32
f 46//33 47//33 48//33
f 1//34 7//34 9//34 2//34
f 10//35 5//35 4//35 11//35
f 8//36 14//36 13//36 9//36
f 16//37 12//37 11//37 17//37
f 56//38 15//38 14//38 55//38
f 15//39 20//39 19//39 13//39
f 22//40 18//40 17//40 23//40
f 52//41 21//41 20//41 51//41
f 21//42 25//42 27//42 19//42
f 60//43 8//43 7//43 59//43
f 28//44 24//44 23//44 29//44
f 26//45 32//45 31//45 27//45
f 34//46 30//46 29//46 35//46
f 58//47 33//47 32//47 57//47
f 62//48 26//48 25//48 61//48
f 33//49 38//49 37//49 31//49
f 64//50 6//50 5//50 63//50
f 40//51 36//51 35//51 41//51
f 54//52 39//52 38//52 53//52
f 39//53 44//53 43//53 37//53
f 46//54 42//54 41//54 47//54
f 50//55 45//55 44//55 49//55
f 45//56 3//56 2//56 43//56
f 6//57 48//57 47//57 4//57
f 48//58 50//58 49//58 46//58
f 24//59 52//59 51//59 22//59
f 42//60 54//60 53//60 40//60
f 18//61 56//61 55//61 16//61
f 36//62 58//62 57//62 34//62
f 12//63 60//63 59//63 10//63
f 30//64 62//64 61//64 28//64
f 3//65 64//65 63//65 1//65
f 2//66 9//66 13//66 19//66 27//66 31//66 37//66 43//66
