# Blender v2.78 (sub 0) OBJ File: 'gem-5.blend'
# www.blender.org
mtllib gem-5.mtl
o gem_Cylinder
v 9.414019 0.000000 -3.160315
v 9.473688 0.000000 -2.976672
v 0.096547 0.000000 -9.929854
v -0.096547 0.000000 -9.929854
v -0.000000 -2.000000 -4.876393
v -0.096547 -1.955679 -5.040658
v 0.096547 -1.955679 -5.040658
v -0.000000 2.000000 -4.876393
v 0.096547 1.955679 -5.040658
v -0.096547 1.955679 -5.040658
v 4.637726 -2.000000 -1.506888
v 4.764116 -1.955679 -1.649470
v 4.823785 -1.955679 -1.465827
v 4.764116 1.955679 -1.649470
v 4.637726 2.000000 -1.506888
v 4.823785 1.955679 -1.465827
v 2.866271 -2.000000 3.945086
v 3.040932 -1.955679 4.021229
v 2.884716 -1.955679 4.134727
v 2.884716 1.955679 4.134727
v 3.040932 1.955679 4.021229
v 2.866271 2.000000 3.945086
v -2.866273 -2.000000 3.945085
v -2.884717 -1.955679 4.134727
v -3.040933 -1.955679 4.021229
v -3.040933 1.955679 4.021229
v -2.884717 1.955679 4.134727
v -2.866273 2.000000 3.945085
v -4.637725 -2.000000 -1.506889
v -4.823785 -1.955679 -1.465828
v -4.764115 -1.955679 -1.649471
v -4.764115 1.955679 -1.649471
v -4.823785 1.955679 -1.465828
v -4.637725 2.000000 -1.506889
v 5.758513 0.000000 8.090171
v 5.914730 0.000000 7.976673
v -5.914731 0.000000 7.976672
v -5.758515 0.000000 8.090170
v -9.414018 0.000000 -3.160317
v -9.473687 0.000000 -2.976674
vn 0.2605 -0.8964 -0.3586
vn 0.4215 -0.8964 0.1370
vn -0.0000 0.8964 0.4432
vn -0.2605 0.8964 -0.3586
vn -0.4215 0.8964 0.1370
vn -0.4215 -0.8964 0.1370
vn -0.0000 -0.8964 0.4432
vn 0.0000 -1.0000 0.0000
vn 0.4215 0.8964 0.1370
vn -0.2605 -0.8964 -0.3586
vn 0.0000 1.0000 0.0000
vn 0.0000 -0.9655 -0.2605
vn 0.0000 0.9655 -0.2605
vn 0.2478 -0.9655 -0.0805
vn 0.2478 0.9655 -0.0805
vn 0.1531 -0.9655 0.2108
vn 0.1531 0.9655 0.2108
vn -0.1531 -0.9655 0.2108
vn -0.1531 0.9655 0.2108
vn -0.2477 -0.9655 -0.0805
vn -0.2478 0.9655 -0.0805
vn 0.1338 -0.9738 -0.1841
vn -0.3532 0.9285 -0.1148
vn -0.2183 0.9285 0.3005
vn 0.1338 0.9738 -0.1841
vn 0.0000 0.9285 -0.3714
vn 0.3532 -0.9285 -0.1148
vn 0.2164 -0.9738 0.0703
vn 0.2183 0.9285 0.3005
vn 0.2164 0.9738 0.0703
vn 0.2183 -0.9285 0.3005
vn -0.0000 -0.9738 0.2276
vn 0.3532 0.9285 -0.1148
vn -0.0000 0.9738 0.2276
vn -0.2183 -0.9285 0.3005
vn -0.2164 -0.9738 0.0703
vn 0.0000 -0.9285 -0.3714
vn -0.2164 0.9738 0.0703
vn -0.3532 -0.9285 -0.1148
vn -0.1338 -0.9738 -0.1841
vn -0.1338 0.9738 -0.1841
vn 0.2605 0.8964 -0.3586
usemtl None
s off
f 7//1 3//1 1//1 12//1
f 13//2 2//2 36//2 18//2
f 35//3 20//3 27//3 38//3
f 39//4 32//4 10//4 4//4
f 37//5 26//5 33//5 40//5
f 25//6 37//6 40//6 30//6
f 19//7 35//7 38//7 24//7
f 5//8 11//8 17//8 23//8 29//8
f 2//9 16//9 21//9 36//9
f 31//10 39//10 4//10 6//10
f 15//11 8//11 34//11 28//11 22//11
f 5//12 6//12 7//12
f 8//13 9//13 10//13
f 11//14 12//14 13//14
f 14//15 15//15 16//15
f 17//16 18//16 19//16
f 20//17 21//17 22//17
f 23//18 24//18 25//18
f 26//19 27//19 28//19
f 29//20 30//20 31//20
f 32//21 33//21 34//21
f 7//22 12//22 11//22 5//22
f 32//23 39//23 40//23 33//23
f 26//24 37//24 38//24 27//24
f 14//25 9//25 8//25 15//25
f 4//26 10//26 9//26 3//26
f 2//27 13//27 12//27 1//27
f 13//28 18//28 17//28 11//28
f 20//29 35//29 36//29 21//29
f 21//30 16//30 15//30 22//30
f 35//31 19//31 18//31 36//31
f 19//32 24//32 23//32 17//32
f 16//33 2//33 1//33 14//33
f 27//34 20//34 22//34 28//34
f 37//35 25//35 24//35 38//35
f 25//36 30//36 29//36 23//36
f 6//37 4//37 3//37 7//37
f 33//38 26//38 28//38 34//38
f 39//39 31//39 30//39 40//39
f 31//40 6//40 5//40 29//40
f 10//41 32//41 34//41 8//41
f 3//42 9//42 14//42 1//42
