# Blender v2.78 (sub 0) OBJ File: 'gem-tear.blend'
# www.blender.org
mtllib gem-tear.mtl
o gem_Cylinder
v 0.261750 -2.000000 4.784920
v 0.261750 2.000000 4.784920
v -3.404474 -2.000000 3.749808
v -3.404474 2.000000 3.749808
v -5.051395 -2.000000 1.576161
v -5.051395 2.000000 1.576161
v -2.421329 -2.000000 -3.142370
v -2.421329 2.000000 -3.142370
v 0.261752 -2.000000 -7.088202
v 0.261752 2.000000 -7.088202
v 3.037615 -2.000000 -3.211957
v 3.037615 2.000000 -3.211957
v 5.226957 -2.000000 1.228222
v 5.226957 2.000000 1.228222
v 4.067152 -2.000000 3.297484
v 4.067152 2.000000 3.297484
v 0.192162 0.000000 7.529748
v -5.539760 0.000000 6.233850
v -8.346487 0.000000 0.112062
v -5.591524 0.000000 -5.288891
v 0.261753 0.000000 -13.772051
v 6.149822 0.000000 -5.497652
v 9.217930 0.000000 0.216447
v 6.376409 0.000000 6.164262
v -3.404474 -2.000000 3.749808
vn -0.1398 0.8140 0.5638
vn -0.5329 0.7964 0.2861
vn -0.4196 0.8798 -0.2233
vn -0.3834 0.8852 -0.2633
vn 0.3738 0.8884 -0.2665
vn 0.4042 0.8904 -0.2093
vn 0.0000 1.0000 -0.0000
vn 0.4707 0.8504 0.2349
vn 0.1521 0.8325 0.5327
vn 0.0000 -1.0000 0.0000
vn 0.1521 -0.8325 0.5327
vn 0.4707 -0.8504 0.2349
vn 0.4042 -0.8904 -0.2093
vn 0.3738 -0.8884 -0.2665
vn -0.3834 -0.8852 -0.2633
vn -0.4196 -0.8798 -0.2233
vn -0.5329 -0.7964 0.2861
vn -0.1398 -0.8140 0.5638
usemtl None
s off
f 17//1 2//1 4//1 18//1
f 18//2 4//2 6//2 19//2
f 19//3 6//3 8//3 20//3
f 20//4 8//4 10//4 21//4
f 21//5 10//5 12//5 22//5
f 22//6 12//6 14//6 23//6
f 4//7 2//7 16//7 14//7 12//7 10//7 8//7 6//7
f 23//8 14//8 16//8 24//8
f 24//9 16//9 2//9 17//9
f 1//10 3//10 5//10 7//10 9//10 11//10 13//10 15//10
f 15//11 24//11 17//11 1//11
f 13//12 23//12 24//12 15//12
f 11//13 22//13 23//13 13//13
f 9//14 21//14 22//14 11//14
f 7//15 20//15 21//15 9//15
f 5//16 19//16 20//16 7//16
f 25//17 18//17 19//17 5//17
f 1//18 17//18 18//18 25//18
