# Blender v2.78 (sub 0) OBJ File: 'gem-3.blend'
# www.blender.org
mtllib gem-3.mtl
o gem_Cylinder
v 8.526108 0.000000 5.000000
v 8.570728 0.000000 4.844939
v 0.089525 0.000000 -9.844938
v -0.089525 0.000000 -9.844938
v -0.009338 -1.500000 -4.783827
v -0.089525 -1.448550 -5.016438
v 0.089525 -1.448550 -5.016438
v -0.000000 1.500000 -4.800000
v 0.089525 1.448550 -5.016438
v -0.089525 1.448550 -5.016438
v 4.389123 -1.448550 2.430688
v 4.195981 -1.500000 2.500000
v 4.344503 1.448550 2.585750
v 4.389123 1.448550 2.430688
v 4.156921 1.500000 2.400000
v -4.389125 -1.448550 2.430687
v -4.214658 -1.500000 2.500000
v -4.389125 1.448550 2.430687
v -4.363180 1.448550 2.585749
v -4.156922 1.500000 2.400000
v -8.570729 0.000000 4.844937
v -8.544785 0.000000 4.999999
vn -0.0000 0.8575 0.5145
vn -0.0000 -0.8575 0.5145
vn 0.0000 -1.0000 -0.0000
vn 0.4456 -0.8575 -0.2572
vn -0.4456 0.8575 -0.2572
vn -0.4456 -0.8575 -0.2572
vn 0.0000 1.0000 -0.0000
vn 0.0000 -0.9764 -0.2160
vn 0.0000 0.9729 -0.2313
vn 0.2084 0.9762 0.0600
vn -0.2117 0.9767 0.0354
vn 0.2138 -0.9690 -0.1235
vn -0.3008 0.9523 0.0503
vn 0.2838 0.9554 0.0817
vn 0.2312 0.9637 -0.1335
vn 0.0000 0.9578 -0.2873
vn 0.2838 -0.9554 0.0817
vn 0.0000 -0.9578 -0.2873
vn -0.0000 0.9637 0.2669
vn -0.3008 -0.9523 0.0503
vn -0.2312 -0.9637 -0.1335
vn -0.2312 0.9637 -0.1335
vn 0.4456 0.8575 -0.2572
usemtl None
s off
f 1//1 13//1 19//1 22//1
f 12//2 1//2 22//2 17//2
f 5//3 12//3 17//3
f 7//4 3//4 2//4 11//4
f 21//5 18//5 10//5 4//5
f 16//6 21//6 4//6 6//6
f 15//7 8//7 20//7
f 5//8 6//8 7//8
f 8//9 9//9 10//9
f 13//10 14//10 15//10
f 18//11 19//11 20//11
f 7//12 11//12 12//12 5//12
f 18//13 21//13 22//13 19//13
f 13//14 1//14 2//14 14//14
f 14//15 9//15 8//15 15//15
f 4//16 10//16 9//16 3//16
f 1//17 12//17 11//17 2//17
f 6//18 4//18 3//18 7//18
f 19//19 13//19 15//19 20//19
f 21//20 16//20 17//20 22//20
f 16//21 6//21 5//21 17//21
f 10//22 18//22 20//22 8//22
f 3//23 9//23 14//23 2//23
