# Blender v2.78 (sub 0) OBJ File: 'chest-5.blend'
# www.blender.org
mtllib chest-5.mtl
o box_Cube
v 0.300000 0.350000 -0.400000
v 0.300000 0.350000 0.400000
v -0.300000 0.350000 0.400000
v -0.300000 0.350000 -0.400000
v 0.300000 0.050000 -0.400000
v 0.300000 0.050000 0.400000
v -0.300000 0.050000 0.400000
v -0.300000 0.050000 -0.400000
v 0.275000 0.442209 -0.375000
v -0.275000 0.350000 -0.375000
v 0.275000 0.350000 -0.375000
v 0.275000 0.350000 0.375000
v -0.275000 0.350000 0.375000
v -0.316650 0.352737 -0.422201
v -0.316650 0.352737 0.422200
v -0.275000 0.442209 -0.375000
v 0.309622 0.000926 0.412830
v -0.309622 0.000926 -0.412830
v -0.309622 0.000926 0.412830
v 0.316650 0.352737 0.422200
v 0.309622 0.000926 -0.412830
v 0.309622 0.049074 -0.412830
v 0.309622 0.049074 0.412830
v -0.309622 0.049074 0.412830
v -0.309622 0.049074 -0.412830
v 0.316650 0.352737 -0.422200
v -0.275000 0.442209 0.375000
v 0.275000 0.442209 0.375000
v 0.316650 0.439471 -0.422200
v 0.316650 0.439471 0.422200
v -0.275000 0.050000 -0.375000
v 0.275000 0.050000 -0.375000
v 0.275000 0.050000 0.375000
v -0.275000 0.050000 0.375000
v -0.316650 0.439471 -0.422201
v -0.316650 0.439471 0.422200
v -0.275000 0.350000 0.375000
v 0.275000 0.350000 0.375000
v 0.275000 0.350000 -0.375000
v -0.275000 0.350000 -0.375000
v 0.175000 0.642209 -0.375000
v 0.275000 0.542209 -0.375000
v -0.275000 0.542209 -0.375000
v -0.175000 0.642209 -0.375000
v -0.175000 0.642209 0.375000
v -0.275000 0.542209 0.375000
v 0.275000 0.542209 0.375000
v 0.175000 0.642209 0.375000
v 0.275000 0.396104 -0.375000
v 0.275000 0.396104 0.375000
v -0.275000 0.396104 0.375000
v -0.275000 0.396104 -0.375000
v 0.227960 0.396104 -0.310854
v 0.227960 0.396104 0.310854
v -0.227960 0.396104 0.310854
v -0.227960 0.396104 -0.310854
v 0.227960 0.542209 -0.310854
v 0.227960 0.542209 0.310854
v -0.227960 0.542209 0.310854
v -0.227960 0.542209 -0.310854
v 0.166154 0.603243 -0.310854
v 0.166154 0.603243 0.310854
v -0.166154 0.603244 0.310854
v -0.166154 0.603244 -0.310854
v -0.316650 0.352737 0.219916
v -0.316650 0.352737 -0.219916
v 0.316650 0.352737 -0.219916
v 0.316650 0.352737 0.219916
v 0.316650 0.439471 0.219916
v -0.316650 0.439471 0.219916
v -0.316650 0.439471 -0.219916
v 0.275000 0.442209 -0.219916
v 0.275000 0.442209 0.219916
v -0.275000 0.442209 0.219916
v -0.275000 0.350000 -0.219916
v -0.275000 0.350000 0.219916
v 0.275000 0.350000 -0.219916
v 0.275000 0.350000 0.219916
v 0.175000 0.642209 -0.219916
v 0.175000 0.642209 0.219916
v 0.275000 0.542209 0.219916
v -0.275000 0.542209 -0.219916
v 0.166154 0.603243 0.305698
v 0.227960 0.542209 0.305698
v -0.275000 0.542209 0.219916
v -0.175000 0.642209 0.219916
v 0.227960 0.396104 0.305698
v 0.275000 0.396104 0.305698
v -0.175000 0.642209 -0.219916
v 0.275000 0.396104 0.219916
v -0.175000 0.642209 0.305698
v 0.275000 0.542209 0.305698
v 0.275000 0.396104 -0.219916
v -0.275000 0.396104 -0.219916
v -0.316650 0.439471 0.305698
v -0.316650 0.352737 0.305698
v -0.275000 0.396104 0.219916
v 0.227960 0.396104 0.219916
v -0.166154 0.603244 0.305698
v -0.227960 0.542209 0.305698
v 0.227960 0.396104 -0.219916
v -0.227960 0.396104 -0.219916
v -0.227960 0.396104 0.305698
v -0.275000 0.396104 0.305698
v -0.227960 0.396104 0.219916
v 0.227960 0.542209 0.219916
v -0.275000 0.542209 0.305698
v 0.175000 0.642209 0.305698
v 0.227960 0.542209 -0.219916
v -0.227960 0.542209 -0.219916
v 0.275000 0.350000 0.305698
v -0.275000 0.350000 0.305698
v -0.227960 0.542209 0.219916
v 0.166154 0.603243 0.219916
v -0.275000 0.442209 0.305698
v 0.275000 0.442209 0.305698
v 0.166154 0.603243 -0.219916
v -0.166154 0.603244 -0.219916
v 0.316650 0.439471 0.305698
v 0.316650 0.352737 0.305698
v -0.166154 0.603244 0.219916
v -0.316650 0.352737 -0.305075
v 0.275000 0.396104 -0.305075
v 0.227960 0.396104 -0.305075
v 0.227960 0.542209 -0.305075
v 0.166154 0.603243 -0.305075
v 0.316650 0.352737 -0.305075
v 0.316650 0.439471 -0.305075
v -0.275000 0.350000 -0.305075
v 0.275000 0.350000 -0.305075
v -0.275000 0.396104 -0.305075
v -0.227960 0.396104 -0.305075
v -0.227960 0.542209 -0.305075
v -0.166154 0.603244 -0.305075
v 0.316650 0.542209 0.219916
v 0.316650 0.542209 0.305698
v 0.199213 0.673959 0.219916
v 0.199213 0.673959 0.305698
v -0.199213 0.673959 0.219916
v -0.199213 0.673959 0.305698
v -0.313049 0.542209 0.219916
v -0.313049 0.542209 0.305698
v -0.316650 0.439471 -0.305075
v 0.275000 0.442209 -0.305075
v -0.275000 0.442209 -0.305075
v 0.175000 0.642209 -0.305075
v 0.275000 0.542209 -0.305075
v -0.275000 0.542209 -0.305075
v -0.175000 0.642209 -0.305075
v 0.275000 0.542209 -0.219916
v -0.275000 0.442209 -0.219916
v 0.316650 0.439471 -0.219916
v 0.316650 0.542209 -0.305075
v 0.316650 0.542209 -0.219293
v 0.199213 0.673959 -0.305075
v 0.199213 0.673959 -0.219293
v -0.199213 0.673959 -0.305075
v -0.199213 0.673959 -0.219293
v -0.313049 0.542209 -0.305075
v -0.313049 0.542209 -0.219293
v 0.316650 0.352737 -0.092468
v 0.316650 0.352737 0.092468
v 0.275000 0.350000 -0.092468
v 0.275000 0.350000 0.092468
v 0.320785 0.289827 -0.092468
v 0.320785 0.289827 0.092468
v 0.279135 0.287090 -0.092468
v 0.279135 0.287090 0.092468
v 0.316650 0.352737 -0.000000
v 0.275000 0.350000 -0.000000
v 0.320785 0.220642 -0.000000
v 0.279135 0.217905 -0.000000
v 0.316959 0.342878 -0.000000
v 0.316959 0.342878 0.078665
v 0.320477 0.230501 -0.000000
v 0.320477 0.289359 0.078665
v 0.320477 0.289359 -0.078665
v 0.316959 0.342878 -0.078665
v 0.312185 0.342878 -0.000000
v 0.312185 0.342878 0.078665
v 0.315702 0.230501 -0.000000
v 0.315702 0.289359 0.078665
v 0.315702 0.289359 -0.078665
v 0.312185 0.342878 -0.078665
vn -0.0656 -0.9978 0.0000
vn -1.0000 0.0000 -0.0000
vn -0.0000 0.0000 1.0000
vn -0.0000 -0.9983 0.0579
vn 0.0000 0.0000 -1.0000
vn 0.0656 -0.9978 0.0000
vn 0.0656 0.9978 -0.0000
vn 0.0000 0.9974 -0.0720
vn 0.0000 -1.0000 0.0000
vn -0.0000 0.9983 0.0579
vn 1.0000 0.0000 0.0000
vn 0.0000 1.0000 0.0000
vn -0.0000 0.9974 0.0720
vn -0.0000 -0.9983 -0.0579
vn -0.0958 0.9954 -0.0000
vn 0.0958 0.9954 0.0000
vn 0.0000 0.9983 -0.0579
vn -0.0656 0.9978 0.0000
vn 0.7071 0.7071 0.0000
vn -0.7071 0.7071 0.0000
vn 0.7027 -0.7115 0.0000
vn -0.7027 -0.7115 0.0000
vn -0.9994 0.0350 -0.0000
vn -0.7567 0.6538 0.0000
vn 0.7465 0.6654 0.0000
vn 0.0079 -0.0032 1.0000
vn -0.0076 -0.0031 1.0000
vn -0.0130 -0.0122 0.9998
vn 0.0000 -0.0196 0.9998
vn 0.0136 -0.0126 0.9998
vn 0.0526 -0.7996 -0.5983
vn -0.9990 -0.0424 -0.0158
vn 0.9975 0.0656 -0.0245
vn 0.9995 0.0313 -0.0000
vn -0.9990 -0.0424 0.0158
vn 0.0526 -0.7996 0.5983
vn 0.0000 0.8007 -0.5991
vn 0.9992 0.0313 -0.0234
vn 0.9975 0.0656 0.0245
vn 0.9992 0.0313 0.0234
vn 0.9990 0.0424 -0.0158
vn 0.9990 0.0424 0.0158
vn 0.0000 0.8007 0.5991
usemtl Material
s off
f 129//1 122//1 14//1 10//1
f 24//2 25//2 18//2 19//2
f 15//3 20//3 30//3 36//3
f 15//4 13//4 12//4 20//4
f 26//5 14//5 35//5 29//5
f 127//6 130//6 11//6 26//6
f 128//7 29//7 9//7 144//7
f 8//5 4//5 1//5 5//5
f 8//8 5//8 22//8 25//8
f 3//3 7//3 6//3 2//3
f 18//9 21//9 17//9 19//9
f 3//2 4//2 8//2 7//2
f 36//10 30//10 28//10 27//10
f 1//11 2//11 6//11 5//11
f 127//11 26//11 29//11 128//11
f 34//12 33//12 32//12 31//12
f 22//11 23//11 17//11 21//11
f 24//3 19//3 17//3 23//3
f 7//13 24//13 23//13 6//13
f 14//14 26//14 11//14 10//14
f 39//3 40//3 31//3 32//3
f 7//15 8//15 25//15 24//15
f 2//12 1//12 39//12 38//12
f 4//12 40//12 39//12 1//12
f 18//5 25//5 22//5 21//5
f 5//16 6//16 23//16 22//16
f 40//11 37//11 34//11 31//11
f 96//2 15//2 36//2 95//2
f 35//17 16//17 9//17 29//17
f 37//12 40//12 4//12 3//12
f 3//12 2//12 38//12 37//12
f 37//5 38//5 33//5 34//5
f 145//18 16//18 35//18 143//18
f 38//2 39//2 32//2 33//2
f 116//11 92//11 47//11 28//11
f 42//5 43//5 44//5 41//5
f 46//3 47//3 48//3 45//3
f 107//2 115//2 27//2 46//2
f 108//19 48//19 47//19 92//19
f 107//20 46//20 45//20 91//20
f 91//12 45//12 48//12 108//12
f 9//5 16//5 43//5 42//5
f 27//3 28//3 47//3 46//3
f 111//2 12//2 50//2 88//2
f 10//3 11//3 49//3 52//3
f 12//5 13//5 51//5 50//5
f 129//11 10//11 52//11 131//11
f 50//9 51//9 55//9 54//9
f 88//9 50//9 54//9 87//9
f 131//9 52//9 56//9 132//9
f 52//9 49//9 53//9 56//9
f 87//2 54//2 58//2 84//2
f 132//11 56//11 60//11 133//11
f 56//3 53//3 57//3 60//3
f 54//5 55//5 59//5 58//5
f 133//21 60//21 64//21 134//21
f 60//3 57//3 61//3 64//3
f 58//5 59//5 63//5 62//5
f 84//22 58//22 62//22 83//22
f 126//9 134//9 64//9 61//9
f 83//9 99//9 121//9 114//9
f 114//9 121//9 118//9 117//9
f 125//22 109//22 117//22 126//22
f 109//22 106//22 114//22 117//22
f 100//21 113//21 121//21 99//21
f 113//21 110//21 118//21 121//21
f 103//11 105//11 113//11 100//11
f 105//11 102//11 110//11 113//11
f 124//2 101//2 109//2 125//2
f 101//2 98//2 106//2 109//2
f 104//9 97//9 105//9 103//9
f 97//9 94//9 102//9 105//9
f 123//9 93//9 101//9 124//9
f 93//9 90//9 98//9 101//9
f 112//11 76//11 97//11 104//11
f 76//11 75//11 94//11 97//11
f 130//2 77//2 93//2 123//2
f 77//2 78//2 90//2 93//2
f 89//12 86//12 80//12 79//12
f 65//2 96//2 95//2 70//2
f 82//20 85//20 86//20 89//20
f 139//5 86//5 85//5 141//5
f 79//19 80//19 81//19 150//19
f 137//5 80//5 86//5 139//5
f 135//5 81//5 80//5 137//5
f 82//2 151//2 74//2 85//2
f 78//2 111//2 88//2 90//2
f 69//5 73//5 81//5 135//5
f 72//11 150//11 81//11 73//11
f 98//2 87//2 84//2 106//2
f 90//9 88//9 87//9 98//9
f 74//18 151//18 71//18 70//18
f 62//9 63//9 99//9 83//9
f 122//2 66//2 71//2 143//2
f 106//22 84//22 83//22 114//22
f 66//2 65//2 70//2 71//2
f 55//11 103//11 100//11 59//11
f 120//11 68//11 69//11 119//11
f 59//21 100//21 99//21 63//21
f 68//11 67//11 152//11 69//11
f 13//11 112//11 104//11 51//11
f 51//9 104//9 103//9 55//9
f 69//7 152//7 72//7 73//7
f 20//11 120//11 119//11 30//11
f 120//6 111//6 78//6 68//6
f 27//18 115//18 95//18 36//18
f 68//6 78//6 77//6 67//6
f 20//6 12//6 111//6 120//6
f 112//1 96//1 65//1 76//1
f 30//7 119//7 116//7 28//7
f 76//1 65//1 66//1 75//1
f 13//1 15//1 96//1 112//1
f 14//2 122//2 143//2 35//2
f 9//11 42//11 147//11 144//11
f 43//2 16//2 145//2 148//2
f 41//19 146//19 147//19 42//19
f 43//20 148//20 149//20 44//20
f 44//12 149//12 146//12 41//12
f 11//2 130//2 123//2 49//2
f 49//9 123//9 124//9 53//9
f 53//2 124//2 125//2 57//2
f 57//22 125//22 126//22 61//22
f 117//9 118//9 134//9 126//9
f 110//21 133//21 134//21 118//21
f 102//11 132//11 133//11 110//11
f 94//9 131//9 132//9 102//9
f 75//11 129//11 131//11 94//11
f 67//11 127//11 128//11 152//11
f 67//6 77//6 130//6 127//6
f 75//1 66//1 122//1 129//1
f 74//5 70//5 141//5 85//5
f 107//3 142//3 95//3 115//3
f 70//23 95//23 142//23 141//23
f 136//3 92//3 116//3 119//3
f 138//3 108//3 92//3 136//3
f 140//3 91//3 108//3 138//3
f 107//3 91//3 140//3 142//3
f 142//24 140//24 139//24 141//24
f 139//12 140//12 138//12 137//12
f 137//25 138//25 136//25 135//25
f 119//11 69//11 135//11 136//11
f 157//5 149//5 148//5 159//5
f 155//5 146//5 149//5 157//5
f 153//5 147//5 146//5 155//5
f 128//5 144//5 147//5 153//5
f 145//5 143//5 159//5 148//5
f 82//26 160//26 71//26 151//26
f 143//23 71//23 160//23 159//23
f 154//27 150//27 72//27 152//27
f 156//28 79//28 150//28 154//28
f 158//29 89//29 79//29 156//29
f 82//30 89//30 158//30 160//30
f 160//24 158//24 157//24 159//24
f 157//12 158//12 156//12 155//12
f 155//25 156//25 154//25 153//25
f 152//11 128//11 153//11 154//11
f 169//18 161//18 163//18 170//18
f 171//31 172//31 167//31 165//31
f 170//32 163//32 167//32 172//32
f 162//3 164//3 168//3 166//3
f 162//33 166//33 176//33 174//33
f 163//5 161//5 165//5 167//5
f 161//34 169//34 173//34 178//34
f 164//35 170//35 172//35 168//35
f 166//36 168//36 172//36 171//36
f 162//18 169//18 170//18 164//18
f 176//37 175//37 181//37 182//37
f 177//3 178//3 184//3 183//3
f 166//38 171//38 175//38 176//38
f 169//34 162//34 174//34 173//34
f 165//39 161//39 178//39 177//39
f 171//40 165//40 177//40 175//40
f 179//41 180//41 182//41 181//41
f 184//42 179//42 181//42 183//42
f 178//9 173//9 179//9 184//9
f 174//5 176//5 182//5 180//5
f 173//9 174//9 180//9 179//9
f 175//43 177//43 183//43 181//43
