# Blender v2.78 (sub 0) OBJ File: 'key-6.blend'
# www.blender.org
mtllib key-6.mtl
o key_Cube
v 0.018997 0.058333 -0.030630
v 0.143675 0.058333 -0.148276
v -0.012893 0.058333 -0.030630
v 0.143675 0.041667 -0.148276
v 0.018997 0.041667 -0.030630
v -0.012893 0.058333 0.119370
v -0.012893 0.041667 -0.030630
v 0.018997 0.058333 0.119370
v 0.018997 0.058333 0.144370
v -0.012893 0.058333 0.186870
v 0.018997 0.058333 0.186870
v -0.012893 0.058333 0.144370
v 0.018997 0.058333 0.094370
v -0.012893 0.058333 0.094370
v 0.018997 0.041667 0.186870
v 0.018997 0.041667 0.094370
v 0.018997 0.041667 0.144370
v 0.018997 0.041667 0.119370
v -0.012893 0.041667 0.094370
v -0.012893 0.041667 0.119370
v -0.012893 0.041667 0.186870
v -0.012893 0.041667 0.144370
v 0.002988 0.058333 -0.288962
v 0.002988 0.041667 -0.288962
v -0.137698 0.058333 -0.148276
v -0.137698 0.041667 -0.148276
v 0.017233 0.058333 -0.073918
v -0.011144 0.058333 -0.073918
v 0.017233 0.041667 -0.073918
v -0.011144 0.041667 -0.073918
v 0.002988 0.041667 -0.244483
v -0.089474 0.041667 -0.152020
v -0.089474 0.058333 -0.152020
v 0.002988 0.058333 -0.244483
v 0.095451 0.058333 -0.152020
v 0.095451 0.041667 -0.152020
v 0.010946 0.070593 -0.111562
v -0.004906 0.070593 -0.111562
v 0.010946 0.029407 -0.111562
v -0.004906 0.029407 -0.111562
v 0.002988 0.029407 -0.206839
v -0.048661 0.029407 -0.155190
v -0.048661 0.070593 -0.155190
v 0.002988 0.070593 -0.206839
v 0.054638 0.070593 -0.155190
v 0.054638 0.029407 -0.155190
v -0.065830 0.041667 0.119370
v -0.065830 0.058333 0.119370
v 0.071934 0.041667 0.119370
v 0.071934 0.058333 0.119370
v 0.071934 0.041667 0.144370
v 0.071934 0.058333 0.144370
v -0.065830 0.058333 0.144370
v -0.065830 0.041667 0.144370
v 0.045465 0.058333 0.119370
v 0.045465 0.041667 0.119370
v 0.045465 0.041667 0.144370
v 0.045465 0.058333 0.144370
v -0.039362 0.058333 0.144370
v -0.039362 0.041667 0.144370
v -0.039362 0.041667 0.119370
v -0.039362 0.058333 0.119370
v 0.058699 0.041667 0.179240
v 0.058699 0.058333 0.179240
v -0.052596 0.058333 0.179240
v -0.052596 0.041667 0.179240
v -0.039362 0.058333 0.179240
v 0.045465 0.041667 0.179240
v 0.045465 0.058333 0.179240
v -0.039362 0.041667 0.179240
v -0.052596 0.041667 0.089292
v -0.052596 0.058333 0.089292
v 0.058699 0.041667 0.089292
v 0.058699 0.058333 0.089292
v 0.045465 0.058333 0.089292
v 0.045465 0.041667 0.089292
v -0.039362 0.041667 0.089292
v -0.039362 0.058333 0.089292
v -0.012893 0.041667 0.210754
v -0.012893 0.058333 0.210754
v 0.018997 0.058333 0.210754
v 0.018997 0.041667 0.210754
v -0.039362 0.041667 0.186870
v -0.039362 0.058333 0.186870
v 0.045465 0.058333 0.186870
v 0.045465 0.041667 0.186870
v -0.039362 0.041667 0.198812
v -0.039362 0.058333 0.198812
v 0.045465 0.058333 0.198812
v 0.045465 0.041667 0.198812
vn 0.0000 1.0000 0.0000
vn 1.0000 0.0000 0.0000
vn -1.0000 0.0000 0.0000
vn 0.0000 -1.0000 0.0000
vn -0.6859 0.0000 0.7277
vn 0.7071 0.0000 -0.7071
vn -0.7071 0.0000 -0.7071
vn 0.6863 0.0000 0.7273
vn 0.2958 -0.9083 -0.2958
vn 0.2593 -0.9303 0.2596
vn -0.2958 0.9083 -0.2958
vn 0.0000 0.9508 0.3097
vn -0.2592 -0.9302 0.2600
vn -0.2592 0.9302 0.2600
vn 0.0000 -0.9508 0.3097
vn 0.2593 0.9303 0.2596
vn 0.2958 0.9083 -0.2958
vn -0.2958 -0.9083 -0.2958
vn 0.0000 0.0000 1.0000
vn 0.0000 0.0000 -1.0000
vn 0.9349 0.0000 0.3548
vn -0.9349 0.0000 0.3548
vn -0.9153 0.0000 -0.4027
vn 0.9153 0.0000 -0.4027
vn 0.4113 0.0000 0.9115
vn -0.4113 0.0000 0.9115
usemtl Material
s off
f 81//1 89//1 85//1 11//1
f 11//2 15//2 17//2 9//2
f 20//3 6//3 14//3 19//3
f 22//3 21//3 10//3 12//3
f 57//4 56//4 49//4 51//4
f 12//1 10//1 11//1 9//1
f 4//4 5//4 29//4 36//4
f 13//2 16//2 5//2 1//2
f 21//4 79//4 87//4 83//4
f 16//2 13//2 8//2 18//2
f 14//1 6//1 8//1 13//1
f 19//3 14//3 3//3 7//3
f 19//4 7//4 5//4 16//4
f 6//1 12//1 9//1 8//1
f 13//1 1//1 3//1 14//1
f 20//4 18//4 17//4 22//4
f 22//4 17//4 15//4 21//4
f 19//4 16//4 18//4 20//4
f 7//5 3//5 25//5 26//5
f 24//6 23//6 2//6 4//6
f 26//7 25//7 23//7 24//7
f 26//4 24//4 31//4 32//4
f 4//8 2//8 1//8 5//8
f 31//9 36//9 46//9 41//9
f 36//10 29//10 39//10 46//10
f 3//1 1//1 27//1 28//1
f 24//4 4//4 36//4 31//4
f 23//1 25//1 33//1 34//1
f 5//4 7//4 30//4 29//4
f 7//4 26//4 32//4 30//4
f 25//1 3//1 28//1 33//1
f 1//1 2//1 35//1 27//1
f 2//1 23//1 34//1 35//1
f 44//1 43//1 38//1 37//1 45//1
f 46//4 39//4 40//4 42//4 41//4
f 34//11 33//11 43//11 44//11
f 28//12 27//12 37//12 38//12
f 30//13 32//13 42//13 40//13
f 33//14 28//14 38//14 43//14
f 29//15 30//15 40//15 39//15
f 27//16 35//16 45//16 37//16
f 35//17 34//17 44//17 45//17
f 32//18 31//18 41//18 42//18
f 47//3 54//3 53//3 48//3
f 49//2 50//2 52//2 51//2
f 59//1 53//1 65//1 67//1
f 55//1 50//1 74//1 75//1
f 58//3 57//3 68//3 69//3
f 55//1 58//1 52//1 50//1
f 69//19 68//19 63//19 64//19
f 61//4 60//4 54//4 47//4
f 8//1 9//1 58//1 55//1
f 9//19 17//19 57//19 58//19
f 17//4 18//4 56//4 57//4
f 18//20 8//20 55//20 56//20
f 12//1 6//1 62//1 59//1
f 6//20 20//20 61//20 62//20
f 20//4 22//4 60//4 61//4
f 22//19 12//19 59//19 60//19
f 59//1 62//1 48//1 53//1
f 52//1 58//1 69//1 64//1
f 57//4 51//4 63//4 68//4
f 51//21 52//21 64//21 63//21
f 60//2 59//2 67//2 70//2
f 76//20 75//20 74//20 73//20
f 53//22 54//22 66//22 65//22
f 70//19 67//19 65//19 66//19
f 54//4 60//4 70//4 66//4
f 78//20 77//20 71//20 72//20
f 47//23 48//23 72//23 71//23
f 62//2 61//2 77//2 78//2
f 61//4 47//4 71//4 77//4
f 56//3 55//3 75//3 76//3
f 50//24 49//24 73//24 74//24
f 81//19 80//19 79//19 82//19
f 10//20 21//20 83//20 84//20
f 21//4 15//4 82//4 79//4
f 84//3 83//3 87//3 88//3
f 86//2 85//2 89//2 90//2
f 80//1 10//1 84//1 88//1
f 82//4 15//4 86//4 90//4
f 81//25 82//25 90//25 89//25
f 79//26 80//26 88//26 87//26
f 15//20 11//20 85//20 86//20
f 49//4 56//4 76//4 73//4
f 48//1 62//1 78//1 72//1
f 11//1 10//1 80//1 81//1
