# Blender v2.78 (sub 0) OBJ File: 'key-7.blend'
# www.blender.org
mtllib key-7.mtl
o key_Cube
v 0.079913 0.058323 -0.151653
v 0.072956 0.073960 -0.148772
v 0.057324 0.077822 -0.142297
v 0.044788 0.067001 -0.137104
v 0.044788 0.049646 -0.137104
v 0.057324 0.038825 -0.142297
v 0.072956 0.042687 -0.148772
v 0.036618 0.058323 -0.194949
v 0.033736 0.073960 -0.187992
v 0.027261 0.077822 -0.172360
v 0.022068 0.067001 -0.159824
v 0.022068 0.049646 -0.159824
v 0.027261 0.038825 -0.172360
v 0.033736 0.042687 -0.187992
v -0.024612 0.058323 -0.194949
v -0.021730 0.073960 -0.187992
v -0.015255 0.077822 -0.172360
v -0.010062 0.067001 -0.159824
v -0.010062 0.049646 -0.159824
v -0.015255 0.038825 -0.172360
v -0.021730 0.042687 -0.187992
v -0.067907 0.058323 -0.151653
v -0.060950 0.073960 -0.148772
v -0.045318 0.077822 -0.142297
v -0.032782 0.067001 -0.137104
v -0.032782 0.049646 -0.137104
v -0.045318 0.038825 -0.142297
v -0.060950 0.042687 -0.148772
v -0.067907 0.058323 -0.090424
v -0.060950 0.073960 -0.093306
v -0.045318 0.077822 -0.099781
v -0.032782 0.067001 -0.104974
v -0.032782 0.049646 -0.104974
v -0.045318 0.038825 -0.099781
v -0.060950 0.042687 -0.093306
v -0.011928 0.058323 -0.046673
v -0.010936 0.064067 -0.049822
v -0.015255 0.077822 -0.069718
v -0.010062 0.067001 -0.082254
v -0.010062 0.049646 -0.082254
v -0.015255 0.038825 -0.069718
v -0.010936 0.052580 -0.049822
v 0.023933 0.058323 -0.046673
v 0.022942 0.064067 -0.049822
v 0.027261 0.077822 -0.069718
v 0.022068 0.067001 -0.082254
v 0.022068 0.049646 -0.082254
v 0.027261 0.038825 -0.069718
v 0.022942 0.052580 -0.049822
v 0.079913 0.058323 -0.090424
v 0.072956 0.073960 -0.093306
v 0.057324 0.077822 -0.099781
v 0.044788 0.067001 -0.104974
v 0.044788 0.049646 -0.104974
v 0.057324 0.038825 -0.099781
v 0.072956 0.042687 -0.093306
v 0.006003 0.067001 -0.082254
v 0.006003 0.044328 -0.052090
v 0.006003 0.072318 -0.052090
v 0.006003 0.077822 -0.069718
v 0.006003 0.038825 -0.069718
v 0.006003 0.049646 -0.082254
v 0.006003 0.042687 -0.054085
v 0.033736 0.042687 -0.054085
v 0.006003 0.073960 -0.054085
v 0.033736 0.073960 -0.054085
v 0.036618 0.058323 -0.047128
v -0.024612 0.058323 -0.047128
v -0.021730 0.042687 -0.054085
v -0.021730 0.073960 -0.054085
v -0.009765 0.058323 0.161763
v -0.009048 0.063427 0.161763
v -0.009048 0.053220 0.161763
v 0.021770 0.058323 0.161763
v 0.021054 0.063427 0.161763
v 0.021054 0.053220 0.161763
v 0.006003 0.043429 0.161763
v 0.006003 0.073218 0.161763
v 0.006003 0.058323 0.161763
v 0.021770 0.058323 0.100529
v 0.021054 0.063427 0.100529
v -0.009048 0.053220 0.100529
v 0.006003 0.043429 0.100529
v 0.021054 0.053220 0.100529
v -0.009048 0.063427 0.100529
v 0.006003 0.073218 0.100529
v -0.009765 0.058323 0.100529
v 0.021054 0.063427 0.120940
v 0.021054 0.063427 0.141351
v 0.006003 0.043429 0.120940
v 0.006003 0.043429 0.141351
v -0.009048 0.063427 0.120940
v -0.009048 0.063427 0.141351
v -0.009765 0.058323 0.120940
v -0.009765 0.058323 0.141351
v 0.021770 0.058323 0.141351
v 0.021770 0.058323 0.120940
v -0.009048 0.053220 0.141351
v -0.009048 0.053220 0.120940
v 0.021054 0.053220 0.141351
v 0.021054 0.053220 0.120940
v 0.006003 0.073218 0.141351
v 0.006003 0.073218 0.120940
v 0.049956 0.063427 0.141351
v 0.049956 0.063427 0.161763
v 0.050672 0.058323 0.161763
v 0.049956 0.053220 0.161763
v 0.064049 0.058323 0.120940
v 0.064049 0.058323 0.100529
v 0.063333 0.053220 0.120940
v 0.063333 0.053220 0.100529
v 0.063333 0.063427 0.100529
v 0.063333 0.063427 0.120940
v 0.050672 0.058323 0.141351
v 0.049956 0.053220 0.141351
vn 0.6460 0.4065 -0.6460
vn 0.1696 0.9708 -0.1696
vn -0.4620 0.7570 0.4620
vn -0.7071 0.0000 0.7071
vn -0.4620 -0.7570 0.4620
vn 0.1696 -0.9708 -0.1696
vn 0.6460 -0.4065 -0.6460
vn 0.0000 0.4065 -0.9137
vn 0.0000 0.9708 -0.2398
vn 0.0000 0.7570 0.6534
vn 0.0000 0.0000 1.0000
vn -0.0000 -0.7570 0.6534
vn 0.0000 -0.9708 -0.2398
vn 0.0000 -0.4065 -0.9137
vn -0.6460 0.4065 -0.6460
vn -0.1696 0.9708 -0.1696
vn 0.4620 0.7570 0.4620
vn 0.7071 0.0000 0.7071
vn 0.4620 -0.7570 0.4620
vn -0.1696 -0.9708 -0.1696
vn -0.6460 -0.4065 -0.6460
vn -0.9137 0.4065 0.0000
vn -0.2398 0.9708 -0.0000
vn 0.6534 0.7570 -0.0000
vn 1.0000 0.0000 -0.0000
vn 0.6534 -0.7570 -0.0000
vn -0.2398 -0.9708 0.0000
vn -0.9137 -0.4065 0.0000
vn -0.6460 0.4065 0.6460
vn -0.1696 0.9708 0.1696
vn 0.4620 0.7570 -0.4620
vn 0.7071 0.0000 -0.7071
vn 0.4620 -0.7570 -0.4620
vn -0.1696 -0.9708 0.1696
vn -0.6460 -0.4065 0.6460
vn 0.5453 -0.8383 0.0000
vn 0.0000 0.9708 0.2398
vn 0.0000 0.7570 -0.6534
vn 0.0000 0.0000 -1.0000
vn 0.0000 -0.7570 -0.6534
vn -0.0000 -0.9708 0.2398
vn 0.6460 0.4065 0.6460
vn 0.1696 0.9708 0.1696
vn -0.4620 0.7570 -0.4620
vn -0.7071 0.0000 -0.7071
vn -0.4620 -0.7570 -0.4620
vn 0.1696 -0.9708 0.1696
vn 0.6460 -0.4065 0.6460
vn 0.9137 0.4065 0.0000
vn 0.2398 0.9708 0.0000
vn -0.6534 0.7570 -0.0000
vn -1.0000 0.0000 -0.0000
vn -0.6534 -0.7570 -0.0000
vn 0.2398 -0.9708 0.0000
vn 0.9137 -0.4065 0.0000
vn -0.5453 -0.8383 0.0000
vn 0.0377 -0.4492 0.8926
vn 0.0377 0.4492 0.8926
vn 0.0015 -0.4275 0.9040
vn -0.0015 -0.4275 0.9040
vn 0.0015 0.4275 0.9040
vn -0.0015 0.4275 0.9040
vn -0.0377 -0.4492 0.8926
vn -0.0377 0.4492 0.8926
vn -0.5453 0.8383 0.0000
vn -0.9903 0.1390 0.0000
vn -0.9903 -0.1390 0.0000
vn 0.5453 0.8383 0.0000
vn 0.4911 0.8711 0.0023
vn -0.9871 -0.1594 0.0138
vn -0.9871 0.1594 0.0138
vn -0.4911 0.8711 0.0023
vn -0.4911 -0.8711 0.0023
vn 0.9871 0.1594 0.0138
vn 0.9871 -0.1594 0.0138
vn 0.4911 -0.8711 0.0023
vn 0.9903 0.1390 0.0000
vn 0.0000 1.0000 0.0000
vn 0.9903 -0.1390 0.0000
vn 0.0000 -1.0000 0.0000
usemtl Material
s off
f 1//1 8//1 9//1 2//1
f 2//2 9//2 10//2 3//2
f 3//3 10//3 11//3 4//3
f 4//4 11//4 12//4 5//4
f 5//5 12//5 13//5 6//5
f 6//6 13//6 14//6 7//6
f 1//7 7//7 14//7 8//7
f 8//8 15//8 16//8 9//8
f 9//9 16//9 17//9 10//9
f 10//10 17//10 18//10 11//10
f 11//11 18//11 19//11 12//11
f 12//12 19//12 20//12 13//12
f 13//13 20//13 21//13 14//13
f 14//14 21//14 15//14 8//14
f 15//15 22//15 23//15 16//15
f 16//16 23//16 24//16 17//16
f 17//17 24//17 25//17 18//17
f 18//18 25//18 26//18 19//18
f 19//19 26//19 27//19 20//19
f 20//20 27//20 28//20 21//20
f 21//21 28//21 22//21 15//21
f 22//22 29//22 30//22 23//22
f 23//23 30//23 31//23 24//23
f 24//24 31//24 32//24 25//24
f 25//25 32//25 33//25 26//25
f 26//26 33//26 34//26 27//26
f 27//27 34//27 35//27 28//27
f 28//28 35//28 29//28 22//28
f 29//29 68//29 70//29 30//29
f 30//30 70//30 38//30 31//30
f 31//31 38//31 39//31 32//31
f 32//32 39//32 40//32 33//32
f 33//33 40//33 41//33 34//33
f 34//34 41//34 69//34 35//34
f 35//35 69//35 68//35 29//35
f 91//36 100//36 76//36 77//36
f 65//37 66//37 45//37 60//37
f 60//38 45//38 46//38 57//38
f 57//39 46//39 47//39 62//39
f 62//40 47//40 48//40 61//40
f 61//41 48//41 64//41 63//41
f 74//11 76//11 107//11 106//11
f 67//42 50//42 51//42 66//42
f 66//43 51//43 52//43 45//43
f 45//44 52//44 53//44 46//44
f 46//45 53//45 54//45 47//45
f 47//46 54//46 55//46 48//46
f 48//47 55//47 56//47 64//47
f 64//48 56//48 50//48 67//48
f 50//49 1//49 2//49 51//49
f 51//50 2//50 3//50 52//50
f 52//51 3//51 4//51 53//51
f 53//52 4//52 5//52 54//52
f 54//53 5//53 6//53 55//53
f 55//54 6//54 7//54 56//54
f 56//55 7//55 1//55 50//55
f 97//11 101//11 110//11 108//11
f 41//41 61//41 63//41 69//41
f 40//40 62//40 61//40 41//40
f 39//39 57//39 62//39 40//39
f 38//38 60//38 57//38 39//38
f 70//37 65//37 60//37 38//37
f 98//56 91//56 77//56 73//56
f 49//57 58//57 63//57 64//57
f 59//58 44//58 66//58 65//58
f 43//59 49//59 64//59 67//59
f 42//60 36//60 68//60 69//60
f 44//61 43//61 67//61 66//61
f 36//62 37//62 70//62 68//62
f 58//63 42//63 69//63 63//63
f 37//64 59//64 65//64 70//64
f 79//11 74//11 75//11 78//11
f 77//11 76//11 74//11 79//11
f 73//11 77//11 79//11 71//11
f 71//11 79//11 78//11 72//11
f 102//65 93//65 72//65 78//65
f 93//66 95//66 71//66 72//66
f 95//67 98//67 73//67 71//67
f 89//68 102//68 78//68 75//68
f 44//69 59//69 86//69 81//69
f 36//70 42//70 82//70 87//70
f 37//71 36//71 87//71 85//71
f 59//72 37//72 85//72 86//72
f 42//73 58//73 83//73 82//73
f 43//74 44//74 81//74 80//74
f 49//75 43//75 80//75 84//75
f 58//76 49//76 84//76 83//76
f 81//68 86//68 103//68 88//68
f 88//68 103//68 102//68 89//68
f 87//67 82//67 99//67 94//67
f 94//67 99//67 98//67 95//67
f 85//66 87//66 94//66 92//66
f 92//66 94//66 95//66 93//66
f 86//65 85//65 92//65 103//65
f 103//65 92//65 93//65 102//65
f 82//56 83//56 90//56 99//56
f 99//56 90//56 91//56 98//56
f 80//39 81//39 112//39 109//39
f 97//77 88//77 89//77 96//77
f 81//78 88//78 113//78 112//78
f 101//79 97//79 96//79 100//79
f 83//36 84//36 101//36 90//36
f 90//36 101//36 100//36 91//36
f 115//79 114//79 106//79 107//79
f 114//77 104//77 105//77 106//77
f 109//77 112//77 113//77 108//77
f 111//79 109//79 108//79 110//79
f 84//39 80//39 109//39 111//39
f 101//80 84//80 111//80 110//80
f 100//39 96//39 114//39 115//39
f 76//80 100//80 115//80 107//80
f 89//78 75//78 105//78 104//78
f 88//11 97//11 108//11 113//11
f 96//39 89//39 104//39 114//39
f 75//11 74//11 106//11 105//11
