# Blender v2.78 (sub 0) OBJ File: 'coin-8.blend'
# www.blender.org
mtllib coin-8.mtl
o coin_Cylinder
v 7.445944 1.410964 -2.709326
v 7.445944 1.410964 2.709326
v -7.445944 -1.410964 -2.709326
v -7.445944 -1.410964 2.709326
v -7.445944 1.410964 2.709326
v -7.445944 1.410964 -2.709326
v 7.445944 -1.410964 2.709326
v 7.445944 -1.410964 -2.709326
v 2.709326 1.410964 7.445944
v -2.709326 1.410964 7.445944
v -2.709326 -1.410964 7.445944
v 2.709326 -1.410964 7.445944
v -2.709326 1.410964 -7.445944
v 2.709326 1.410964 -7.445944
v 2.709326 -1.410964 -7.445944
v -2.709326 -1.410964 -7.445944
v 7.445944 1.410964 -6.845470
v 6.845470 1.410964 -7.445944
v 6.845470 -1.410964 -7.445944
v 7.445944 -1.410964 -6.845470
v 6.845470 1.410964 7.445944
v 7.445944 1.410964 6.845470
v 7.445944 -1.410964 6.845470
v 6.845470 -1.410964 7.445944
v -6.845470 1.410964 -7.445944
v -7.445944 1.410964 -6.845470
v -7.445944 -1.410964 -6.845470
v -6.845470 -1.410964 -7.445944
v -7.445944 1.410964 6.845470
v -6.845470 1.410964 7.445944
v -6.845470 -1.410964 7.445944
v -7.445944 -1.410964 6.845470
v -2.098550 1.410964 -1.323985
v -1.606492 1.410964 -2.780584
v 1.323985 1.410964 -2.098550
v 2.780584 1.410964 -1.606492
v -1.323985 1.410964 2.098550
v -2.780584 1.410964 1.606493
v 2.098550 1.410964 1.323985
v 1.606493 1.410964 2.780584
v 2.098550 -1.410964 -1.323985
v 1.606492 -1.410964 -2.780584
v -1.323985 -1.410964 -2.098550
v -2.780584 -1.410964 -1.606492
v 1.323985 -1.410964 2.098550
v 2.780584 -1.410964 1.606493
v -2.098550 -1.410964 1.323985
v -1.606493 -1.410964 2.780584
v 8.127978 1.410964 -2.709326
v 8.127978 1.410964 2.709326
v -8.127978 -1.410964 -2.709326
v -8.127978 -1.410964 2.709326
v -8.127978 1.410964 2.709326
v -8.127978 1.410964 -2.709326
v 8.127978 -1.410964 2.709326
v 8.127978 -1.410964 -2.709326
v 2.709326 1.410964 8.127978
v -2.709326 1.410964 8.127978
v -2.709326 -1.410964 8.127978
v 2.709326 -1.410964 8.127978
v -2.709326 1.410964 -8.127978
v 2.709326 1.410964 -8.127978
v 2.709326 -1.410964 -8.127978
v -2.709326 -1.410964 -8.127978
v -2.780584 1.410964 -1.606492
v -1.323985 1.410964 -2.098550
v 1.606493 1.410964 -2.780584
v 2.098550 1.410964 -1.323984
v -1.606492 1.410964 2.780584
v -2.098550 1.410964 1.323985
v 2.780584 1.410964 1.606493
v 1.323985 1.410964 2.098550
v 2.780584 -1.410964 -1.606492
v 1.323985 -1.410964 -2.098550
v -1.606493 -1.410964 -2.780584
v -2.098550 -1.410964 -1.323984
v 1.606492 -1.410964 2.780584
v 2.098550 -1.410964 1.323985
v -2.780584 -1.410964 1.606493
v -1.323985 -1.410964 2.098550
v 7.127978 1.410964 -8.127978
v 8.127978 1.410964 -7.127978
v 8.127978 -1.410964 -7.127978
v 7.127978 -1.410964 -8.127978
v -8.127978 1.410964 -7.127978
v -7.127978 1.410964 -8.127978
v -7.127978 -1.410964 -8.127978
v -8.127978 -1.410964 -7.127978
v -8.127978 -1.410964 7.127978
v -7.127978 -1.410964 8.127978
v -7.127978 1.410964 8.127978
v -8.127978 1.410964 7.127978
v 8.127978 1.410964 7.127978
v 7.127978 1.410964 8.127978
v 7.127978 -1.410964 8.127978
v 8.127978 -1.410964 7.127978
v -3.709326 1.188830 -2.709326
v -2.780584 1.188830 -1.606492
v -1.606492 1.188830 -2.780584
v -2.709326 1.188830 -3.709326
v 2.709326 1.188830 -3.709326
v 1.606493 1.188830 -2.780584
v 2.780584 1.188830 -1.606492
v 3.709326 1.188830 -2.709326
v -2.709326 1.188830 3.709326
v -1.606492 1.188830 2.780584
v -2.780584 1.188830 1.606493
v -3.709326 1.188830 2.709326
v 3.709326 1.188830 2.709326
v 2.780584 1.188830 1.606493
v 1.606493 1.188830 2.780584
v 2.709326 1.188830 3.709326
v 3.709326 -1.188830 -2.709326
v 2.780584 -1.188830 -1.606492
v 1.606492 -1.188830 -2.780584
v 2.709326 -1.188830 -3.709326
v -2.709326 -1.188830 -3.709326
v -1.606493 -1.188830 -2.780584
v -2.780584 -1.188830 -1.606492
v -3.709326 -1.188830 -2.709326
v 2.709326 -1.188830 3.709326
v 1.606492 -1.188830 2.780584
v 2.780584 -1.188830 1.606493
v 3.709326 -1.188830 2.709326
v -3.709326 -1.188830 2.709326
v -2.780584 -1.188830 1.606493
v -1.606493 -1.188830 2.780584
v -2.709326 -1.188830 3.709326
v 2.709326 1.188830 -7.445944
v 7.445944 1.188830 -2.709326
v 2.709326 -1.188830 -7.445944
v 7.445944 -1.188830 -2.709326
v 7.445944 1.188830 2.709326
v 2.709326 1.188830 7.445944
v 2.709326 -1.188830 7.445944
v 7.445944 -1.188830 2.709326
v -2.709326 1.188830 -7.445944
v -7.445944 1.188830 -2.709326
v -2.709326 -1.188830 -7.445944
v -7.445944 -1.188830 -2.709326
v -2.709326 1.188830 7.445944
v -7.445944 1.188830 2.709326
v -7.445944 -1.188830 2.709326
v -2.709326 -1.188830 7.445944
v 6.845470 1.188830 -7.445944
v 7.445944 1.188830 -6.845470
v 7.445944 -1.188830 -6.845470
v 6.845470 -1.188830 -7.445944
v -7.445944 1.188830 -6.845470
v -6.845470 1.188830 -7.445944
v -6.845470 -1.188830 -7.445944
v -7.445944 -1.188830 -6.845470
v -7.445944 -1.188830 6.845470
v -6.845470 -1.188830 7.445944
v -6.845470 1.188830 7.445944
v -7.445944 1.188830 6.845470
v 7.445944 1.188830 6.845470
v 6.845470 1.188830 7.445944
v 6.845470 -1.188830 7.445944
v 7.445944 -1.188830 6.845470
vn -1.0000 0.0000 0.0000
vn 1.0000 0.0000 0.0000
vn -0.7071 0.0000 0.7071
vn 0.0000 0.0000 1.0000
vn 0.0000 0.0000 -1.0000
vn 0.7071 0.0000 0.7071
vn -0.7071 0.0000 -0.7071
vn 0.7071 0.0000 -0.7071
vn 0.0000 1.0000 0.0000
vn 0.0000 -1.0000 0.0000
usemtl None
s off
f 51//1 54//1 85//1 88//1
f 36//2 71//2 110//2 103//2
f 19//3 20//3 147//3 148//3
f 89//1 92//1 53//1 52//1
f 59//4 58//4 91//4 90//4
f 95//4 94//4 57//4 60//4
f 7//1 23//1 160//1 136//1
f 56//2 49//2 50//2 55//2
f 87//5 86//5 61//5 64//5
f 8//1 7//1 136//1 132//1
f 42//5 75//5 118//5 115//5
f 52//1 53//1 54//1 51//1
f 17//3 18//3 145//3 146//3
f 9//5 21//5 158//5 134//5
f 6//2 5//2 142//2 138//2
f 44//1 79//1 126//1 119//1
f 79//3 48//3 127//3 126//3
f 22//1 2//1 133//1 157//1
f 78//1 39//1 68//1 41//1
f 66//4 43//4 74//4 35//4
f 83//2 82//2 49//2 56//2
f 47//2 76//2 33//2 70//2
f 55//2 50//2 93//2 96//2
f 4//2 3//2 140//2 143//2
f 34//5 67//5 102//5 99//5
f 60//4 57//4 58//4 59//4
f 77//6 46//6 123//6 122//6
f 64//5 61//5 62//5 63//5
f 20//1 8//1 132//1 147//1
f 37//5 72//5 45//5 80//5
f 2//1 1//1 130//1 133//1
f 38//1 65//1 98//1 107//1
f 75//7 44//7 119//7 118//7
f 1//1 17//1 146//1 130//1
f 32//2 4//2 143//2 153//2
f 73//8 42//8 115//8 114//8
f 18//4 14//4 129//4 145//4
f 11//5 31//5 154//5 144//5
f 71//6 40//6 111//6 110//6
f 82//8 83//8 84//8 81//8
f 86//7 87//7 88//7 85//7
f 90//3 91//3 92//3 89//3
f 94//6 95//6 96//6 93//6
f 43//6 66//6 33//6 76//6
f 47//8 70//8 37//8 80//8
f 35//3 74//3 41//3 68//3
f 45//7 72//7 39//7 78//7
f 63//5 62//5 81//5 84//5
f 1//9 2//9 50//9 49//9
f 3//10 4//10 52//10 51//10
f 5//9 6//9 54//9 53//9
f 7//10 8//10 56//10 55//10
f 9//9 10//9 58//9 57//9
f 11//10 12//10 60//10 59//10
f 13//9 14//9 62//9 61//9
f 15//10 16//10 64//10 63//10
f 34//9 65//9 33//9 66//9
f 36//9 67//9 35//9 68//9
f 38//9 69//9 37//9 70//9
f 40//9 71//9 39//9 72//9
f 42//10 73//10 41//10 74//10
f 44//10 75//10 43//10 76//10
f 46//10 77//10 45//10 78//10
f 48//10 79//10 47//10 80//10
f 18//9 17//9 82//9 81//9
f 20//10 19//10 84//10 83//10
f 26//9 25//9 86//9 85//9
f 28//10 27//10 88//10 87//10
f 32//10 31//10 90//10 89//10
f 30//9 29//9 92//9 91//9
f 22//9 21//9 94//9 93//9
f 24//10 23//10 96//10 95//10
f 19//10 15//10 63//10 84//10
f 14//9 18//9 81//9 62//9
f 17//9 1//9 49//9 82//9
f 8//10 20//10 83//10 56//10
f 2//9 22//9 93//9 50//9
f 21//9 9//9 57//9 94//9
f 23//10 7//10 55//10 96//10
f 12//10 24//10 95//10 60//10
f 27//10 3//10 51//10 88//10
f 6//9 26//9 85//9 54//9
f 25//9 13//9 61//9 86//9
f 16//10 28//10 87//10 64//10
f 29//9 5//9 53//9 92//9
f 10//9 30//9 91//9 58//9
f 31//10 11//10 59//10 90//10
f 4//10 32//10 89//10 52//10
f 65//9 38//9 70//9 33//9
f 67//9 34//9 66//9 35//9
f 79//10 44//10 76//10 47//10
f 75//10 42//10 74//10 43//10
f 71//9 36//9 68//9 39//9
f 73//10 46//10 78//10 41//10
f 69//9 40//9 72//9 37//9
f 77//10 48//10 80//10 45//10
f 146//9 145//9 129//9 101//9 104//9 130//9
f 137//9 150//9 149//9 138//9 97//9 100//9
f 131//10 148//10 147//10 132//10 113//10 116//10
f 129//9 137//9 100//9 99//9 102//9 101//9
f 143//10 125//10 128//10 144//10 154//10 153//10
f 133//9 109//9 112//9 134//9 158//9 157//9
f 139//10 131//10 116//10 115//10 118//10 117//10
f 128//10 127//10 122//10 121//10 135//10 144//10
f 130//9 104//9 103//9 110//9 109//9 133//9
f 105//9 108//9 142//9 156//9 155//9 141//9
f 140//10 120//10 119//10 126//10 125//10 143//10
f 114//10 113//10 132//10 136//10 124//10 123//10
f 121//10 124//10 136//10 160//10 159//10 135//10
f 152//10 151//10 139//10 117//10 120//10 140//10
f 98//9 97//9 138//9 142//9 108//9 107//9
f 112//9 111//9 106//9 105//9 141//9 134//9
f 98//9 99//9 100//9 97//9
f 102//9 103//9 104//9 101//9
f 106//9 107//9 108//9 105//9
f 110//9 111//9 112//9 109//9
f 114//10 115//10 116//10 113//10
f 118//10 119//10 120//10 117//10
f 122//10 123//10 124//10 121//10
f 126//10 127//10 128//10 125//10
f 10//5 9//5 134//5 141//5
f 24//5 12//5 135//5 159//5
f 25//6 26//6 149//6 150//6
f 46//2 73//2 114//2 123//2
f 12//5 11//5 144//5 135//5
f 3//2 27//2 152//2 140//2
f 27//6 28//6 151//6 152//6
f 40//4 69//4 106//4 111//4
f 14//4 13//4 137//4 129//4
f 26//2 6//2 138//2 149//2
f 31//8 32//8 153//8 154//8
f 48//4 77//4 122//4 127//4
f 16//4 15//4 131//4 139//4
f 13//4 25//4 150//4 137//4
f 29//8 30//8 155//8 156//8
f 65//7 34//7 99//7 98//7
f 28//4 16//4 139//4 151//4
f 21//7 22//7 157//7 158//7
f 67//8 36//8 103//8 102//8
f 5//2 29//2 156//2 142//2
f 23//7 24//7 159//7 160//7
f 69//3 38//3 107//3 106//3
f 30//5 10//5 141//5 155//5
f 15//4 19//4 148//4 131//4
