# Blender v2.78 (sub 0) OBJ File: 'coin-quad.blend'
# www.blender.org
mtllib coin-quad.mtl
o coin_Cylinder
v 0.000000 -1.500000 -10.000000
v 0.000000 1.500000 -10.000000
v 3.826835 -1.500000 -9.238795
v 3.826835 1.500000 -9.238795
v 7.071068 -1.500000 -7.071068
v 7.071068 1.500000 -7.071068
v 9.238795 -1.500000 -3.826834
v 9.238795 1.500000 -3.826834
v 10.000000 -1.500000 0.000000
v 10.000000 1.500000 0.000000
v 9.238795 -1.500000 3.826835
v 9.238795 1.500000 3.826835
v 7.071068 -1.500000 7.071068
v 7.071068 1.500000 7.071068
v 3.826835 -1.500000 9.238795
v 3.826835 1.500000 9.238795
v 0.000002 -1.500000 10.000000
v 0.000002 1.500000 10.000000
v -3.826832 -1.500000 9.238796
v -3.826832 1.500000 9.238796
v -7.071066 -1.500000 7.071070
v -7.071066 1.500000 7.071070
v -9.238795 -1.500000 3.826836
v -9.238795 1.500000 3.826836
v -10.000000 -1.500000 -0.000000
v -10.000000 1.500000 -0.000000
v -9.238794 -1.500000 -3.826836
v -9.238794 1.500000 -3.826836
v -7.071065 -1.500000 -7.071070
v -7.071065 1.500000 -7.071070
v -3.826830 -1.500000 -9.238797
v -3.826830 1.500000 -9.238797
v 0.000000 1.500000 -8.000000
v 3.061468 1.500000 -7.391037
v 5.656855 1.500000 -5.656854
v 7.391036 1.500000 -3.061467
v 8.000000 1.500000 0.000000
v 7.391036 1.500000 3.061468
v 5.656855 1.500000 5.656854
v 3.061468 1.500000 7.391037
v 0.000001 1.500000 8.000000
v -3.061466 1.500000 7.391037
v -5.656853 1.500000 5.656856
v -7.391037 1.500000 3.061469
v -8.000000 1.500000 -0.000000
v -7.391036 1.500000 -3.061469
v -5.656852 1.500000 -5.656856
v -3.061464 1.500000 -7.391038
v 0.000000 0.500000 -8.000000
v 3.061468 0.500000 -7.391037
v 5.656855 0.500000 -5.656854
v 7.391036 0.500000 -3.061467
v 8.000000 0.500000 0.000000
v 7.391036 0.500000 3.061468
v 5.656855 0.500000 5.656854
v 3.061468 0.500000 7.391037
v 0.000001 0.500000 8.000000
v -3.061466 0.500000 7.391037
v -5.656853 0.500000 5.656856
v -7.391037 0.500000 3.061469
v -8.000000 0.500000 -0.000000
v -7.391036 0.500000 -3.061469
v -5.656852 0.500000 -5.656856
v -3.061464 0.500000 -7.391038
v 0.000001 0.500000 -0.000000
v -5.656852 -1.500000 -5.656856
v -7.391036 -1.500000 -3.061469
v -8.000000 -1.500000 -0.000000
v -7.391036 -1.500000 3.061469
v -5.656853 -1.500000 5.656856
v -3.061466 -1.500000 7.391037
v 0.000001 -1.500000 8.000000
v 3.061468 -1.500000 7.391037
v 5.656855 -1.500000 5.656854
v 7.391037 -1.500000 3.061468
v 8.000000 -1.500000 0.000000
v 7.391037 -1.500000 -3.061467
v 5.656855 -1.500000 -5.656854
v 3.061468 -1.500000 -7.391037
v 0.000000 -1.500000 -8.000000
v -3.061464 -1.500000 -7.391038
v -5.656852 -0.500000 -5.656856
v -7.391036 -0.500000 -3.061469
v -8.000000 -0.500000 -0.000000
v -7.391036 -0.500000 3.061469
v -5.656853 -0.500000 5.656856
v -3.061466 -0.500000 7.391037
v 0.000001 -0.500000 8.000000
v 3.061468 -0.500000 7.391037
v 5.656855 -0.500000 5.656854
v 7.391037 -0.500000 3.061468
v 8.000000 -0.500000 0.000000
v 7.391037 -0.500000 -3.061467
v 5.656855 -0.500000 -5.656854
v 3.061468 -0.500000 -7.391037
v 0.000000 -0.500000 -8.000000
v -3.061464 -0.500000 -7.391038
v 0.000001 -0.500000 -0.000000
v 0.000000 0.883130 -6.082165
v 0.000000 -0.883130 -6.082165
v 3.769058 0.883130 0.000000
v 3.769058 -0.883130 0.000000
v -3.769058 0.883130 0.000000
v -3.769058 -0.883130 0.000000
v 0.000000 0.883130 6.082165
v 0.000000 -0.883130 6.082165
vn 0.1951 0.0000 -0.9808
vn 0.5556 0.0000 -0.8315
vn 0.8315 0.0000 -0.5556
vn 0.9808 0.0000 -0.1951
vn 0.9808 0.0000 0.1951
vn 0.8315 0.0000 0.5556
vn 0.5556 0.0000 0.8315
vn 0.1951 0.0000 0.9808
vn -0.1951 0.0000 0.9808
vn -0.5556 0.0000 0.8315
vn -0.8315 0.0000 0.5556
vn -0.9808 0.0000 0.1951
vn -0.9808 0.0000 -0.1951
vn -0.8315 0.0000 -0.5556
vn -0.5556 0.0000 -0.8315
vn -0.1951 0.0000 -0.9808
vn 0.0000 1.0000 -0.0000
vn 0.0000 -1.0000 0.0000
vn 0.8500 0.0000 -0.5267
vn -0.8500 0.0000 -0.5267
vn 0.8500 0.0000 0.5267
vn -0.8500 0.0000 0.5267
usemtl None
s off
f 1//1 2//1 4//1 3//1
f 3//2 4//2 6//2 5//2
f 5//3 6//3 8//3 7//3
f 7//4 8//4 10//4 9//4
f 9//5 10//5 12//5 11//5
f 11//6 12//6 14//6 13//6
f 13//7 14//7 16//7 15//7
f 15//8 16//8 18//8 17//8
f 17//9 18//9 20//9 19//9
f 19//10 20//10 22//10 21//10
f 21//11 22//11 24//11 23//11
f 23//12 24//12 26//12 25//12
f 25//13 26//13 28//13 27//13
f 27//14 28//14 30//14 29//14
f 29//15 30//15 32//15 31//15
f 31//16 32//16 2//16 1//16
f 2//17 32//17 48//17 33//17
f 10//17 8//17 36//17 37//17
f 20//17 18//17 41//17 42//17
f 30//17 28//17 46//17 47//17
f 6//17 4//17 34//17 35//17
f 16//17 14//17 39//17 40//17
f 26//17 24//17 44//17 45//17
f 12//17 10//17 37//17 38//17
f 22//17 20//17 42//17 43//17
f 32//17 30//17 47//17 48//17
f 8//17 6//17 35//17 36//17
f 18//17 16//17 40//17 41//17
f 28//17 26//17 45//17 46//17
f 4//17 2//17 33//17 34//17
f 14//17 12//17 38//17 39//17
f 24//17 22//17 43//17 44//17
f 48//7 47//7 63//7 64//7
f 41//16 40//16 56//16 57//16
f 34//9 33//9 49//9 50//9
f 33//8 48//8 64//8 49//8
f 42//1 41//1 57//1 58//1
f 35//10 34//10 50//10 51//10
f 43//2 42//2 58//2 59//2
f 36//11 35//11 51//11 52//11
f 44//3 43//3 59//3 60//3
f 37//12 36//12 52//12 53//12
f 45//4 44//4 60//4 61//4
f 38//13 37//13 53//13 54//13
f 46//5 45//5 61//5 62//5
f 39//14 38//14 54//14 55//14
f 47//6 46//6 62//6 63//6
f 40//15 39//15 55//15 56//15
f 54//17 53//17 65//17
f 62//17 61//17 65//17
f 55//17 54//17 65//17
f 63//17 62//17 65//17
f 56//17 55//17 65//17
f 64//17 63//17 65//17
f 57//17 56//17 65//17
f 50//17 49//17 65//17
f 49//17 64//17 65//17
f 58//17 57//17 65//17
f 51//17 50//17 65//17
f 59//17 58//17 65//17
f 52//17 51//17 65//17
f 60//17 59//17 65//17
f 53//17 52//17 65//17
f 61//17 60//17 65//17
f 7//18 9//18 76//18 77//18
f 17//18 19//18 71//18 72//18
f 27//18 29//18 66//18 67//18
f 3//18 5//18 78//18 79//18
f 13//18 15//18 73//18 74//18
f 23//18 25//18 68//18 69//18
f 9//18 11//18 75//18 76//18
f 19//18 21//18 70//18 71//18
f 29//18 31//18 81//18 66//18
f 5//18 7//18 77//18 78//18
f 15//18 17//18 72//18 73//18
f 1//18 3//18 79//18 80//18
f 25//18 27//18 67//18 68//18
f 11//18 13//18 74//18 75//18
f 21//18 23//18 69//18 70//18
f 31//18 1//18 80//18 81//18
f 74//15 73//15 89//15 90//15
f 67//6 66//6 82//6 83//6
f 68//5 67//5 83//5 84//5
f 75//14 74//14 90//14 91//14
f 69//4 68//4 84//4 85//4
f 76//13 75//13 91//13 92//13
f 70//3 69//3 85//3 86//3
f 77//12 76//12 92//12 93//12
f 71//2 70//2 86//2 87//2
f 78//11 77//11 93//11 94//11
f 72//1 71//1 87//1 88//1
f 81//8 80//8 96//8 97//8
f 79//10 78//10 94//10 95//10
f 73//16 72//16 88//16 89//16
f 66//7 81//7 97//7 82//7
f 80//9 79//9 95//9 96//9
f 94//18 93//18 98//18
f 87//18 86//18 98//18
f 95//18 94//18 98//18
f 88//18 87//18 98//18
f 97//18 96//18 98//18
f 96//18 95//18 98//18
f 89//18 88//18 98//18
f 82//18 97//18 98//18
f 90//18 89//18 98//18
f 83//18 82//18 98//18
f 91//18 90//18 98//18
f 84//18 83//18 98//18
f 92//18 91//18 98//18
f 85//18 84//18 98//18
f 93//18 92//18 98//18
f 86//18 85//18 98//18
f 99//17 103//17 105//17 101//17
f 100//19 99//19 101//19 102//19
f 104//20 103//20 99//20 100//20
f 102//21 101//21 105//21 106//21
f 106//22 105//22 103//22 104//22
f 104//18 100//18 102//18 106//18
