# Blender v2.78 (sub 0) OBJ File: '3-table-cut.blend'
# www.blender.org
mtllib 3-table-cut.mtl
o gem_Cylinder
v 8.521360 10.036833 4.847269
v 8.467328 10.200800 4.800081
v 8.390656 10.200800 4.932882
v 8.458538 10.036833 4.956081
v 0.062822 10.036833 -9.803349
v -0.062823 10.036833 -9.803349
v -0.076672 10.200800 -9.732962
v 0.076673 10.200800 -9.732962
v -0.062823 0.047382 -0.036271
v 0.062822 0.047382 -0.036271
v -0.000000 0.047382 0.072541
v -0.000000 12.887766 -4.800000
v 0.076672 12.813637 -5.001437
v -0.076673 12.813638 -5.001436
v 4.293035 12.813637 2.567119
v 4.369706 12.813638 2.434317
v 4.156921 12.887766 2.400000
v -4.369709 12.813637 2.434317
v -4.293036 12.813637 2.567118
v -4.156922 12.887766 2.399999
v -8.458539 10.036833 4.956080
v -8.390656 10.200800 4.932880
v -8.467328 10.200800 4.800079
v -8.521361 10.036833 4.847268
vn -0.0000 0.6712 0.7413
vn -0.0000 -0.4392 0.8984
vn 0.0000 1.0000 -0.0000
vn 0.7780 -0.4392 -0.4492
vn -0.6420 0.6712 -0.3706
vn -0.7780 -0.4392 -0.4492
vn 0.7958 0.3945 0.4595
vn 0.0000 0.3945 -0.9189
vn 0.0000 -1.0000 0.0000
vn 0.0000 0.9385 -0.3454
vn 0.2991 0.9385 0.1727
vn -0.2991 0.9385 0.1727
vn -0.7958 0.3945 0.4594
vn 0.8575 0.1401 -0.4951
vn -0.0000 0.1401 0.9901
vn -0.4186 0.8754 0.2417
vn 0.4186 0.8754 0.2417
vn 0.3511 0.9141 -0.2027
vn 0.0000 0.8754 -0.4834
vn -0.8575 0.1401 -0.4951
vn 0.0000 -0.6991 -0.7150
vn -0.0000 0.9141 0.4055
vn -0.3511 0.9141 -0.2027
vn 0.6192 -0.6991 0.3575
vn -0.6192 -0.6991 0.3575
vn 0.6420 0.6712 -0.3706
usemtl None
s off
f 3//1 15//1 19//1 22//1
f 11//2 4//2 21//2
f 17//3 12//3 20//3
f 10//4 5//4 1//4
f 23//5 18//5 14//5 7//5
f 9//6 24//6 6//6
f 1//7 2//7 3//7 4//7
f 5//8 6//8 7//8 8//8
f 9//9 10//9 11//9
f 12//10 13//10 14//10
f 15//11 16//11 17//11
f 18//12 19//12 20//12
f 21//13 22//13 23//13 24//13
f 8//14 2//14 1//14 5//14
f 3//15 22//15 21//15 4//15
f 18//16 23//16 22//16 19//16
f 15//17 3//17 2//17 16//17
f 16//18 13//18 12//18 17//18
f 7//19 14//19 13//19 8//19
f 23//20 7//20 6//20 24//20
f 9//21 6//21 5//21 10//21
f 19//22 15//22 17//22 20//22
f 14//23 18//23 20//23 12//23
f 4//24 11//24 10//24 1//24
f 24//25 9//25 11//25 21//25
f 8//26 13//26 16//26 2//26
