# Blender v2.78 (sub 0) OBJ File: '4-table-cut.blend'
# www.blender.org
mtllib 4-table-cut.mtl
o gem_Cylinder
v 9.837118 9.966239 -0.081566
v 9.800178 10.110744 -0.089638
v 9.800178 10.110744 0.089639
v 9.837118 9.966239 0.081566
v 0.081566 9.966239 -9.837118
v -0.081566 9.966239 -9.837118
v -0.089639 10.110744 -9.800178
v 0.089639 10.110744 -9.800178
v -0.081566 0.150553 -0.081566
v 0.081566 0.150553 -0.081566
v 0.081566 0.150553 0.081566
v -0.081566 0.150553 0.081566
v -0.000000 12.892750 -4.858579
v 0.089639 12.830062 -5.020545
v -0.089639 12.830062 -5.020545
v 4.858579 12.892750 0.000000
v 5.020545 12.830062 0.089639
v 5.020545 12.830062 -0.089639
v -0.089639 12.830062 5.020545
v 0.089638 12.830062 5.020545
v -0.000001 12.892750 4.858579
v -5.020545 12.830062 -0.089639
v -5.020545 12.830062 0.089639
v -4.858579 12.892750 -0.000000
v 0.081565 9.966239 9.837118
v 0.089638 10.110744 9.800178
v -0.089640 10.110744 9.800178
v -0.081567 9.966239 9.837118
v -9.800178 10.110744 -0.089639
v -9.837118 9.966239 -0.081566
v -9.837118 9.966239 0.081566
v -9.800178 10.110744 0.089639
vn 0.4433 0.7791 0.4433
vn 0.5785 -0.5750 0.5785
vn 0.0000 1.0000 -0.0000
vn 0.5785 -0.5750 -0.5785
vn -0.4433 0.7791 0.4433
vn -0.5785 -0.5750 0.5785
vn -0.4433 0.7791 -0.4433
vn -0.5785 -0.5750 -0.5785
vn 0.9688 0.2477 0.0000
vn 0.0000 0.2477 -0.9688
vn -0.0000 -1.0000 0.0000
vn 0.0000 0.9326 -0.3609
vn 0.3610 0.9326 0.0000
vn 0.0000 0.9326 0.3610
vn -0.3609 0.9326 0.0000
vn 0.0000 0.2477 0.9688
vn -0.9688 0.2477 0.0000
vn 0.7002 0.1399 -0.7002
vn 0.7002 0.1399 0.7002
vn -0.4945 0.8692 0.0000
vn 0.0000 0.8692 0.4945
vn 0.2350 0.9432 -0.2350
vn 0.0000 0.8692 -0.4945
vn -0.7002 0.1399 0.7002
vn 0.4945 0.8692 0.0000
vn 0.2350 0.9432 0.2350
vn -0.7002 0.1399 -0.7002
vn 0.0000 -0.7049 -0.7093
vn -0.2350 0.9432 0.2350
vn -0.2350 0.9432 -0.2350
vn 0.7093 -0.7049 0.0000
vn 0.0000 -0.7049 0.7093
vn -0.7093 -0.7049 0.0000
vn 0.4433 0.7791 -0.4433
usemtl None
s off
f 3//1 17//1 20//1 26//1
f 11//2 4//2 25//2
f 16//3 13//3 24//3 21//3
f 10//4 5//4 1//4
f 27//5 19//5 23//5 32//5
f 12//6 28//6 31//6
f 29//7 22//7 15//7 7//7
f 9//8 30//8 6//8
f 1//9 2//9 3//9 4//9
f 5//10 6//10 7//10 8//10
f 9//11 10//11 11//11 12//11
f 13//12 14//12 15//12
f 16//13 17//13 18//13
f 19//14 20//14 21//14
f 22//15 23//15 24//15
f 25//16 26//16 27//16 28//16
f 29//17 30//17 31//17 32//17
f 8//18 2//18 1//18 5//18
f 3//19 26//19 25//19 4//19
f 22//20 29//20 32//20 23//20
f 19//21 27//21 26//21 20//21
f 18//22 14//22 13//22 16//22
f 7//23 15//23 14//23 8//23
f 27//24 32//24 31//24 28//24
f 17//25 3//25 2//25 18//25
f 20//26 17//26 16//26 21//26
f 29//27 7//27 6//27 30//27
f 9//28 6//28 5//28 10//28
f 23//29 19//29 21//29 24//29
f 15//30 22//30 24//30 13//30
f 4//31 11//31 10//31 1//31
f 28//32 12//32 11//32 25//32
f 30//33 9//33 12//33 31//33
f 8//34 14//34 18//34 2//34
