# Blender v2.78 (sub 0) OBJ File: '5-old-single-cut.blend'
# www.blender.org
mtllib 5-old-single-cut.mtl
o gem_Cylinder
v -6.667995 14.479575 -2.166564
v -8.701548 12.249998 -3.677957
v -9.201548 12.249998 -2.139115
v -8.701548 11.249998 -3.677957
v 0.000000 -0.113933 -0.000000
v -9.201548 11.249998 -2.139115
v -4.877853 12.249998 8.090170
v -4.121049 14.479575 5.672136
v -6.186870 12.249998 7.139113
v -4.877853 11.249998 8.090170
v -6.186870 11.249998 7.139113
v 6.186869 12.249998 7.139114
v 4.121047 14.479575 5.672137
v 4.877852 12.249998 8.090171
v 4.877852 11.249998 8.090171
v 6.186869 11.249998 7.139114
v 6.667996 14.479575 -2.166563
v 9.201549 12.249998 -2.139113
v 8.701549 12.249998 -3.677955
v 8.701549 11.249998 -3.677955
v 9.201549 11.249998 -2.139113
v -0.000000 14.479575 -7.011146
v 0.809017 12.249998 -9.412214
v -0.809017 12.249998 -9.412215
v -0.809017 11.249998 -9.412215
v 0.809017 11.249998 -9.412214
vn -0.9511 -0.0000 0.3090
vn -0.0000 0.0000 1.0000
vn 0.5878 0.0000 -0.8090
vn 0.9511 0.0000 0.3090
vn 0.0000 1.0000 0.0000
vn -0.6471 0.7328 -0.2103
vn -0.7324 -0.6379 -0.2380
vn -0.4000 0.7328 0.5505
vn -0.4527 -0.6379 0.6231
vn 0.4000 0.7328 0.5505
vn 0.4527 -0.6379 0.6231
vn 0.6471 0.7328 -0.2103
vn 0.7324 -0.6379 -0.2380
vn 0.0000 0.7328 -0.6805
vn 0.0000 -0.6379 -0.7701
vn -0.3984 0.7352 -0.5484
vn -0.4788 -0.5800 -0.6591
vn -0.0000 -0.5800 0.8146
vn -0.7748 -0.5800 0.2517
vn 0.6447 0.7352 0.2095
vn 0.7748 -0.5800 0.2517
vn -0.9511 -0.0000 -0.3090
vn -0.5878 0.0000 0.8090
vn 0.9511 -0.0000 -0.3090
vn 0.0000 -0.0000 -1.0000
vn -0.6447 0.7352 0.2095
vn 0.3984 0.7352 -0.5484
vn -0.0000 0.7352 0.6779
vn 0.4788 -0.5800 -0.6591
vn 0.5878 0.0000 0.8090
vn -0.5878 0.0000 -0.8090
usemtl None
s off
f 11//1 9//1 3//1 6//1
f 15//2 14//2 7//2 10//2
f 26//3 23//3 19//3 20//3
f 21//4 18//4 12//4 16//4
f 1//5 8//5 13//5 17//5 22//5
f 1//6 2//6 3//6
f 4//7 5//7 6//7
f 7//8 8//8 9//8
f 10//9 11//9 5//9
f 12//10 13//10 14//10
f 15//11 5//11 16//11
f 17//12 18//12 19//12
f 5//13 20//13 21//13
f 22//14 23//14 24//14
f 5//15 25//15 26//15
f 24//16 2//16 1//16 22//16
f 4//17 25//17 5//17
f 15//18 10//18 5//18
f 11//19 6//19 5//19
f 12//20 18//20 17//20 13//20
f 21//21 16//21 5//21
f 2//22 4//22 6//22 3//22
f 9//23 11//23 10//23 7//23
f 18//24 21//24 20//24 19//24
f 25//25 24//25 23//25 26//25
f 3//26 9//26 8//26 1//26
f 19//27 23//27 22//27 17//27
f 7//28 14//28 13//28 8//28
f 26//29 20//29 5//29
f 14//30 15//30 16//30 12//30
f 4//31 2//31 24//31 25//31
