# Blender v2.78 (sub 0) OBJ File: '5-table-cut.blend'
# www.blender.org
mtllib 5-table-cut.mtl
o gem_Cylinder
v 9.348564 9.954546 -3.130898
v 9.320168 10.090193 -3.127287
v 9.378348 10.090193 -2.948229
v 9.403444 9.954546 -2.961997
v 0.088797 9.954546 -9.858514
v -0.088796 9.954546 -9.858514
v -0.094136 10.090193 -9.830392
v 0.094136 10.090193 -9.830392
v -0.088796 0.057169 -0.122218
v 0.088796 0.057169 -0.122218
v 0.143676 0.057169 0.046683
v -0.000000 0.057169 0.151069
v -0.143676 0.057169 0.046683
v -0.000000 12.868438 -4.876393
v 0.094136 12.811036 -5.032821
v -0.094136 12.811036 -5.032821
v 4.757408 12.811036 -1.644756
v 4.637726 12.868438 -1.506888
v 4.815587 12.811036 -1.465698
v 2.882060 12.811036 4.126970
v 3.034375 12.811036 4.016306
v 2.866272 12.868438 3.945086
v -3.034376 12.811036 4.016305
v -2.882061 12.811036 4.126969
v -2.866272 12.868438 3.945085
v -4.757407 12.811036 -1.644757
v -4.815587 12.811036 -1.465699
v -4.637725 12.868438 -1.506889
v 5.866526 9.954546 7.923512
v 5.854316 10.090193 7.897623
v 5.702001 10.090193 8.008286
v 5.722850 9.954546 8.027900
v -5.854318 10.090193 7.897623
v -5.866528 9.954546 7.923512
v -5.722852 9.954546 8.027898
v -5.702002 10.090193 8.008286
v -9.320168 10.090193 -3.127288
v -9.348564 9.954546 -3.130900
v -9.403443 9.954546 -2.961999
v -9.378346 10.090193 -2.948231
vn 0.5459 0.8188 0.1774
vn 0.7442 -0.6227 0.2418
vn -0.7442 -0.6227 0.2418
vn 0.4599 -0.6227 -0.6330
vn 0.0000 1.0000 0.0000
vn -0.5459 0.8188 0.1774
vn -0.0000 0.8188 0.5740
vn -0.0000 -0.6227 0.7825
vn -0.3374 0.8188 -0.4644
vn -0.4599 -0.6227 -0.6330
vn 0.9313 0.2030 -0.3026
vn 0.0000 0.2030 -0.9792
vn 0.0000 -1.0000 -0.0000
vn 0.0000 0.9388 -0.3445
vn 0.3276 0.9388 -0.1064
vn 0.2025 0.9388 0.2787
vn -0.2025 0.9388 0.2787
vn -0.3276 0.9388 -0.1064
vn 0.5755 0.2030 0.7922
vn -0.5755 0.2030 0.7922
vn -0.9313 0.2030 -0.3026
vn 0.5817 0.1431 -0.8007
vn 0.9413 0.1431 0.3058
vn -0.4692 0.8698 -0.1524
vn -0.2900 0.8699 0.3991
vn 0.1769 0.9536 -0.2435
vn 0.0000 0.8698 -0.4933
vn -0.0000 0.1431 0.9897
vn 0.2900 0.8699 0.3991
vn 0.2862 0.9536 0.0930
vn -0.9413 0.1431 0.3058
vn 0.4692 0.8699 -0.1524
vn -0.0000 0.9536 0.3010
vn -0.5817 0.1431 -0.8007
vn 0.0000 -0.7013 -0.7129
vn -0.2862 0.9536 0.0930
vn -0.1769 0.9536 -0.2435
vn 0.6780 -0.7013 -0.2203
vn 0.4190 -0.7013 0.5767
vn -0.4190 -0.7013 0.5767
vn -0.6780 -0.7013 -0.2203
vn 0.3374 0.8188 -0.4644
usemtl None
s off
f 3//1 19//1 21//1 30//1
f 11//2 4//2 29//2
f 13//3 34//3 39//3
f 10//4 5//4 1//4
f 18//5 14//5 28//5 25//5 22//5
f 33//6 23//6 27//6 40//6
f 31//7 20//7 24//7 36//7
f 12//8 32//8 35//8
f 37//9 26//9 16//9 7//9
f 9//10 38//10 6//10
f 1//11 2//11 3//11 4//11
f 5//12 6//12 7//12 8//12
f 9//13 10//13 11//13 12//13 13//13
f 14//14 15//14 16//14
f 17//15 18//15 19//15
f 20//16 21//16 22//16
f 23//17 24//17 25//17
f 26//18 27//18 28//18
f 29//19 30//19 31//19 32//19
f 33//20 34//20 35//20 36//20
f 37//21 38//21 39//21 40//21
f 8//22 2//22 1//22 5//22
f 3//23 30//23 29//23 4//23
f 26//24 37//24 40//24 27//24
f 23//25 33//25 36//25 24//25
f 17//26 15//26 14//26 18//26
f 7//27 16//27 15//27 8//27
f 31//28 36//28 35//28 32//28
f 20//29 31//29 30//29 21//29
f 21//30 19//30 18//30 22//30
f 33//31 40//31 39//31 34//31
f 19//32 3//32 2//32 17//32
f 24//33 20//33 22//33 25//33
f 37//34 7//34 6//34 38//34
f 9//35 6//35 5//35 10//35
f 27//36 23//36 25//36 28//36
f 16//37 26//37 28//37 14//37
f 4//38 11//38 10//38 1//38
f 32//39 12//39 11//39 29//39
f 34//40 13//40 12//40 35//40
f 38//41 9//41 13//41 39//41
f 8//42 15//42 17//42 2//42
