# Blender v2.78 (sub 0) OBJ File: '6-old-single-cut.blend'
# www.blender.org
mtllib 6-old-single-cut.mtl
o gem_Cylinder
v -0.000000 12.775805 0.000000
v -0.000000 -0.083039 0.000000
v -0.866025 10.080840 -9.500000
v 0.866025 10.080840 -9.500000
v -0.000000 12.721692 -6.633975
v 0.866025 11.080840 -9.500000
v -0.866025 11.080840 -9.500000
v 7.794229 10.080840 -5.500000
v 8.660254 10.080840 -4.000000
v 5.745191 12.721692 -3.316987
v 8.660254 11.080840 -4.000000
v 7.794229 11.080840 -5.500000
v 8.660254 10.080840 4.000000
v 7.794228 10.080840 5.500000
v 5.745190 12.721692 3.316988
v 7.794228 11.080840 5.500000
v 8.660254 11.080840 4.000000
v 0.866025 10.080840 9.500000
v -0.866026 10.080840 9.500000
v -0.000001 12.721692 6.633975
v -0.866026 11.080840 9.500000
v 0.866025 11.080840 9.500000
v -7.794229 10.080840 5.499999
v -8.660254 10.080840 3.999999
v -5.745191 12.721692 3.316987
v -8.660254 11.080840 3.999999
v -7.794229 11.080840 5.499999
v -8.660254 10.080840 -3.999999
v -7.794229 10.080840 -5.499999
v -5.745191 12.721692 -3.316986
v -7.794229 11.080840 -5.499999
v -8.660254 11.080840 -3.999999
vn -0.5000 0.0000 -0.8660
vn 0.5000 0.0000 0.8660
vn -0.5000 0.0000 0.8660
vn -1.0000 0.0000 0.0000
vn 1.0000 0.0000 0.0000
vn 0.5000 0.0000 -0.8660
vn 0.0000 -0.6828 -0.7306
vn 0.0000 0.8678 -0.4969
vn 0.6327 -0.6828 -0.3653
vn 0.4303 0.8678 -0.2484
vn 0.6327 -0.6828 0.3653
vn 0.4303 0.8678 0.2484
vn 0.0000 -0.6828 0.7306
vn 0.0000 0.8678 0.4969
vn -0.6327 -0.6828 0.3653
vn -0.4303 0.8678 0.2484
vn -0.6327 -0.6828 -0.3653
vn -0.4303 0.8678 -0.2484
vn 0.3806 -0.6486 -0.6592
vn 0.2453 0.8714 -0.4248
vn 0.0000 0.0000 -1.0000
vn 0.8660 0.0000 -0.5000
vn 0.7612 -0.6486 0.0000
vn 0.4905 0.8714 0.0000
vn 0.8660 0.0000 0.5000
vn 0.3806 -0.6486 0.6592
vn 0.2453 0.8714 0.4248
vn 0.0000 0.0000 1.0000
vn -0.3806 -0.6486 0.6592
vn -0.2453 0.8714 0.4248
vn -0.8660 0.0000 0.5000
vn -0.7612 -0.6486 0.0000
vn -0.4905 0.8714 0.0000
vn -0.8660 0.0000 -0.5000
vn -0.3806 -0.6486 -0.6592
vn -0.2453 0.8714 -0.4248
vn 0.0047 1.0000 0.0082
vn -0.0047 1.0000 -0.0082
vn 0.0094 1.0000 -0.0000
vn -0.0094 1.0000 0.0000
vn 0.0047 1.0000 -0.0082
vn -0.0047 1.0000 0.0082
usemtl None
s off
f 29//1 31//1 7//1 3//1
f 14//2 16//2 22//2 18//2
f 19//3 21//3 27//3 23//3
f 24//4 26//4 32//4 28//4
f 9//5 11//5 17//5 13//5
f 4//6 6//6 12//6 8//6
f 2//7 3//7 4//7
f 5//8 6//8 7//8
f 2//9 8//9 9//9
f 10//10 11//10 12//10
f 2//11 13//11 14//11
f 15//12 16//12 17//12
f 2//13 18//13 19//13
f 20//14 21//14 22//14
f 2//15 23//15 24//15
f 25//16 26//16 27//16
f 2//17 28//17 29//17
f 30//18 31//18 32//18
f 4//19 8//19 2//19
f 12//20 6//20 5//20 10//20
f 3//21 7//21 6//21 4//21
f 11//22 9//22 8//22 12//22
f 9//23 13//23 2//23
f 17//24 11//24 10//24 15//24
f 16//25 14//25 13//25 17//25
f 14//26 18//26 2//26
f 22//27 16//27 15//27 20//27
f 21//28 19//28 18//28 22//28
f 19//29 23//29 2//29
f 27//30 21//30 20//30 25//30
f 26//31 24//31 23//31 27//31
f 24//32 28//32 2//32
f 32//33 26//33 25//33 30//33
f 31//34 29//34 28//34 32//34
f 29//35 3//35 2//35
f 7//36 31//36 30//36 5//36
f 20//37 15//37 1//37
f 5//38 30//38 1//38
f 15//39 10//39 1//39
f 30//40 25//40 1//40
f 10//41 5//41 1//41
f 25//42 20//42 1//42
