# Blender v2.78 (sub 0) OBJ File: '6-point-cut.blend'
# www.blender.org
mtllib 6-point-cut.mtl
o gem_Cylinder
v 8.502208 0.075593 -5.015655
v 8.594790 0.075593 -4.855299
v 8.594790 -0.075593 -4.855299
v 8.502208 -0.075593 -5.015656
v 0.092582 -0.075593 -9.870955
v -0.092582 -0.075593 -9.870955
v -0.092582 0.075593 -9.870955
v 0.092582 0.075593 -9.870955
v -0.092582 -9.786191 -0.160357
v 0.092582 -9.786191 -0.160357
v 0.185164 -9.786191 0.000000
v 0.092582 -9.786191 0.160357
v -0.092582 -9.786191 0.160357
v -0.185164 -9.786191 -0.000000
v 0.092582 9.786191 -0.160357
v -0.092582 9.786191 -0.160357
v -0.185164 9.786191 0.000000
v -0.092582 9.786191 0.160357
v 0.092582 9.786191 0.160357
v 0.185164 9.786191 0.000000
v 8.594789 0.075593 4.855299
v 8.502207 0.075593 5.015656
v 8.502207 -0.075593 5.015656
v 8.594789 -0.075593 4.855299
v 0.092581 0.075593 9.870955
v -0.092583 0.075593 9.870955
v -0.092583 -0.075593 9.870955
v 0.092581 -0.075593 9.870955
v -8.502208 0.075593 5.015655
v -8.594790 0.075593 4.855298
v -8.594790 -0.075593 4.855298
v -8.502208 -0.075593 5.015655
v -8.502208 -0.075593 -5.015655
v -8.594790 -0.075593 -4.855298
v -8.594790 0.075593 -4.855298
v -8.502208 0.075593 -5.015655
vn 0.3780 -0.6547 -0.6547
vn 0.7559 -0.6547 0.0000
vn -0.7559 0.6547 0.0000
vn -0.3780 0.6547 -0.6547
vn 0.3780 -0.6547 0.6547
vn -0.3780 -0.6547 0.6547
vn 0.3780 0.6547 0.6547
vn -0.7559 -0.6547 0.0000
vn -0.3780 0.6547 0.6547
vn 0.7559 0.6547 0.0000
vn -0.3780 -0.6547 -0.6547
vn 0.8660 0.0000 -0.5000
vn 0.0000 0.0000 -1.0000
vn 0.0000 -1.0000 -0.0000
vn 0.0000 1.0000 -0.0000
vn 0.8660 0.0000 0.5000
vn 0.0000 0.0000 1.0000
vn -0.8660 0.0000 0.5000
vn -0.8660 0.0000 -0.5000
vn 0.5000 0.0000 -0.8660
vn 1.0000 0.0000 0.0000
vn -0.0000 0.7071 -0.7071
vn 0.5000 -0.0000 0.8660
vn -0.5000 0.0000 0.8660
vn -0.6124 -0.7071 -0.3536
vn -1.0000 0.0000 0.0000
vn -0.6124 -0.7071 0.3536
vn -0.0000 -0.7071 0.7071
vn -0.5000 -0.0000 -0.8660
vn 0.0000 -0.7071 -0.7071
vn 0.6124 -0.7071 0.3536
vn 0.6124 -0.7071 -0.3536
vn -0.6124 0.7071 -0.3536
vn -0.6124 0.7071 0.3536
vn 0.0000 0.7071 0.7071
vn 0.6124 0.7071 0.3536
vn 0.6124 0.7071 -0.3536
vn 0.3780 0.6547 -0.6547
usemtl None
s off
f 10//1 5//1 4//1
f 11//2 3//2 24//2
f 30//3 17//3 35//3
f 36//4 16//4 7//4
f 12//5 23//5 28//5
f 13//6 27//6 32//6
f 22//7 19//7 25//7
f 14//8 31//8 34//8
f 26//9 18//9 29//9
f 2//10 20//10 21//10
f 9//11 33//11 6//11
f 1//12 2//12 3//12 4//12
f 5//13 6//13 7//13 8//13
f 9//14 10//14 11//14 12//14 13//14 14//14
f 15//15 16//15 17//15 18//15 19//15 20//15
f 21//16 22//16 23//16 24//16
f 25//17 26//17 27//17 28//17
f 29//18 30//18 31//18 32//18
f 33//19 34//19 35//19 36//19
f 8//20 1//20 4//20 5//20
f 2//21 21//21 24//21 3//21
f 7//22 16//22 15//22 8//22
f 22//23 25//23 28//23 23//23
f 26//24 29//24 32//24 27//24
f 33//25 9//25 14//25 34//25
f 30//26 35//26 34//26 31//26
f 31//27 14//27 13//27 32//27
f 27//28 13//28 12//28 28//28
f 36//29 7//29 6//29 33//29
f 9//30 6//30 5//30 10//30
f 23//31 12//31 11//31 24//31
f 3//32 11//32 10//32 4//32
f 16//33 36//33 35//33 17//33
f 17//34 30//34 29//34 18//34
f 18//35 26//35 25//35 19//35
f 19//36 22//36 21//36 20//36
f 20//37 2//37 1//37 15//37
f 8//38 15//38 1//38
