# Blender v2.78 (sub 0) OBJ File: '6-table-cut.blend'
# www.blender.org
mtllib 6-table-cut.mtl
o gem_Cylinder
v 0.095440 0.056089 -0.199076
v 0.186628 0.056089 -0.041133
v 0.095440 0.056090 0.116811
v -0.086939 0.056089 0.116812
v -0.178128 0.056089 -0.041133
v -0.086939 0.056090 -0.199076
v 0.099153 16.026699 -4.604133
v -0.090652 16.026699 -4.604133
v 0.004251 16.089741 -4.453819
v 0.095440 12.159237 -9.922538
v -0.086938 12.159237 -9.922540
v -0.090651 12.304365 -9.896707
v 0.099153 12.304365 -9.896707
v 8.516205 12.159237 -5.060807
v 8.491977 12.304365 -5.051107
v 8.586880 12.304365 -4.886732
v 8.607394 12.159237 -4.902864
v 8.607393 12.159237 4.820598
v 8.586879 12.304365 4.804466
v 8.491976 12.304365 4.968842
v 8.516204 12.159237 4.978542
v 0.095439 12.159237 9.840273
v 0.099152 12.304365 9.814441
v -0.090652 12.304365 9.814441
v -0.086939 12.159237 9.840272
v -8.507703 12.159237 4.978541
v -8.483475 12.304365 4.968841
v -8.578377 12.304365 4.804465
v -8.598891 12.159237 4.820597
v -8.598891 12.159237 -4.902863
v -8.578377 12.304365 -4.886731
v -8.483475 12.304365 -5.051106
v -8.507702 12.159237 -5.060806
v 3.908474 16.026699 -2.404820
v 3.825750 16.089741 -2.247476
v 4.003376 16.026699 -2.240445
v 4.003375 16.026699 2.158180
v 3.825749 16.089741 2.165211
v 3.908473 16.026699 2.322555
v 0.099152 16.026699 4.521866
v 0.004250 16.089741 4.371553
v -0.090652 16.026699 4.521866
v -3.899972 16.026699 2.322555
v -3.817248 16.089741 2.165210
v -3.994874 16.026699 2.158180
v -3.994874 16.026699 -2.240445
v -3.817248 16.089741 -2.247476
v -3.899972 16.026699 -2.404820
vn -0.6304 0.7763 0.0000
vn 0.3152 0.7763 0.5460
vn -0.3152 0.7763 0.5460
vn 0.0000 1.0000 -0.0000
vn 0.6304 0.7763 0.0000
vn -0.8209 -0.5711 0.0000
vn -0.4104 -0.5711 0.7109
vn 0.4104 -0.5711 0.7109
vn 0.8209 -0.5711 0.0000
vn 0.3152 0.7763 -0.5460
vn -0.4104 -0.5711 -0.7109
vn -0.3152 0.7763 -0.5460
vn 0.0000 -1.0000 0.0000
vn 0.0000 0.9222 -0.3868
vn 0.0000 0.1752 -0.9845
vn 0.8526 0.1752 -0.4923
vn 0.8526 0.1752 0.4923
vn 0.0000 0.1752 0.9845
vn -0.8526 0.1752 0.4923
vn -0.8526 0.1752 -0.4923
vn 0.3349 0.9222 -0.1934
vn 0.3349 0.9222 0.1934
vn 0.0000 0.9222 0.3868
vn -0.3349 0.9222 0.1934
vn -0.3349 0.9222 -0.1934
vn 0.1672 0.9424 -0.2897
vn 0.0000 -0.6263 -0.7796
vn -0.6751 -0.6263 -0.3898
vn -0.6751 -0.6263 0.3898
vn 0.0000 -0.6263 0.7796
vn 0.6751 -0.6263 0.3898
vn 0.6751 -0.6263 -0.3898
vn -0.4951 0.1400 -0.8575
vn -0.9902 0.1400 0.0000
vn -0.4951 0.1400 0.8575
vn 0.4951 0.1400 0.8575
vn 0.9902 0.1400 0.0000
vn 0.4951 0.1400 -0.8575
vn 0.3345 0.9424 -0.0000
vn 0.1672 0.9424 0.2897
vn -0.1672 0.9424 0.2897
vn -0.3345 0.9424 0.0000
vn -0.1672 0.9424 -0.2897
vn 0.0000 0.8180 -0.5753
vn 0.4982 0.8180 -0.2876
vn 0.4982 0.8180 0.2876
vn 0.0000 0.8180 0.5753
vn -0.4982 0.8180 0.2876
vn -0.4982 0.8180 -0.2876
vn 0.4104 -0.5711 -0.7109
usemtl None
s off
f 31//1 28//1 45//1 46//1
f 23//2 20//2 39//2 40//2
f 27//3 24//3 42//3 43//3
f 9//4 47//4 44//4 41//4 38//4 35//4
f 19//5 16//5 36//5 37//5
f 5//6 29//6 30//6
f 4//7 25//7 26//7
f 3//8 21//8 22//8
f 2//9 17//9 18//9
f 15//10 13//10 7//10 34//10
f 6//11 33//11 11//11
f 12//12 32//12 48//12 8//12
f 1//13 2//13 3//13 4//13 5//13 6//13
f 7//14 8//14 9//14
f 10//15 11//15 12//15 13//15
f 14//16 15//16 16//16 17//16
f 18//17 19//17 20//17 21//17
f 22//18 23//18 24//18 25//18
f 26//19 27//19 28//19 29//19
f 30//20 31//20 32//20 33//20
f 34//21 35//21 36//21
f 37//22 38//22 39//22
f 40//23 41//23 42//23
f 43//24 44//24 45//24
f 46//25 47//25 48//25
f 9//26 35//26 34//26 7//26
f 6//27 11//27 10//27 1//27
f 33//28 6//28 5//28 30//28
f 29//29 5//29 4//29 26//29
f 25//30 4//30 3//30 22//30
f 21//31 3//31 2//31 18//31
f 17//32 2//32 1//32 14//32
f 32//33 12//33 11//33 33//33
f 28//34 31//34 30//34 29//34
f 24//35 27//35 26//35 25//35
f 20//36 23//36 22//36 21//36
f 16//37 19//37 18//37 17//37
f 13//38 15//38 14//38 10//38
f 35//39 38//39 37//39 36//39
f 38//40 41//40 40//40 39//40
f 41//41 44//41 43//41 42//41
f 44//42 47//42 46//42 45//42
f 47//43 9//43 8//43 48//43
f 12//44 8//44 7//44 13//44
f 36//45 16//45 15//45 34//45
f 19//46 37//46 39//46 20//46
f 42//47 24//47 23//47 40//47
f 27//48 43//48 45//48 28//48
f 48//49 32//49 31//49 46//49
f 1//50 10//50 14//50
