# Blender v2.78 (sub 0) OBJ File: 'crown.blend'
# www.blender.org
mtllib crown.mtl
o Cylinder
v -0.130943 0.089613 -0.063772
v 0.213215 0.089613 -0.175596
v 0.000514 0.089613 -0.468354
v -0.212188 0.089613 -0.175596
v 0.131970 0.089613 -0.063772
v 0.000514 0.089613 -0.021059
v 0.131970 0.089613 -0.425642
v 0.213215 0.089613 -0.313818
v -0.212188 0.089613 -0.313818
v -0.130943 0.089613 -0.425642
v -0.133686 0.121887 -0.059997
v -0.231885 0.248813 -0.169196
v -0.216626 0.121887 -0.315260
v -0.143117 0.248813 -0.442397
v 0.000514 0.121887 -0.473021
v 0.144144 0.248813 -0.442397
v 0.217653 0.121887 -0.315260
v 0.232912 0.248813 -0.169196
v 0.134713 0.121887 -0.059997
v 0.000514 0.248813 -0.000349
v -0.143117 0.000000 -0.047017
v -0.231885 0.000000 -0.169196
v -0.231885 0.000000 -0.320218
v -0.143117 0.000000 -0.442397
v 0.000514 0.000000 0.003350
v 0.146318 0.000000 -0.044024
v 0.236430 0.000000 -0.168053
v 0.236430 0.000000 -0.321361
v 0.146318 0.000000 -0.445389
v 0.000514 0.000000 -0.492764
v -0.145291 0.000000 -0.445389
v -0.235403 0.000000 -0.321361
v -0.235403 0.000000 -0.168053
v -0.145291 0.000000 -0.044024
v 0.000514 0.248813 0.003350
v 0.154398 0.121887 -0.032904
v 0.236430 0.248813 -0.168053
v 0.249503 0.121887 -0.325608
v 0.146318 0.248813 -0.445389
v 0.000514 0.121887 -0.506510
v -0.145291 0.248813 -0.445389
v -0.248476 0.121887 -0.325609
v -0.235403 0.248813 -0.168053
v -0.153370 0.121887 -0.032904
v -0.155620 0.089613 -0.459606
v -0.252116 0.089613 -0.326791
v 0.253143 0.089613 -0.326791
v 0.156647 0.089613 -0.459606
v 0.000514 0.089613 0.017493
v 0.156647 0.089613 -0.029808
v -0.252116 0.089613 -0.162623
v 0.000514 0.089613 -0.510337
v 0.253143 0.089613 -0.162623
v -0.155620 0.089613 -0.029808
v 0.000514 0.000000 -0.489065
v 0.144144 0.000000 -0.442397
v 0.232912 0.000000 -0.320218
v 0.232912 0.000000 -0.169196
v 0.144144 0.000000 -0.047017
v 0.000514 0.000000 -0.000349
v -0.072573 0.067076 -0.000507
v -0.061717 0.055930 0.001713
v 0.023327 0.142730 0.024110
v 0.000764 0.165289 0.022488
v -0.021844 0.142860 0.025018
v 0.000719 0.120301 0.026640
v 0.024978 0.117351 0.015562
v 0.025027 0.166113 0.011062
v -0.023933 0.166253 0.012046
v -0.023982 0.117491 0.016547
v -0.005905 0.103194 0.017498
v 0.006872 0.103157 0.017241
v 0.039298 0.135329 0.013612
v 0.039311 0.148054 0.012437
v 0.034859 0.140516 0.000240
v 0.000295 0.175074 -0.002245
v -0.034338 0.140714 0.001631
v 0.000225 0.106156 0.004116
v 0.006949 0.180410 0.010111
v -0.005827 0.180447 0.010368
v -0.038254 0.148275 0.013997
v -0.038267 0.135551 0.015171
v 0.082425 0.056163 -0.004162
v 0.071812 0.066901 0.000207
v 0.061039 0.055578 0.001867
v 0.071652 0.044840 -0.002502
v 0.081786 0.044865 -0.010959
v 0.081960 0.068777 -0.008024
v 0.058781 0.068143 -0.001489
v 0.058607 0.044231 -0.004424
v 0.067121 0.037480 -0.007697
v 0.073170 0.037646 -0.009402
v 0.088622 0.053886 -0.011784
v 0.088668 0.060126 -0.011018
v 0.084932 0.057710 -0.016914
v 0.068674 0.074159 -0.010221
v 0.052171 0.056814 -0.007678
v 0.068428 0.040364 -0.014370
v 0.073446 0.075528 -0.004752
v 0.067397 0.075362 -0.003046
v 0.051945 0.059122 -0.000665
v 0.051900 0.052882 -0.001431
v -0.082978 0.056093 -0.004766
v -0.072122 0.044947 -0.002546
v -0.059034 0.044428 -0.004183
v -0.059523 0.068413 -0.001974
v -0.082568 0.068590 -0.008996
v -0.082079 0.044605 -0.011206
v -0.073420 0.037533 -0.009256
v -0.067407 0.037487 -0.007424
v -0.052483 0.053240 -0.001315
v -0.052611 0.059499 -0.000739
v -0.052666 0.056980 -0.007682
v -0.069297 0.074054 -0.011083
v -0.085236 0.057230 -0.017607
v -0.068606 0.040155 -0.014206
v -0.068182 0.075485 -0.003923
v -0.074196 0.075532 -0.005755
v -0.089119 0.059779 -0.011864
v -0.088992 0.053520 -0.012440
vn 0.0000 -1.0000 0.0000
vn -0.8042 0.1251 -0.5811
vn -0.7902 -0.2147 0.5741
vn 0.7902 -0.2147 -0.5741
vn -0.7902 -0.2147 -0.5741
vn 0.7902 -0.2147 0.5741
vn 0.9921 0.1251 -0.0026
vn -0.3041 0.1251 -0.9444
vn -0.3018 -0.2147 0.9289
vn -0.9767 -0.2147 0.0000
vn -0.3091 0.1251 0.9428
vn 0.3018 -0.2147 -0.9289
vn 0.1645 0.7573 -0.6320
vn 0.3018 -0.2147 0.9289
vn -0.9921 0.1251 -0.0026
vn -0.8011 0.1251 0.5853
vn 0.8042 0.1251 -0.5811
vn 0.9767 -0.2147 0.0000
vn 0.3041 0.1251 -0.9444
vn -0.3018 -0.2147 -0.9289
vn 0.3091 0.1251 0.9428
vn 0.8011 0.1251 0.5853
vn -0.2384 0.7573 0.6080
vn -0.8052 0.1057 -0.5835
vn 0.8052 0.1057 -0.5835
vn 0.2931 0.0891 0.9519
vn -0.9944 0.1057 -0.0013
vn 0.3061 0.1057 -0.9461
vn 0.8037 0.1057 0.5855
vn -0.8037 0.1057 0.5855
vn -0.3061 0.1057 -0.9461
vn 0.9944 0.1057 -0.0013
vn -0.2931 0.0891 0.9519
vn -0.2950 -0.1659 0.9410
vn 0.9830 -0.1833 -0.0000
vn -0.3038 -0.1833 -0.9349
vn -0.7953 -0.1833 0.5778
vn 0.7953 -0.1833 0.5778
vn 0.3038 -0.1833 -0.9349
vn -0.9830 -0.1833 0.0000
vn 0.2950 -0.1659 0.9410
vn 0.7953 -0.1833 -0.5778
vn -0.7953 -0.1833 -0.5778
vn 0.5502 0.7573 -0.3517
vn 0.5046 0.7573 0.4146
vn -0.5046 0.7573 0.4146
vn -0.5502 0.7573 -0.3517
vn -0.1645 0.7573 -0.6320
vn 0.2384 0.7573 0.6080
vn -0.6519 0.7573 -0.0388
vn 0.6519 0.7573 -0.0388
vn 0.5316 0.6349 -0.5605
vn 0.0203 0.0919 0.9956
vn -0.3207 -0.3469 0.8814
vn 0.6737 -0.5856 -0.4508
vn 0.4440 0.4118 0.7958
vn 0.3716 -0.2745 0.8869
vn -0.3198 0.5030 0.8029
vn -0.4100 -0.2576 0.8750
vn -0.5515 -0.7248 -0.4130
vn 0.0163 -0.4762 0.8792
vn 0.5717 0.0748 0.8170
vn 0.0174 0.6290 0.7772
vn -0.5380 0.0780 0.8393
vn -0.0053 0.9191 -0.3941
vn -0.9574 -0.0256 -0.2875
vn 0.9449 -0.0310 -0.3258
vn -0.0072 -0.9756 -0.2192
vn 0.3539 -0.3488 0.8678
vn 0.3547 0.5010 0.7894
vn 0.4433 -0.2601 0.8578
vn -0.5501 0.6380 -0.5388
vn -0.3372 -0.2725 0.9011
vn 0.3723 0.4315 0.8217
vn -0.3365 0.4335 0.8360
vn -0.4093 0.4142 0.8130
vn -0.6935 0.4957 -0.5227
vn -0.6946 -0.5816 -0.4233
vn 0.5303 -0.7279 -0.4348
vn 0.6748 0.4918 -0.5503
vn -0.5690 -0.6088 -0.5528
vn -0.5679 0.4985 -0.6550
vn 0.5439 0.4953 -0.6774
vn 0.5428 -0.6120 -0.5752
vn 0.3922 0.7517 -0.5302
vn 0.2724 -0.1192 0.9548
vn -0.0991 -0.5324 0.8407
vn 0.5213 -0.4607 -0.7184
vn 0.6416 0.2460 0.7265
vn 0.5742 -0.4456 0.6868
vn -0.0929 0.3147 0.9446
vn -0.1844 -0.4461 0.8758
vn -0.6586 -0.6351 -0.4035
vn 0.2226 -0.6500 0.7266
vn 0.7606 -0.0846 0.6437
vn 0.2306 0.4517 0.8619
vn -0.3073 -0.1138 0.9448
vn -0.0770 0.9810 -0.1782
vn -0.9993 0.0117 -0.0360
vn 0.8315 0.0617 -0.5522
vn -0.0908 -0.9076 -0.4100
vn 0.5501 -0.5147 0.6576
vn 0.5563 0.3324 0.7616
vn 0.6367 -0.4236 0.6443
vn -0.6488 0.7232 -0.2367
vn -0.1079 -0.4643 0.8791
vn 0.5794 0.2580 0.7732
vn -0.1028 0.2394 0.9655
vn -0.1795 0.2236 0.9580
vn -0.7877 0.5772 -0.2153
vn -0.7955 -0.4967 -0.3471
vn 0.3824 -0.6067 -0.6970
vn 0.5291 0.6132 -0.5865
vn -0.7073 -0.4928 -0.5068
vn -0.6993 0.6109 -0.3713
vn 0.3706 0.6401 -0.6730
vn 0.3626 -0.4636 -0.8085
vn 0.6458 0.7231 -0.2451
vn -0.2909 -0.0937 0.9522
vn -0.5581 -0.5010 0.6615
vn 0.8078 -0.4978 -0.3157
vn 0.1573 0.2542 0.9543
vn 0.0946 -0.4366 0.8947
vn -0.5754 0.3487 0.7398
vn -0.6454 -0.4113 0.6436
vn -0.3614 -0.6315 -0.6860
vn -0.2307 -0.6304 0.7412
vn 0.2889 -0.0820 0.9538
vn -0.2532 0.4746 0.8430
vn -0.7728 -0.0738 0.6303
vn 0.0703 0.9760 -0.2060
vn -0.8204 0.0358 -0.5706
vn 0.9996 0.0219 -0.0160
vn 0.1089 -0.9183 -0.3805
vn 0.0873 -0.5059 0.8582
vn 0.0700 0.3438 0.9364
vn 0.1710 -0.4176 0.8924
vn -0.3892 0.7310 -0.5605
vn -0.5836 -0.4314 0.6880
vn 0.0802 0.2693 0.9597
vn -0.5980 0.2745 0.7531
vn -0.6591 0.2604 0.7055
vn -0.5233 0.5894 -0.6154
vn -0.5014 -0.4878 -0.7146
vn 0.6736 -0.6395 -0.3706
vn 0.7858 0.5794 -0.2165
vn -0.3408 -0.4916 -0.8014
vn -0.3634 0.6155 -0.6994
vn 0.7003 0.6073 -0.3752
vn 0.7228 -0.4998 -0.4772
usemtl None
s off
f 33//1 22//1 21//1 34//1
f 2//2 5//2 19//2 18//2
f 56//3 57//3 8//3 7//3
f 21//4 22//4 4//4 1//4
f 58//5 59//5 5//5 2//5
f 27//1 58//1 57//1 28//1
f 23//6 24//6 10//6 9//6
f 4//7 9//7 13//7 12//7
f 5//8 6//8 20//8 19//8
f 55//9 56//9 7//9 3//9
f 57//10 58//10 2//10 8//10
f 3//11 7//11 16//11 15//11
f 60//12 21//12 1//12 6//12
f 43//13 12//13 13//13 42//13
f 26//1 59//1 58//1 27//1
f 24//14 55//14 3//14 10//14
f 8//15 2//15 18//15 17//15
f 7//16 8//16 17//16 16//16
f 1//17 4//17 12//17 11//17
f 22//18 23//18 9//18 4//18
f 6//19 1//19 11//19 20//19
f 59//20 60//20 6//20 5//20
f 10//21 3//21 15//21 14//21
f 34//1 21//1 60//1 25//1
f 9//22 10//22 14//22 13//22
f 42//23 13//23 14//23 41//23
f 46//24 42//24 41//24 45//24
f 48//25 39//25 38//25 47//25
f 50//26 36//26 35//26 49//26
f 51//27 43//27 42//27 46//27
f 52//28 40//28 39//28 48//28
f 53//29 37//29 36//29 50//29
f 54//30 44//30 43//30 51//30
f 45//31 41//31 40//31 52//31
f 47//32 38//32 37//32 53//32
f 49//33 35//33 44//33 54//33
f 25//34 49//34 54//34 34//34
f 28//35 47//35 53//35 27//35
f 31//36 45//36 52//36 30//36
f 34//37 54//37 51//37 33//37
f 27//38 53//38 50//38 26//38
f 30//39 52//39 48//39 29//39
f 33//40 51//40 46//40 32//40
f 26//41 50//41 49//41 25//41
f 29//42 48//42 47//42 28//42
f 32//43 46//43 45//43 31//43
f 36//44 19//44 20//44 35//44
f 28//1 57//1 56//1 29//1
f 44//45 11//45 12//45 43//45
f 37//46 18//46 19//46 36//46
f 29//1 56//1 55//1 30//1
f 35//47 20//47 11//47 44//47
f 38//48 17//48 18//48 37//48
f 30//1 55//1 24//1 31//1
f 39//49 16//49 17//49 38//49
f 31//1 24//1 23//1 32//1
f 40//50 15//50 16//50 39//50
f 32//1 23//1 22//1 33//1
f 25//1 60//1 59//1 26//1
f 41//51 14//51 15//51 40//51
f 68//52 76//52 79//52
f 64//53 65//53 66//53 63//53
f 71//54 66//54 70//54
f 67//55 75//55 73//55
f 68//56 63//56 74//56
f 63//57 66//57 67//57
f 69//58 64//58 80//58
f 65//59 82//59 70//59
f 70//60 78//60 71//60
f 71//61 72//61 66//61
f 73//62 74//62 63//62
f 79//63 80//63 64//63
f 81//64 82//64 65//64
f 79//65 76//65 80//65
f 81//66 77//66 82//66
f 73//67 75//67 74//67
f 78//68 72//68 71//68
f 67//69 66//69 72//69
f 79//70 64//70 68//70
f 73//71 63//71 67//71
f 80//72 76//72 69//72
f 66//73 65//73 70//73
f 64//74 63//74 68//74
f 65//75 64//75 69//75
f 81//76 65//76 69//76
f 69//77 77//77 81//77
f 82//78 77//78 70//78
f 72//79 78//79 67//79
f 74//80 75//80 68//80
f 70//81 77//81 78//81
f 69//82 76//82 77//82
f 68//83 75//83 76//83
f 67//84 78//84 75//84
f 88//85 96//85 99//85
f 84//86 85//86 86//86 83//86
f 91//87 86//87 90//87
f 87//88 95//88 93//88
f 88//89 83//89 94//89
f 83//90 86//90 87//90
f 89//91 84//91 100//91
f 85//92 102//92 90//92
f 90//93 98//93 91//93
f 91//94 92//94 86//94
f 93//95 94//95 83//95
f 99//96 100//96 84//96
f 101//97 102//97 85//97
f 99//98 96//98 100//98
f 101//99 97//99 102//99
f 93//100 95//100 94//100
f 98//101 92//101 91//101
f 87//102 86//102 92//102
f 99//103 84//103 88//103
f 93//104 83//104 87//104
f 100//105 96//105 89//105
f 86//106 85//106 90//106
f 84//107 83//107 88//107
f 85//108 84//108 89//108
f 101//109 85//109 89//109
f 89//110 97//110 101//110
f 102//111 97//111 90//111
f 92//112 98//112 87//112
f 94//113 95//113 88//113
f 90//114 97//114 98//114
f 89//115 96//115 97//115
f 88//116 95//116 96//116
f 87//117 98//117 95//117
f 106//118 114//118 117//118
f 61//119 103//119 104//119 62//119
f 109//120 104//120 108//120
f 105//121 113//121 111//121
f 106//122 62//122 112//122
f 62//123 104//123 105//123
f 107//124 61//124 118//124
f 103//125 120//125 108//125
f 108//126 116//126 109//126
f 109//127 110//127 104//127
f 111//128 112//128 62//128
f 117//129 118//129 61//129
f 119//130 120//130 103//130
f 117//131 114//131 118//131
f 119//132 115//132 120//132
f 111//133 113//133 112//133
f 116//134 110//134 109//134
f 105//135 104//135 110//135
f 117//136 61//136 106//136
f 111//137 62//137 105//137
f 118//138 114//138 107//138
f 104//139 103//139 108//139
f 61//140 62//140 106//140
f 103//141 61//141 107//141
f 119//142 103//142 107//142
f 107//143 115//143 119//143
f 120//144 115//144 108//144
f 110//145 116//145 105//145
f 112//146 113//146 106//146
f 108//147 115//147 116//147
f 107//148 114//148 115//148
f 106//149 113//149 114//149
f 105//150 116//150 113//150
