# Blender v2.78 (sub 0) OBJ File: 'ruin-water.blend'
# www.blender.org
mtllib ruin-water.mtl
o ruin_Cylinder
v 2.101945 1.553763 5.351237
v -0.763733 1.553763 6.550506
v -3.725815 1.553763 4.818856
v 1.194060 1.553763 0.683570
v 2.832325 1.553763 2.861332
v -0.849107 1.553763 3.863630
v -4.511098 1.553763 1.899215
v -0.867766 1.553763 -1.108732
v -0.853940 1.553763 1.907269
v -3.242564 1.553763 -1.684896
v 0.211068 1.553763 -4.886994
v -5.314068 0.500000 -13.379007
v -5.314068 -0.500000 -13.379007
v -3.178764 -1.262224 -9.794298
v -3.178764 1.262224 -9.794298
v 2.986554 -1.262224 -8.981497
v 2.986554 1.262224 -8.981497
v 6.503907 -1.262224 -3.954653
v 6.503907 1.262224 -3.954653
v 5.110532 -1.262224 5.695848
v 5.110532 1.262224 5.695848
v 2.754324 -1.262224 9.909888
v 2.754324 1.262224 9.909888
v -5.268826 -1.262224 9.619601
v -5.268826 1.262224 9.619601
v -7.102517 -1.262224 5.173332
v -7.102517 1.262224 5.173332
v -6.812232 -1.262224 -4.941627
v -6.812232 1.262224 -4.941627
v 4.223429 0.500000 -12.585816
v 4.223429 -0.500000 -12.585816
v 9.090072 0.500000 -6.182366
v 9.090072 -0.500000 -6.182366
v 8.842199 0.500000 5.736196
v 8.842199 -0.500000 5.736196
v 5.561940 0.500000 12.387519
v 5.561940 -0.500000 12.387519
v -7.396195 0.500000 12.387518
v -7.396195 -0.500000 12.387518
v -10.031986 0.500000 5.984069
v -10.031986 -0.500000 5.984069
v -9.883265 0.500000 -5.389174
v -9.883265 -0.500000 -5.389174
v -3.242564 0.989412 -1.684896
v -0.853940 0.989412 1.907269
v 0.211068 0.989412 -4.886994
v -0.867766 0.989412 -1.108732
v -4.511098 0.989412 1.899215
v -0.849107 0.989412 3.863630
v 1.194060 0.989412 0.683570
v 2.832325 0.989412 2.861332
v -3.725815 0.989412 4.818856
v -0.763733 0.989412 6.550506
v 2.101945 0.989412 5.351237
vn 0.0000 1.0000 0.0000
vn -0.5047 0.0000 0.8633
vn -0.9657 0.0000 0.2597
vn 0.7991 0.0000 -0.6012
vn -0.6799 0.0000 -0.7333
vn 0.9616 0.0000 0.2746
vn 0.9596 0.0000 0.2815
vn -0.5129 0.0000 -0.8584
vn 1.0000 0.0000 -0.0046
vn -0.9427 0.0000 -0.3337
vn 0.3861 0.0000 0.9225
vn 0.7962 0.0000 -0.6051
vn -0.0039 -0.9601 0.2795
vn 0.0215 0.9775 -0.2100
vn 0.0215 -0.9775 -0.2100
vn -0.9247 0.0000 0.3806
vn 0.1833 0.9738 -0.1344
vn 0.9998 0.0000 0.0208
vn -0.2263 -0.9696 0.0932
vn 0.2405 0.9705 0.0183
vn 0.2405 -0.9705 0.0183
vn -0.9999 0.0000 -0.0131
vn 0.1898 0.9769 0.0985
vn 0.8969 0.0000 0.4423
vn -0.2465 -0.9691 -0.0050
vn -0.0039 0.9601 0.2795
vn 0.1898 -0.9769 0.0985
vn -0.8681 0.0000 -0.4964
vn -0.2263 0.9696 0.0932
vn -0.1908 -0.9740 -0.1219
vn -0.2465 0.9691 -0.0050
vn 0.1833 -0.9738 -0.1344
vn -0.0000 0.0000 1.0000
vn -0.1908 0.9740 -0.1219
vn 0.0000 -1.0000 0.0000
vn 0.0829 0.0000 -0.9966
usemtl None
s off
f 9//1 6//1 5//1 4//1
f 52//2 53//2 2//2 3//2
f 48//3 52//3 3//3 7//3
f 9//1 10//1 7//1 6//1
f 6//1 7//1 3//1 2//1
f 51//4 50//4 4//4 5//4
f 10//1 9//1 8//1 11//1
f 5//1 6//1 2//1 1//1
f 46//5 44//5 10//5 11//5
f 47//6 46//6 11//6 8//6
f 54//7 51//7 5//7 1//7
f 50//8 45//8 9//8 4//8
f 45//9 47//9 8//9 9//9
f 44//10 48//10 7//10 10//10
f 53//11 54//11 1//11 2//11
f 31//12 30//12 32//12 33//12
f 22//13 37//13 39//13 24//13
f 12//14 15//14 17//14 30//14
f 14//15 13//15 31//15 16//15
f 39//16 38//16 40//16 41//16
f 30//17 17//17 19//17 32//17
f 33//18 32//18 34//18 35//18
f 24//19 39//19 41//19 26//19
f 32//20 19//20 21//20 34//20
f 18//21 33//21 35//21 20//21
f 41//22 40//22 42//22 43//22
f 34//23 21//23 23//23 36//23
f 35//24 34//24 36//24 37//24
f 26//25 41//25 43//25 28//25
f 36//26 23//26 25//26 38//26
f 20//27 35//27 37//27 22//27
f 43//28 42//28 12//28 13//28
f 38//29 25//29 27//29 40//29
f 17//1 15//1 29//1 27//1 25//1 23//1 21//1 19//1
f 28//30 43//30 13//30 14//30
f 40//31 27//31 29//31 42//31
f 16//32 31//32 33//32 18//32
f 37//33 36//33 38//33 39//33
f 42//34 29//34 15//34 12//34
f 14//35 16//35 18//35 20//35 22//35 24//35 26//35 28//35
f 13//36 12//36 30//36 31//36
f 44//35 46//35 47//35 45//35
f 45//35 49//35 48//35 44//35
f 45//35 50//35 51//35 49//35
f 51//35 54//35 53//35 49//35
f 49//35 53//35 52//35 48//35
