# Blender v2.79 (sub 0) OBJ File: 'crate.blend'
# www.blender.org
mtllib barrel_broken02.mtl
o Circle.004
v -0.168730 0.028822 -0.180165
v -0.207175 0.029438 0.061799
v 0.195212 0.027929 -0.115901
v -0.430982 0.004666 -0.788613
v -0.064813 0.003852 -0.448440
v -0.116185 0.015090 -0.581833
v -0.181419 0.070019 -0.738957
v 0.024358 0.003382 -0.226486
v -0.179483 0.002835 0.051587
v -0.023201 0.000000 0.185182
v 0.154944 0.004350 0.098030
v 0.172357 0.005974 -0.099843
v -0.146115 0.029472 -0.155073
v 0.022593 0.029849 -0.222738
v -0.177793 0.030134 0.055072
v -0.029364 0.031606 0.182889
v 0.153663 0.029347 0.096748
v 0.170963 0.028503 -0.101377
v 0.000000 0.031606 -0.026642
v 0.175951 0.028710 0.119036
v -0.020233 0.030801 0.222744
v -0.018300 0.049732 -0.304005
v -0.240074 0.017575 -0.867874
v -0.309394 0.001775 -1.002087
v -0.187096 0.001457 -0.233963
v 0.025709 0.029084 -0.259054
v -0.477093 0.000918 -0.932462
v -0.256984 0.004420 -0.369513
v -0.315853 0.000935 -0.498935
v -0.381086 0.004071 -0.656059
v -0.147416 0.004109 -0.158088
v -0.477093 0.041887 -0.932462
v -0.430982 0.058776 -0.788613
v -0.256984 0.042993 -0.369513
v -0.315853 0.041045 -0.498935
v -0.381086 0.056241 -0.656059
v 0.390873 0.002330 -0.838366
v 0.275847 0.021121 -0.332622
v 0.374746 0.006241 -0.440346
v 0.470502 0.009131 -0.599698
v 0.215263 -0.000662 -0.188231
v 0.539119 0.024733 -0.731826
v 0.605200 0.000134 -0.876213
v 0.053706 0.001587 -0.279580
v 0.440709 0.006183 -0.969800
v 0.141598 0.002507 -0.408148
v 0.185613 0.002166 -0.549050
v 0.313568 0.003116 -0.711125
v 0.440127 0.047461 -0.969800
v 0.397854 0.031002 -0.838366
v 0.145242 0.020262 -0.406098
v 0.185961 0.036680 -0.546541
v 0.320549 0.025546 -0.711125
v 0.873391 -0.013607 -0.036519
v 0.374902 0.003252 0.118776
v 0.522773 0.000359 0.139283
v 0.702699 0.004248 0.161383
v 0.217359 0.000261 0.089110
v 0.855807 0.000317 0.154370
v 1.009778 0.002492 0.141905
v 0.237112 0.000299 -0.100737
v 1.023283 0.001768 0.007430
v 0.397388 -0.027768 -0.097346
v 0.546408 -0.036237 -0.086902
v 0.726060 -0.032465 -0.071695
v 1.023217 0.032447 0.010801
v 0.875343 0.025085 -0.033183
v 0.397388 0.015499 -0.097346
v 0.546314 0.007057 -0.086976
v 0.726946 0.012227 -0.071552
v -0.355711 0.004703 -0.183629
v -0.852647 0.001910 -0.016874
v -0.704588 0.003286 0.003541
v -0.526714 0.001499 0.022049
v -1.010190 0.004198 -0.046540
v -0.378198 0.001589 0.032493
v -0.219441 0.019305 0.035738
v -0.990436 0.004411 -0.236387
v -0.199688 0.040388 -0.154109
v -0.830160 0.002703 -0.232996
v -0.681070 0.001081 -0.187344
v -0.503195 0.003452 -0.203989
v -0.199688 0.062609 -0.154109
v -0.355711 0.026925 -0.183629
v -0.830160 0.028483 -0.232996
v -0.681070 0.023303 -0.176191
v -0.503195 0.025673 -0.203989
v -0.350965 -0.000240 0.210685
v -0.519821 0.001515 0.696369
v -0.414694 0.001512 0.589914
v -0.292380 -0.000853 0.460579
v -0.609721 0.000913 0.807743
v -0.193667 0.010759 0.351392
v -0.093543 0.006114 0.232780
v -0.748874 0.002421 0.679668
v -0.246474 -0.000326 0.115464
v -0.677544 -0.000012 0.551048
v -0.566566 0.012595 0.473298
v -0.443961 0.000954 0.344728
v -0.244410 0.042421 0.121822
v -0.348709 0.018003 0.217743
v -0.675802 0.032906 0.554624
v -0.561757 0.042123 0.486856
v -0.439443 0.019285 0.357522
v 0.071825 0.006030 0.405990
v 0.474985 0.001388 0.680175
v 0.407464 0.000431 0.558374
v 0.320937 0.004236 0.417204
v 0.539694 0.064346 0.816590
v 0.213071 0.000411 0.315734
v 0.155036 0.002713 0.189013
v 0.388284 0.000326 0.906506
v 0.003626 0.000933 0.278930
v 0.302620 0.003729 0.782536
v 0.227191 0.002026 0.665431
v 0.140664 0.000838 0.524261
v 0.000750 0.040716 0.284461
v 0.068950 0.035365 0.411521
v 0.299745 0.039977 0.788067
v 0.224315 0.031551 0.670962
v 0.137789 0.051873 0.529792
v 0.033196 0.064258 -0.168459
v -0.143623 0.067787 -0.096631
v -0.217821 0.075139 0.079075
v -0.145936 0.044065 0.255734
v 0.029924 0.066744 0.329861
v 0.206743 0.027641 0.258034
v 0.280941 0.033529 0.082328
v 0.209056 0.056965 -0.094332
v 0.231009 0.001085 0.283741
v 0.315476 0.005956 0.083717
v -0.170480 0.017767 0.281123
v 0.029719 0.040589 0.365509
v -0.167847 0.039125 -0.120010
v -0.252315 0.047495 0.080014
v 0.233642 0.028353 -0.117392
v 0.033443 0.035196 -0.201778
vt 0.692748 0.090683
vt 0.828766 0.090683
vt 0.828766 0.156096
vt 0.692748 0.156096
vt 0.157011 0.090683
vt 0.293028 0.090683
vt 0.293028 0.156096
vt 0.157011 0.156096
vt 0.418137 0.090683
vt 0.418137 0.156096
vt 0.567640 0.090683
vt 0.567640 0.156096
vt 0.140652 0.604649
vt 0.290276 0.604145
vt 0.280413 0.632080
vt 0.153431 0.631378
vt 0.128631 0.573902
vt 0.303517 0.573903
vt 0.004967 0.697566
vt 0.035209 0.710807
vt 0.303517 0.996116
vt 0.128630 0.996116
vt 0.141871 0.965874
vt 0.004967 0.872452
vt 0.035714 0.860431
vt 0.303517 0.996116
vt 0.128630 0.996116
vt 0.141871 0.965874
vt 0.291495 0.965369
vt 0.427180 0.872453
vt 0.396938 0.859212
vt 0.427180 0.697566
vt 0.396433 0.709588
vt 0.063145 0.720670
vt 0.216074 0.785009
vt 0.062442 0.847651
vt 0.151734 0.937938
vt 0.278716 0.938641
vt 0.369002 0.849348
vt 0.369705 0.722367
vt 0.692748 0.090683
vt 0.828766 0.090683
vt 0.293028 0.090683
vt 0.418137 0.090683
vt 0.567640 0.090683
vt 0.657153 0.158054
vt 0.827393 0.158054
vt 0.827393 0.212222
vt 0.657153 0.212222
vt 0.473223 0.158054
vt 0.473223 0.212222
vt 0.313449 0.158054
vt 0.313449 0.212222
vt 0.156863 0.158054
vt 0.156863 0.212222
vt 0.158987 0.157547
vt 0.313164 0.157547
vt 0.313164 0.211714
vt 0.692748 0.090683
vt 0.828766 0.090683
vt 0.828766 0.156096
vt 0.692748 0.156096
vt 0.157011 0.090683
vt 0.293028 0.090683
vt 0.293028 0.156096
vt 0.157011 0.156096
vt 0.418137 0.090683
vt 0.418137 0.156096
vt 0.567640 0.090683
vt 0.567640 0.156096
vt 0.303517 0.996116
vt 0.128630 0.996116
vt 0.141871 0.965874
vt 0.692748 0.090683
vt 0.828766 0.090683
vt 0.293028 0.090683
vt 0.418137 0.090683
vt 0.567640 0.090683
vt 0.657153 0.158054
vt 0.827393 0.158054
vt 0.827393 0.212222
vt 0.657153 0.212222
vt 0.473223 0.158054
vt 0.473223 0.212222
vt 0.313449 0.158054
vt 0.313449 0.212222
vt 0.156863 0.158054
vt 0.156863 0.212222
vt 0.158987 0.157547
vt 0.313164 0.157547
vt 0.313164 0.211714
vt 0.692748 0.090683
vt 0.828766 0.090683
vt 0.828766 0.156096
vt 0.692748 0.156096
vt 0.157011 0.090683
vt 0.293028 0.090683
vt 0.293028 0.156096
vt 0.157011 0.156096
vt 0.418137 0.090683
vt 0.418137 0.156096
vt 0.567640 0.090683
vt 0.567640 0.156096
vt 0.303517 0.996116
vt 0.128630 0.996116
vt 0.141871 0.965874
vt 0.692748 0.090683
vt 0.828766 0.090683
vt 0.293028 0.090683
vt 0.418137 0.090683
vt 0.567640 0.090683
vt 0.657153 0.158054
vt 0.827393 0.158054
vt 0.827393 0.212222
vt 0.657153 0.212222
vt 0.473223 0.158054
vt 0.473223 0.212222
vt 0.313449 0.158054
vt 0.313449 0.212222
vt 0.156863 0.158054
vt 0.156863 0.212222
vt 0.158987 0.157547
vt 0.313164 0.157547
vt 0.313164 0.211714
vt 0.692748 0.090683
vt 0.828766 0.090683
vt 0.828766 0.156096
vt 0.692748 0.156096
vt 0.157011 0.090683
vt 0.293028 0.090683
vt 0.293028 0.156096
vt 0.157011 0.156096
vt 0.418137 0.090683
vt 0.418137 0.156096
vt 0.567640 0.090683
vt 0.567640 0.156096
vt 0.303517 0.996116
vt 0.128630 0.996116
vt 0.141871 0.965874
vt 0.692748 0.090683
vt 0.828766 0.090683
vt 0.293028 0.090683
vt 0.418137 0.090683
vt 0.567640 0.090683
vt 0.657153 0.158054
vt 0.827393 0.158054
vt 0.827393 0.212222
vt 0.657153 0.212222
vt 0.473223 0.158054
vt 0.473223 0.212222
vt 0.313449 0.158054
vt 0.313449 0.212222
vt 0.156863 0.158054
vt 0.156863 0.212222
vt 0.158987 0.157547
vt 0.313164 0.157547
vt 0.313164 0.211714
vt 0.692748 0.090683
vt 0.828766 0.090683
vt 0.828766 0.156096
vt 0.692748 0.156096
vt 0.157011 0.090683
vt 0.293028 0.090683
vt 0.293028 0.156096
vt 0.157011 0.156096
vt 0.418137 0.090683
vt 0.418137 0.156096
vt 0.567640 0.090683
vt 0.567640 0.156096
vt 0.303517 0.996116
vt 0.128630 0.996116
vt 0.141871 0.965874
vt 0.692748 0.090683
vt 0.828766 0.090683
vt 0.293028 0.090683
vt 0.418137 0.090683
vt 0.567640 0.090683
vt 0.657153 0.158054
vt 0.827393 0.158054
vt 0.827393 0.212222
vt 0.657153 0.212222
vt 0.473223 0.158054
vt 0.473223 0.212222
vt 0.313449 0.158054
vt 0.313449 0.212222
vt 0.156863 0.158054
vt 0.156863 0.212222
vt 0.158987 0.157547
vt 0.313164 0.157547
vt 0.313164 0.211714
vt 0.692748 0.090683
vt 0.828766 0.090683
vt 0.828766 0.156096
vt 0.692748 0.156096
vt 0.157011 0.090683
vt 0.293028 0.090683
vt 0.293028 0.156096
vt 0.157011 0.156096
vt 0.418137 0.090683
vt 0.418137 0.156096
vt 0.567640 0.090683
vt 0.567640 0.156096
vt 0.303517 0.996116
vt 0.128630 0.996116
vt 0.141871 0.965874
vt 0.692748 0.090683
vt 0.828766 0.090683
vt 0.293028 0.090683
vt 0.418137 0.090683
vt 0.567640 0.090683
vt 0.657153 0.158054
vt 0.827393 0.158054
vt 0.827393 0.212222
vt 0.657153 0.212222
vt 0.473223 0.158054
vt 0.473223 0.212222
vt 0.313449 0.158054
vt 0.313449 0.212222
vt 0.156863 0.158054
vt 0.156863 0.212222
vt 0.158987 0.157547
vt 0.313164 0.157547
vt 0.313164 0.211714
vt 0.836428 0.286922
vt 0.905976 0.286922
vt 0.905976 0.353873
vt 0.836428 0.353873
vt 0.836428 0.420823
vt 0.905976 0.420823
vt 0.905976 0.487774
vt 0.836428 0.487774
vt 0.836428 0.019120
vt 0.905976 0.019120
vt 0.905976 0.086071
vt 0.836428 0.086071
vt 0.836428 0.219972
vt 0.905976 0.219972
vt 0.905976 0.554724
vt 0.836428 0.554724
vt 0.905976 0.153021
vt 0.836428 0.153021
vn -0.6099 -0.7318 0.3041
vn -0.7251 -0.6048 -0.3292
vn -0.0710 -0.9963 0.0485
vn 0.0419 -0.9911 0.1267
vn 0.0291 -0.9964 0.0796
vn -0.6071 -0.7182 0.3400
vn 0.0123 -0.9997 0.0190
vn 0.0958 -0.9944 0.0435
vn -0.6418 -0.7400 0.2009
vn -0.0328 -0.9941 -0.1032
vn -0.6062 -0.7580 0.2405
vn 0.0583 -0.9978 -0.0316
vn 0.0009 -0.9958 0.0907
vn -0.0968 -0.9926 0.0732
vn -0.7008 -0.6421 0.3106
vn -0.1116 -0.6464 0.7548
vn 0.0743 -0.7976 -0.5986
vn 0.5900 -0.7581 -0.2776
vn -0.4855 -0.7757 -0.4033
vn 0.0340 -0.9949 0.0949
vn -0.8140 -0.5606 -0.1519
vn -0.6349 -0.7340 0.2409
vn 0.1088 -0.9940 0.0096
vn -0.0468 -0.7803 0.6236
vn -0.1059 -0.9901 -0.0916
vn 0.5153 -0.7694 0.3773
vn -0.0386 -0.9933 -0.1087
vn 0.6061 -0.6475 0.4620
vn -0.0033 -1.0000 0.0039
vn 0.7321 -0.6087 -0.3058
vn 0.1580 -0.6091 -0.7772
vn -0.6315 -0.6459 -0.4290
vn -0.6701 -0.6599 0.3398
vn -0.6457 -0.7019 0.3005
vn -0.7204 -0.6556 0.2262
vn -0.6782 -0.6889 0.2559
vn -0.6554 -0.6953 -0.2950
vn -0.3013 -0.5453 -0.7822
vn -0.0420 -0.9985 -0.0333
vn -0.0102 -0.9998 -0.0157
vn 0.0376 -0.9943 -0.0997
vn -0.6426 -0.7025 -0.3059
vn 0.0227 -0.9993 -0.0295
vn 0.0689 -0.9946 -0.0775
vn -0.6873 -0.6375 -0.3480
vn -0.0310 -0.9995 -0.0044
vn -0.5843 -0.6749 -0.4505
vn -0.0023 -0.9995 -0.0328
vn -0.4139 -0.5325 -0.7383
vn -0.6978 -0.6381 -0.3254
vn -0.6318 -0.6909 -0.3513
vn -0.7112 -0.5970 -0.3710
vn -0.6361 -0.6184 -0.4614
vn 0.2289 -0.7033 -0.6730
vn 0.6854 -0.5523 -0.4745
vn 0.1153 -0.9920 -0.0506
vn 0.0435 -0.9990 -0.0122
vn -0.0112 -0.9981 -0.0597
vn -0.0166 -0.7502 -0.6609
vn -0.0287 -0.9989 0.0362
vn -0.0129 -0.9997 0.0215
vn 0.0406 -0.7655 -0.6421
vn -0.0129 -0.9982 0.0576
vn 0.1372 -0.7412 -0.6570
vn 0.0266 -0.9986 0.0453
vn 0.6551 -0.5394 -0.5289
vn 0.2069 -0.6384 -0.7413
vn 0.0393 -0.7048 -0.7083
vn 0.0529 -0.6830 -0.7285
vn 0.1404 -0.6564 -0.7412
vn 0.1687 -0.7089 -0.6848
vn 0.7042 -0.4941 -0.5098
vn 0.2084 -0.9739 -0.0895
vn 0.0904 -0.9930 -0.0764
vn 0.0320 -0.9963 -0.0790
vn 0.1313 -0.6362 -0.7602
vn 0.0190 -0.9988 -0.0438
vn 0.0311 -0.9990 -0.0309
vn 0.0832 -0.6662 -0.7411
vn 0.0040 -0.9985 -0.0549
vn 0.0073 -0.6335 -0.7737
vn 0.0054 -0.9984 -0.0570
vn 0.6656 -0.5515 -0.5028
vn 0.1731 -0.6281 -0.7586
vn 0.1651 -0.6122 -0.7732
vn 0.0699 -0.6788 -0.7310
vn 0.0111 -0.5886 -0.8083
vn -0.6052 -0.5836 -0.5413
vn -0.0509 -0.5274 -0.8480
vn 0.0367 -0.9941 -0.1019
vn -0.0036 -0.9991 -0.0420
vn -0.0543 -0.9943 -0.0913
vn -0.5840 -0.5951 -0.5520
vn -0.0200 -0.9960 -0.0865
vn 0.0005 -0.9981 -0.0611
vn -0.5265 -0.5402 -0.6564
vn -0.0763 -0.9950 -0.0647
vn -0.6494 -0.5547 -0.5201
vn -0.0482 -0.9983 -0.0332
vn -0.0524 -0.4607 -0.8860
vn -0.6527 -0.4638 -0.5990
vn -0.5847 -0.5223 -0.6207
vn -0.5170 -0.5784 -0.6309
vn -0.6545 -0.5100 -0.5582
vn -0.5842 -0.7417 0.3295
vn -0.7559 -0.5982 -0.2661
vn -0.1388 -0.9900 -0.0234
vn -0.0831 -0.9942 0.0685
vn 0.1053 -0.9892 0.1014
vn -0.4895 -0.7697 0.4098
vn 0.0464 -0.9970 0.0620
vn 0.1667 -0.9842 0.0592
vn -0.5565 -0.7542 0.3485
vn -0.0798 -0.9961 0.0371
vn -0.5670 -0.7533 0.3331
vn -0.0828 -0.9953 0.0502
vn -0.8054 -0.5893 -0.0637
vn -0.6349 -0.6701 0.3845
vn -0.5224 -0.7578 0.3909
vn -0.6245 -0.6842 0.3765
vn -0.6103 -0.6980 0.3746
vn 0.6278 0.7760 0.0613
vn 0.6307 0.7749 0.0403
vn 0.4812 0.7798 0.4003
vn 0.4859 0.7797 0.3948
vn 0.0330 0.8260 0.5627
vn 0.0205 0.8261 0.5631
vn -0.4397 0.7801 0.4451
vn -0.4352 0.7803 0.4490
vn -0.6041 0.7956 0.0453
vn -0.6067 0.7947 0.0187
vn -0.4387 0.7611 -0.4777
vn -0.4385 0.7610 -0.4780
vn 0.4962 0.7698 -0.4014
vn 0.4795 0.7692 -0.4223
vn 0.0195 0.7571 -0.6530
vn 0.0264 0.7571 -0.6527
usemtl Barrel
s 1
f 4/1/1 27/2/2 24/3/3 23/4/4
f 25/5/5 28/6/6 5/7/7 22/8/8
f 28/6/6 29/9/9 6/10/10 5/7/7
f 29/9/9 30/11/11 7/12/12 6/10/10
f 30/11/11 4/1/1 23/4/4 7/12/12
f 8/13/13 12/14/14 18/15/15 14/16/16
f 26/17/17 3/18/18 12/14/14 8/13/13
f 1/19/19 26/17/17 8/13/13 31/20/20
f 24/21/3 27/22/2 32/23/21
f 2/24/22 1/19/19 31/20/20 9/25/23
f 21/26/24 2/27/22 9/28/23 10/29/25
f 20/30/26 21/26/24 10/29/25 11/31/27
f 3/32/18 20/30/26 11/31/27 12/33/14
f 13/34/28 14/16/16 19/35/29
f 31/20/20 8/13/13 14/16/16 13/34/28
f 9/25/23 31/20/20 13/34/28 15/36/30
f 10/29/25 9/28/23 15/37/30 16/38/31
f 11/31/27 10/29/25 16/38/31 17/39/32
f 12/33/14 11/31/27 17/39/32 18/40/15
f 15/36/30 13/34/28 19/35/29
f 16/38/31 15/37/30 19/35/29
f 18/40/15 17/39/32 19/35/29
f 14/16/16 18/15/15 19/35/29
f 17/39/32 16/38/31 19/35/29
f 33/41/33 32/42/21 24/3/3 23/4/4
f 25/5/5 34/43/34 5/7/7 22/8/8
f 34/43/34 35/44/35 6/10/10 5/7/7
f 35/44/35 36/45/36 7/12/12 6/10/10
f 36/45/36 33/41/33 23/4/4 7/12/12
f 33/46/33 32/47/21 27/48/2 4/49/1
f 36/50/36 33/46/33 4/49/1 30/51/11
f 35/52/35 36/50/36 30/51/11 29/53/9
f 34/54/34 35/52/35 29/53/9 28/55/6
f 25/56/5 34/57/34 28/58/6
f 37/59/37 45/60/38 43/61/39 42/62/40
f 44/63/41 46/64/42 38/65/43 41/66/44
f 46/64/42 47/67/45 39/68/46 38/65/43
f 47/67/45 48/69/47 40/70/48 39/68/46
f 48/69/47 37/59/37 42/62/40 40/70/48
f 43/71/39 45/72/38 49/73/49
f 50/74/50 49/75/49 43/61/39 42/62/40
f 44/63/41 51/76/51 38/65/43 41/66/44
f 51/76/51 52/77/52 39/68/46 38/65/43
f 52/77/52 53/78/53 40/70/48 39/68/46
f 53/78/53 50/74/50 42/62/40 40/70/48
f 50/79/50 49/80/49 45/81/38 37/82/37
f 53/83/53 50/79/50 37/82/37 48/84/47
f 52/85/52 53/83/53 48/84/47 47/86/45
f 51/87/51 52/85/52 47/86/45 46/88/42
f 44/89/41 51/90/51 46/91/42
f 54/92/54 62/93/55 60/94/56 59/95/57
f 61/96/58 63/97/59 55/98/60 58/99/61
f 63/97/59 64/100/62 56/101/63 55/98/60
f 64/100/62 65/102/64 57/103/65 56/101/63
f 65/102/64 54/92/54 59/95/57 57/103/65
f 60/104/56 62/105/55 66/106/66
f 67/107/67 66/108/66 60/94/56 59/95/57
f 61/96/58 68/109/68 55/98/60 58/99/61
f 68/109/68 69/110/69 56/101/63 55/98/60
f 69/110/69 70/111/70 57/103/65 56/101/63
f 70/111/70 67/107/67 59/95/57 57/103/65
f 67/112/67 66/113/66 62/114/55 54/115/54
f 70/116/70 67/112/67 54/115/54 65/117/64
f 69/118/69 70/116/70 65/117/64 64/119/62
f 68/120/68 69/118/69 64/119/62 63/121/59
f 61/122/58 68/123/68 63/124/59
f 71/125/71 79/126/72 77/127/73 76/128/74
f 78/129/75 80/130/76 72/131/77 75/132/78
f 80/130/76 81/133/79 73/134/80 72/131/77
f 81/133/79 82/135/81 74/136/82 73/134/80
f 82/135/81 71/125/71 76/128/74 74/136/82
f 77/137/73 79/138/72 83/139/83
f 84/140/84 83/141/83 77/127/73 76/128/74
f 78/129/75 85/142/85 72/131/77 75/132/78
f 85/142/85 86/143/86 73/134/80 72/131/77
f 86/143/86 87/144/87 74/136/82 73/134/80
f 87/144/87 84/140/84 76/128/74 74/136/82
f 84/145/84 83/146/83 79/147/72 71/148/71
f 87/149/87 84/145/84 71/148/71 82/150/81
f 86/151/86 87/149/87 82/150/81 81/152/79
f 85/153/85 86/151/86 81/152/79 80/154/76
f 78/155/75 85/156/85 80/157/76
f 88/158/88 96/159/89 94/160/90 93/161/91
f 95/162/92 97/163/93 89/164/94 92/165/95
f 97/163/93 98/166/96 90/167/97 89/164/94
f 98/166/96 99/168/98 91/169/99 90/167/97
f 99/168/98 88/158/88 93/161/91 91/169/99
f 94/170/90 96/171/89 100/172/100
f 101/173/101 100/174/100 94/160/90 93/161/91
f 95/162/92 102/175/102 89/164/94 92/165/95
f 102/175/102 103/176/103 90/167/97 89/164/94
f 103/176/103 104/177/104 91/169/99 90/167/97
f 104/177/104 101/173/101 93/161/91 91/169/99
f 101/178/101 100/179/100 96/180/89 88/181/88
f 104/182/104 101/178/101 88/181/88 99/183/98
f 103/184/103 104/182/104 99/183/98 98/185/96
f 102/186/102 103/184/103 98/185/96 97/187/93
f 95/188/92 102/189/102 97/190/93
f 105/191/105 113/192/106 111/193/107 110/194/108
f 112/195/109 114/196/110 106/197/111 109/198/112
f 114/196/110 115/199/113 107/200/114 106/197/111
f 115/199/113 116/201/115 108/202/116 107/200/114
f 116/201/115 105/191/105 110/194/108 108/202/116
f 111/203/107 113/204/106 117/205/117
f 118/206/118 117/207/117 111/193/107 110/194/108
f 112/195/109 119/208/119 106/197/111 109/198/112
f 119/208/119 120/209/120 107/200/114 106/197/111
f 120/209/120 121/210/121 108/202/116 107/200/114
f 121/210/121 118/206/118 110/194/108 108/202/116
f 118/211/118 117/212/117 113/213/106 105/214/105
f 121/215/121 118/211/118 105/214/105 116/216/115
f 120/217/120 121/215/121 116/216/115 115/218/113
f 119/219/119 120/217/120 115/218/113 114/220/110
f 112/221/109 119/222/119 114/223/110
f 131/224/122 128/225/123 127/226/124 130/227/125
f 133/228/126 126/229/127 125/230/128 132/231/129
f 135/232/130 124/233/131 123/234/132 134/235/133
f 136/236/134 129/237/135 128/225/123 131/224/122
f 130/227/125 127/226/124 126/229/127 133/228/126
f 132/231/129 125/230/128 124/238/131 135/239/130
f 134/235/133 123/234/132 122/240/136 137/241/137
f 137/241/137 122/240/136 129/237/135 136/236/134
