# Blender v2.79 (sub 0) OBJ File: 'crate.blend'
# www.blender.org
mtllib barrel03.mtl
o Circle.012_Circle.013
v 0.000000 0.000000 -0.249387
v -0.176343 0.000000 -0.176343
v -0.249387 0.000000 0.000000
v -0.176343 0.000000 0.176343
v 0.000000 0.000000 0.249387
v 0.176343 0.000000 0.176343
v 0.249387 0.000000 -0.000000
v 0.176343 0.000000 -0.176343
v 0.000000 0.795245 -0.249387
v -0.176343 0.795245 -0.176343
v -0.249387 0.795245 0.000000
v -0.176343 0.795245 0.176343
v 0.000000 0.795245 0.249387
v 0.176343 0.795245 0.176343
v 0.249387 0.795245 -0.000000
v 0.176343 0.795245 -0.176343
v 0.200749 0.159049 0.200749
v 0.209959 0.308180 0.209959
v 0.209959 0.487066 0.209959
v 0.200749 0.636196 0.200749
v 0.283902 0.636196 -0.000000
v 0.296927 0.487066 -0.000000
v 0.296927 0.308180 -0.000000
v 0.283902 0.159049 -0.000000
v -0.200749 0.159049 0.200749
v -0.209959 0.308180 0.209959
v -0.209959 0.487066 0.209959
v -0.200749 0.636196 0.200749
v 0.000000 0.636196 0.283902
v 0.000000 0.487066 0.296927
v 0.000000 0.308180 0.296927
v 0.000000 0.159049 0.283902
v -0.200749 0.159049 -0.200749
v -0.209959 0.308180 -0.209959
v -0.209959 0.487066 -0.209959
v -0.200749 0.636196 -0.200749
v -0.283902 0.636196 0.000000
v -0.296927 0.487066 0.000000
v -0.296927 0.308180 0.000000
v -0.283902 0.159049 0.000000
v 0.200749 0.636196 -0.200749
v 0.209959 0.487066 -0.209959
v 0.209959 0.308180 -0.209959
v 0.200749 0.159049 -0.200749
v -0.000000 0.159049 -0.283902
v -0.000000 0.308180 -0.296927
v -0.000000 0.487066 -0.296927
v -0.000000 0.636196 -0.283902
v -0.149782 0.000000 -0.149782
v 0.000000 0.000000 -0.211824
v -0.211824 0.000000 0.000000
v -0.149782 0.000000 0.149782
v 0.000000 0.000000 0.211824
v 0.149782 0.000000 0.149782
v 0.211824 0.000000 -0.000000
v 0.149782 0.000000 -0.149782
v -0.149782 0.795245 -0.149782
v 0.000000 0.795245 -0.211824
v -0.211824 0.795245 0.000000
v -0.149782 0.795245 0.149782
v 0.000000 0.795245 0.211824
v 0.149782 0.795245 0.149782
v 0.211824 0.795245 -0.000000
v 0.149782 0.795245 -0.149782
v -0.148161 0.031606 -0.148161
v 0.000000 0.031606 -0.209532
v -0.209532 0.031606 0.000000
v -0.148161 0.031606 0.148161
v 0.000000 0.031606 0.209532
v 0.148161 0.031606 0.148161
v 0.209532 0.031606 -0.000000
v 0.148161 0.031606 -0.148161
v -0.148161 0.763639 -0.148161
v 0.000000 0.763639 -0.209532
v -0.209532 0.763639 0.000000
v -0.148161 0.763639 0.148161
v 0.000000 0.763639 0.209532
v 0.148161 0.763639 0.148161
v 0.209532 0.763639 -0.000000
v 0.148161 0.763639 -0.148161
v 0.000000 0.714549 -0.000000
v 0.000000 0.031606 -0.000000
vt 0.784863 0.286922
vt 0.980406 0.286922
vt 0.980406 0.352335
vt 0.784863 0.352335
vt 0.784863 0.417748
vt 0.980406 0.417748
vt 0.980406 0.483161
vt 0.784863 0.483161
vt 0.784863 0.025270
vt 0.980406 0.025270
vt 0.980406 0.090683
vt 0.784863 0.090683
vt 0.784863 0.221509
vt 0.980406 0.221509
vt 0.980406 0.548574
vt 0.784863 0.548574
vt 0.980406 0.156096
vt 0.784863 0.156096
vt 0.014672 0.156096
vt 0.210215 0.156096
vt 0.210215 0.221509
vt 0.014672 0.221509
vt 0.390075 0.156096
vt 0.390075 0.221509
vt 0.605003 0.156096
vt 0.605003 0.221509
vt 0.014672 0.090683
vt 0.210215 0.090683
vt 0.390075 0.090683
vt 0.605003 0.090683
vt 0.014672 0.483161
vt 0.210215 0.483161
vt 0.210215 0.548574
vt 0.014672 0.548574
vt 0.390075 0.483161
vt 0.390075 0.548574
vt 0.605003 0.483161
vt 0.605003 0.548574
vt 0.014672 0.352335
vt 0.210215 0.352335
vt 0.210215 0.417748
vt 0.014672 0.417748
vt 0.390075 0.352335
vt 0.390075 0.417748
vt 0.605003 0.352335
vt 0.605003 0.417748
vt 0.210215 0.286922
vt 0.014672 0.286922
vt 0.390075 0.286922
vt 0.605003 0.286922
vt 0.014672 0.025270
vt 0.210215 0.025270
vt 0.390075 0.025270
vt 0.605003 0.025270
vt 0.427180 0.697566
vt 0.427180 0.872453
vt 0.396938 0.859212
vt 0.396433 0.709588
vt 0.303517 0.573903
vt 0.427180 0.697566
vt 0.396433 0.709588
vt 0.290276 0.604145
vt 0.140652 0.604649
vt 0.280413 0.632080
vt 0.153431 0.631378
vt 0.369002 0.849348
vt 0.369705 0.722367
vt 0.128631 0.573902
vt 0.004967 0.697566
vt 0.035209 0.710807
vt 0.303517 0.996116
vt 0.291495 0.965369
vt 0.128630 0.996116
vt 0.141871 0.965874
vt 0.004967 0.872452
vt 0.035714 0.860431
vt 0.004967 0.872452
vt 0.035714 0.860431
vt 0.128630 0.996116
vt 0.141871 0.965874
vt 0.004967 0.697566
vt 0.035209 0.710807
vt 0.303517 0.996116
vt 0.291495 0.965369
vt 0.128630 0.573903
vt 0.140652 0.604649
vt 0.427180 0.872453
vt 0.396938 0.859212
vt 0.303517 0.573903
vt 0.290276 0.604145
vt 0.063145 0.720670
vt 0.216074 0.785009
vt 0.581319 0.635622
vt 0.454103 0.582989
vt 0.454178 0.762869
vt 0.278716 0.938641
vt 0.151734 0.937938
vt 0.062442 0.847651
vt 0.062442 0.847651
vt 0.151734 0.937938
vt 0.063145 0.720670
vt 0.278716 0.938641
vt 0.153431 0.631378
vt 0.369002 0.849348
vt 0.280413 0.632080
vt 0.369705 0.722367
vt 0.581425 0.890011
vt 0.634058 0.762795
vt 0.634058 0.762795
vt 0.581319 0.889967
vt 0.454178 0.762720
vt 0.454252 0.582840
vt 0.581425 0.635579
vt 0.454252 0.942749
vt 0.454103 0.942600
vn 0.9890 0.1476 0.0000
vn 0.7056 0.7086 0.0000
vn 0.4989 0.7086 0.4989
vn 0.6993 0.1476 0.6993
vn 0.0000 0.1476 0.9890
vn 0.0000 0.7086 0.7056
vn -0.4989 0.7086 0.4989
vn -0.6993 0.1476 0.6993
vn -0.9890 0.1476 0.0000
vn -0.7056 0.7086 0.0000
vn -0.4989 0.7086 -0.4989
vn -0.6993 0.1476 -0.6993
vn 0.6993 0.1476 -0.6993
vn 0.4989 0.7086 -0.4989
vn 0.0000 0.7086 -0.7056
vn 0.0000 0.1476 -0.9890
vn 0.0000 -0.7086 -0.7056
vn 0.0000 -0.1476 -0.9890
vn 0.6993 -0.1476 -0.6993
vn 0.4989 -0.7086 -0.4989
vn 0.0000 -0.0431 -0.9991
vn 0.7064 -0.0431 -0.7064
vn 0.0000 0.0431 -0.9991
vn 0.7064 0.0431 -0.7064
vn -0.4989 -0.7086 -0.4989
vn -0.6993 -0.1476 -0.6993
vn -0.7064 -0.0431 -0.7064
vn -0.7064 0.0431 -0.7064
vn -0.4989 -0.7086 0.4989
vn -0.6993 -0.1476 0.6993
vn -0.9890 -0.1476 0.0000
vn -0.7056 -0.7086 0.0000
vn -0.7064 -0.0431 0.7064
vn -0.9991 -0.0431 0.0000
vn -0.7064 0.0431 0.7064
vn -0.9991 0.0431 0.0000
vn 0.4989 -0.7086 0.4989
vn 0.6993 -0.1476 0.6993
vn 0.0000 -0.1476 0.9890
vn 0.0000 -0.7086 0.7056
vn 0.7064 -0.0431 0.7064
vn 0.0000 -0.0431 0.9991
vn 0.7064 0.0431 0.7064
vn 0.0000 0.0431 0.9991
vn 0.9890 -0.1476 0.0000
vn 0.7056 -0.7086 0.0000
vn 0.9991 -0.0431 0.0000
vn 0.9991 0.0431 0.0000
vn -0.4009 0.8237 0.4009
vn -0.5669 0.8237 0.0000
vn -0.5669 -0.8237 0.0000
vn -0.4009 -0.8237 0.4009
vn 0.0000 -0.8237 0.5669
vn -0.5329 -0.6572 0.5329
vn 0.0000 -0.6572 0.7537
vn -0.5732 0.5855 0.5732
vn -0.8106 0.5855 0.0000
vn 0.4009 -0.8237 0.4009
vn 0.0000 0.8237 0.5669
vn 0.4009 0.8237 0.4009
vn 0.5669 -0.8237 0.0000
vn 0.5669 0.8237 0.0000
vn 0.4009 -0.8237 -0.4009
vn 0.4009 0.8237 -0.4009
vn 0.0000 -0.8237 -0.5669
vn 0.0000 0.8237 -0.5669
vn -0.4009 -0.8237 -0.4009
vn -0.4009 0.8237 -0.4009
vn 0.5329 -0.6572 0.5329
vn 0.0000 -1.0000 0.0000
vn 0.5732 0.5855 -0.5732
vn 0.0000 0.5855 -0.8106
vn 0.0000 1.0000 0.0000
vn 0.0000 0.5855 0.8106
vn 0.5732 0.5855 0.5732
vn 0.7537 -0.6572 0.0000
vn 0.8106 0.5855 0.0000
vn 0.5329 -0.6572 -0.5329
vn 0.0000 -0.6572 -0.7537
vn -0.5329 -0.6572 -0.5329
vn -0.5732 0.5855 -0.5732
vn -0.7537 -0.6572 0.0000
usemtl Barrel
s 1
f 21/1/1 15/2/2 14/3/3 20/4/4
f 29/5/5 13/6/6 12/7/7 28/8/8
f 37/9/9 11/10/10 10/11/11 36/12/12
f 41/13/13 16/14/14 15/2/2 21/1/1
f 20/4/4 14/3/3 13/6/6 29/5/5
f 28/8/8 12/7/7 11/15/10 37/16/9
f 36/12/12 10/11/11 9/17/15 48/18/16
f 48/18/16 9/17/15 16/14/14 41/13/13
f 1/19/17 45/20/18 44/21/19 8/22/20
f 45/20/18 46/23/21 43/24/22 44/21/19
f 46/23/21 47/25/23 42/26/24 43/24/22
f 47/25/23 48/18/16 41/13/13 42/26/24
f 2/27/25 33/28/26 45/20/18 1/19/17
f 33/28/26 34/29/27 46/23/21 45/20/18
f 34/29/27 35/30/28 47/25/23 46/23/21
f 35/30/28 36/12/12 48/18/16 47/25/23
f 4/31/29 25/32/30 40/33/31 3/34/32
f 25/32/30 26/35/33 39/36/34 40/33/31
f 26/35/33 27/37/35 38/38/36 39/36/34
f 27/37/35 28/8/8 37/16/9 38/38/36
f 6/39/37 17/40/38 32/41/39 5/42/40
f 17/40/38 18/43/41 31/44/42 32/41/39
f 18/43/41 19/45/43 30/46/44 31/44/42
f 19/45/43 20/4/4 29/5/5 30/46/44
f 8/22/20 44/21/19 24/47/45 7/48/46
f 44/21/19 43/24/22 23/49/47 24/47/45
f 43/24/22 42/26/24 22/50/48 23/49/47
f 42/26/24 41/13/13 21/1/1 22/50/48
f 3/51/32 40/52/31 33/28/26 2/27/25
f 40/52/31 39/53/34 34/29/27 33/28/26
f 39/53/34 38/54/36 35/30/28 34/29/27
f 38/54/36 37/9/9 36/12/12 35/30/28
f 5/42/40 32/41/39 25/32/30 4/31/29
f 32/41/39 31/44/42 26/35/33 25/32/30
f 31/44/42 30/46/44 27/37/35 26/35/33
f 30/46/44 29/5/5 28/8/8 27/37/35
f 7/48/46 24/47/45 17/40/38 6/39/37
f 24/47/45 23/49/47 18/43/41 17/40/38
f 23/49/47 22/50/48 19/45/43 18/43/41
f 22/50/48 21/1/1 20/4/4 19/45/43
f 15/55/2 16/56/14 64/57/49 63/58/50
f 8/59/20 7/60/46 55/61/51 56/62/52
f 50/63/53 56/62/52 72/64/54 66/65/55
f 63/58/50 64/57/49 80/66/56 79/67/57
f 1/68/17 8/59/20 56/62/52 50/63/53
f 2/69/25 1/68/17 50/63/53 49/70/58
f 16/56/14 9/71/15 58/72/59 64/57/49
f 9/71/15 10/73/11 57/74/60 58/72/59
f 3/75/32 2/69/25 49/70/58 51/76/61
f 10/73/11 11/77/10 59/78/62 57/74/60
f 4/79/29 3/75/32 51/76/61 52/80/63
f 11/77/10 12/81/7 60/82/64 59/78/62
f 5/83/40 4/79/29 52/80/63 53/84/65
f 12/81/7 13/85/6 61/86/66 60/82/64
f 6/87/37 5/83/40 53/84/65 54/88/67
f 13/85/6 14/89/3 62/90/68 61/86/66
f 7/60/46 6/87/37 54/88/67 55/61/51
f 14/89/3 15/55/2 63/58/50 62/90/68
f 65/91/69 66/65/55 82/92/70
f 76/93/71 77/94/72 81/95/73
f 49/70/58 50/63/53 66/65/55 65/91/69
f 64/57/49 58/72/59 74/96/74 80/66/56
f 58/72/59 57/74/60 73/97/75 74/96/74
f 51/76/61 49/70/58 65/91/69 67/98/76
f 57/74/60 59/78/62 75/99/77 73/97/75
f 52/80/63 51/76/61 67/98/76 68/100/78
f 59/78/62 60/82/64 76/101/71 75/99/77
f 53/84/65 52/80/63 68/100/78 69/102/79
f 60/82/64 61/86/66 77/103/72 76/101/71
f 54/88/67 53/84/65 69/102/79 70/104/80
f 61/86/66 62/90/68 78/105/81 77/103/72
f 55/61/51 54/88/67 70/104/80 71/106/82
f 62/90/68 63/58/50 79/67/57 78/105/81
f 56/62/52 55/61/51 71/106/82 72/64/54
f 72/64/54 71/106/82 82/92/70
f 73/107/75 75/108/77 81/95/73
f 79/109/57 80/110/56 81/111/73
f 77/112/72 78/113/81 81/111/73
f 75/108/77 76/93/71 81/95/73
f 74/114/74 73/107/75 81/95/73
f 80/110/56 74/115/74 81/111/73
f 78/113/81 79/109/57 81/111/73
f 67/98/76 65/91/69 82/92/70
f 69/102/79 68/100/78 82/92/70
f 71/106/82 70/104/80 82/92/70
f 66/65/55 72/64/54 82/92/70
f 70/104/80 69/102/79 82/92/70
f 68/100/78 67/98/76 82/92/70
