# Blender v2.79 (sub 0) OBJ File: 'crate.blend'
# www.blender.org
mtllib barrel05.mtl
o Circle.003
v 0.321020 0.341047 -0.102628
v 0.369275 0.199250 -0.164670
v 0.301032 0.399781 0.047154
v 0.321020 0.341047 0.196936
v 0.369275 0.199250 0.258978
v 0.417529 0.057454 0.196936
v 0.437517 -0.001280 0.047154
v 0.417529 0.057454 -0.102628
v 0.346655 0.348058 -0.101007
v 0.394387 0.207797 -0.162378
v 0.326883 0.406157 0.047154
v 0.346655 0.348058 0.195315
v 0.394387 0.207796 0.256686
v 0.442120 0.067535 0.195315
v 0.461891 0.009436 0.047154
v 0.442120 0.067535 -0.101007
v 0.394387 0.207796 0.047154
vt 0.396433 0.709588
vt 0.396938 0.859212
vt 0.369002 0.849348
vt 0.369705 0.722367
vt 0.063145 0.720670
vt 0.153431 0.631378
vt 0.216074 0.785009
vt 0.291495 0.965369
vt 0.278716 0.938641
vt 0.141871 0.965874
vt 0.151734 0.937938
vt 0.035714 0.860431
vt 0.062442 0.847651
vt 0.035209 0.710807
vt 0.140652 0.604649
vt 0.290276 0.604145
vt 0.280413 0.632080
vn 0.4024 -0.9154 0.0000
vn 0.3085 -0.6392 -0.7045
vn 0.7977 -0.2881 -0.5297
vn 0.8684 -0.4959 0.0000
vn 0.4563 0.7149 0.5297
vn 0.6270 0.2134 0.7492
vn 0.9467 0.3222 0.0000
vn 0.0815 0.0277 -0.9963
vn 0.6270 0.2134 -0.7492
vn -0.1455 0.6946 -0.7045
vn 0.4563 0.7149 -0.5297
vn -0.2394 0.9709 0.0000
vn 0.3856 0.9226 0.0000
vn -0.1455 0.6946 0.7045
vn 0.0815 0.0277 0.9963
vn 0.3085 -0.6392 0.7045
vn 0.7977 -0.2881 0.5297
usemtl Barrel
s 1
f 7/1/1 8/2/2 16/3/3 15/4/4
f 12/5/5 13/6/6 17/7/7
f 8/2/2 2/8/8 10/9/9 16/3/3
f 2/8/8 1/10/10 9/11/11 10/9/9
f 1/10/10 3/12/12 11/13/13 9/11/11
f 3/12/12 4/14/14 12/5/5 11/13/13
f 4/14/14 5/15/15 13/6/6 12/5/5
f 5/15/15 6/16/16 14/17/17 13/6/6
f 6/16/16 7/1/1 15/4/4 14/17/17
f 9/11/11 11/13/13 17/7/7
f 15/4/4 16/3/3 17/7/7
f 13/6/6 14/17/17 17/7/7
f 11/13/13 12/5/5 17/7/7
f 10/9/9 9/11/11 17/7/7
f 16/3/3 10/9/9 17/7/7
f 14/17/17 15/4/4 17/7/7
o Circle
v 0.000000 0.000000 -0.249387
v -0.176343 0.000000 -0.176343
v -0.249387 0.000000 0.000000
v -0.176343 0.000000 0.176343
v 0.000000 0.000000 0.249387
v 0.176343 0.000000 0.176343
v 0.249387 0.000000 -0.000000
v 0.176343 0.000000 -0.176343
v 0.000000 0.795245 -0.249387
v -0.176343 0.795245 -0.176343
v -0.249387 0.795245 0.000000
v -0.176343 0.795245 0.176343
v 0.000000 0.795245 0.249387
v 0.176343 0.795245 0.176343
v 0.249387 0.795245 -0.000000
v 0.176343 0.795245 -0.176343
v 0.200749 0.159049 0.200749
v 0.209959 0.308180 0.209959
v 0.209959 0.487066 0.209959
v 0.200749 0.636196 0.200749
v 0.283902 0.636196 -0.000000
v 0.296927 0.487066 -0.000000
v 0.296927 0.308180 -0.000000
v 0.283902 0.159049 -0.000000
v -0.200749 0.159049 0.200749
v -0.209959 0.308180 0.209959
v -0.209959 0.487066 0.209959
v -0.200749 0.636196 0.200749
v 0.000000 0.636196 0.283902
v 0.000000 0.487066 0.296927
v 0.000000 0.308180 0.296927
v 0.000000 0.159049 0.283902
v -0.200749 0.159049 -0.200749
v -0.209959 0.308180 -0.209959
v -0.209959 0.487066 -0.209959
v -0.200749 0.636196 -0.200749
v -0.283902 0.636196 0.000000
v -0.296927 0.487066 0.000000
v -0.296927 0.308180 0.000000
v -0.283902 0.159049 0.000000
v 0.200749 0.636196 -0.200749
v 0.209959 0.487066 -0.209959
v 0.209959 0.308180 -0.209959
v 0.200749 0.159049 -0.200749
v -0.000000 0.159049 -0.283902
v -0.000000 0.308180 -0.296927
v -0.000000 0.487066 -0.296927
v -0.000000 0.636196 -0.283902
v -0.149782 0.000000 -0.149782
v 0.000000 0.000000 -0.211824
v -0.211824 0.000000 0.000000
v -0.149782 0.000000 0.149782
v 0.000000 0.000000 0.211824
v 0.149782 0.000000 0.149782
v 0.211824 0.000000 -0.000000
v 0.149782 0.000000 -0.149782
v -0.149782 0.795245 -0.149782
v 0.000000 0.795245 -0.211824
v -0.211824 0.795245 0.000000
v -0.149782 0.795245 0.149782
v 0.000000 0.795245 0.211824
v 0.149782 0.795245 0.149782
v 0.211824 0.795245 -0.000000
v 0.149782 0.795245 -0.149782
v -0.148161 0.031606 -0.148161
v 0.000000 0.031606 -0.209532
v -0.209532 0.031606 0.000000
v -0.148161 0.031606 0.148161
v 0.000000 0.031606 0.209532
v 0.148161 0.031606 0.148161
v 0.209532 0.031606 -0.000000
v 0.148161 0.031606 -0.148161
v -0.148161 0.763639 -0.148161
v 0.000000 0.763639 -0.209532
v -0.209532 0.763639 0.000000
v -0.148161 0.763639 0.148161
v 0.000000 0.763639 0.209532
v 0.148161 0.763639 0.148161
v 0.209532 0.763639 -0.000000
v 0.148161 0.763639 -0.148161
v 0.000000 0.543318 -0.266552
v 0.000000 0.031606 -0.000000
v -0.148161 0.032423 -0.148161
v 0.000000 0.032423 -0.209532
v -0.209532 0.032423 0.000000
v -0.148161 0.032423 0.148161
v 0.000000 0.032423 0.209532
v 0.148161 0.032423 0.148161
v 0.209532 0.032423 -0.000000
v 0.148161 0.032423 -0.148161
v 0.188480 0.543318 -0.188480
v -0.188480 0.543318 -0.188480
v -0.266552 0.543318 0.000000
v -0.188480 0.543318 0.188480
v 0.000000 0.543318 0.266552
v 0.188480 0.543318 0.188480
v 0.266552 0.543318 -0.000000
v 0.188480 0.308906 -0.188480
v -0.266552 0.308906 0.000000
v 0.000000 0.308906 0.266552
v 0.266552 0.308906 -0.000000
v 0.000000 0.308906 -0.266552
v -0.188480 0.308906 -0.188480
v -0.188480 0.308906 0.188480
v 0.188480 0.308906 0.188480
vt 0.784863 0.286922
vt 0.980406 0.286922
vt 0.980406 0.352335
vt 0.784863 0.352335
vt 0.784863 0.417748
vt 0.980406 0.417748
vt 0.980406 0.483161
vt 0.784863 0.483161
vt 0.784863 0.025270
vt 0.980406 0.025270
vt 0.980406 0.090683
vt 0.784863 0.090683
vt 0.784863 0.221509
vt 0.980406 0.221509
vt 0.980406 0.548574
vt 0.784863 0.548574
vt 0.980406 0.156096
vt 0.784863 0.156096
vt 0.014672 0.156096
vt 0.210215 0.156096
vt 0.210215 0.221509
vt 0.014672 0.221509
vt 0.390075 0.156096
vt 0.390075 0.221509
vt 0.605003 0.156096
vt 0.605003 0.221509
vt 0.014672 0.090683
vt 0.210215 0.090683
vt 0.390075 0.090683
vt 0.605003 0.090683
vt 0.014672 0.483161
vt 0.210215 0.483161
vt 0.210215 0.548574
vt 0.014672 0.548574
vt 0.390075 0.483161
vt 0.390075 0.548574
vt 0.605003 0.483161
vt 0.605003 0.548574
vt 0.014672 0.352335
vt 0.210215 0.352335
vt 0.210215 0.417748
vt 0.014672 0.417748
vt 0.390075 0.352335
vt 0.390075 0.417748
vt 0.605003 0.352335
vt 0.605003 0.417748
vt 0.210215 0.286922
vt 0.014672 0.286922
vt 0.390075 0.286922
vt 0.605003 0.286922
vt 0.014672 0.025270
vt 0.210215 0.025270
vt 0.390075 0.025270
vt 0.605003 0.025270
vt 0.427180 0.697566
vt 0.427180 0.872453
vt 0.396938 0.859212
vt 0.396433 0.709588
vt 0.303517 0.573903
vt 0.427180 0.697566
vt 0.396433 0.709588
vt 0.290276 0.604145
vt 0.140652 0.604649
vt 0.280413 0.632080
vt 0.153431 0.631378
vt 0.369002 0.849348
vt 0.369705 0.722367
vt 0.128631 0.573902
vt 0.004967 0.697566
vt 0.035209 0.710807
vt 0.303517 0.996116
vt 0.291495 0.965369
vt 0.128630 0.996116
vt 0.141871 0.965874
vt 0.004967 0.872452
vt 0.035714 0.860431
vt 0.004967 0.872452
vt 0.035714 0.860431
vt 0.128630 0.996116
vt 0.141871 0.965874
vt 0.004967 0.697566
vt 0.035209 0.710807
vt 0.303517 0.996116
vt 0.291495 0.965369
vt 0.128630 0.573903
vt 0.140652 0.604649
vt 0.427180 0.872453
vt 0.396938 0.859212
vt 0.303517 0.573903
vt 0.290276 0.604145
vt 0.063145 0.720670
vt 0.216074 0.785009
vt 0.413844 0.351584
vt 0.413844 0.416121
vt 0.160156 0.416121
vt 0.160156 0.351584
vt 0.278716 0.938641
vt 0.151734 0.937938
vt 0.062442 0.847651
vt 0.062442 0.847651
vt 0.151734 0.937938
vt 0.063145 0.720670
vt 0.278716 0.938641
vt 0.153431 0.631378
vt 0.369002 0.849348
vt 0.280413 0.632080
vt 0.369705 0.722367
vt 0.413844 0.480658
vt 0.160156 0.480658
vt 0.413844 0.028901
vt 0.413844 0.093438
vt 0.160156 0.093438
vt 0.160156 0.028901
vt 0.413844 0.157975
vt 0.413844 0.222511
vt 0.160156 0.222511
vt 0.160156 0.157975
vt 0.413844 0.287048
vt 0.160156 0.287048
vt 0.413844 0.545194
vt 0.160156 0.545194
vt 0.829009 0.222511
vt 0.829009 0.287048
vt 0.624496 0.287048
vt 0.624496 0.222511
vt 0.829009 0.093438
vt 0.829009 0.157975
vt 0.624496 0.157975
vt 0.624496 0.093438
vt 0.829009 0.480658
vt 0.829009 0.545194
vt 0.624496 0.545194
vt 0.624496 0.480658
vt 0.829009 0.351584
vt 0.624496 0.351584
vt 0.829009 0.028901
vt 0.624496 0.028901
vt 0.829009 0.416121
vt 0.624496 0.416121
vn 0.9890 0.1476 0.0000
vn 0.7056 0.7086 0.0000
vn 0.4989 0.7086 0.4989
vn 0.6993 0.1476 0.6993
vn 0.0000 0.1476 0.9890
vn 0.0000 0.7086 0.7056
vn -0.4989 0.7086 0.4989
vn -0.6993 0.1476 0.6993
vn -0.9890 0.1476 0.0000
vn -0.7056 0.7086 0.0000
vn -0.4989 0.7086 -0.4989
vn -0.6993 0.1476 -0.6993
vn 0.6993 0.1476 -0.6993
vn 0.4989 0.7086 -0.4989
vn 0.0000 0.7086 -0.7056
vn 0.0000 0.1476 -0.9890
vn 0.0000 -0.7086 -0.7056
vn 0.0000 -0.1476 -0.9890
vn 0.6993 -0.1476 -0.6993
vn 0.4989 -0.7086 -0.4989
vn 0.0000 -0.0431 -0.9991
vn 0.7064 -0.0431 -0.7064
vn 0.0000 0.0431 -0.9991
vn 0.7064 0.0431 -0.7064
vn -0.4989 -0.7086 -0.4989
vn -0.6993 -0.1476 -0.6993
vn -0.7064 -0.0431 -0.7064
vn -0.7064 0.0431 -0.7064
vn -0.4989 -0.7086 0.4989
vn -0.6993 -0.1476 0.6993
vn -0.9890 -0.1476 0.0000
vn -0.7056 -0.7086 0.0000
vn -0.7064 -0.0431 0.7064
vn -0.9991 -0.0431 0.0000
vn -0.7064 0.0431 0.7064
vn -0.9991 0.0431 0.0000
vn 0.4989 -0.7086 0.4989
vn 0.6993 -0.1476 0.6993
vn 0.0000 -0.1476 0.9890
vn 0.0000 -0.7086 0.7056
vn 0.7064 -0.0431 0.7064
vn 0.0000 -0.0431 0.9991
vn 0.7064 0.0431 0.7064
vn 0.0000 0.0431 0.9991
vn 0.9890 -0.1476 0.0000
vn 0.7056 -0.7086 0.0000
vn 0.9991 -0.0431 0.0000
vn 0.9991 0.0431 0.0000
vn -0.4009 0.8237 0.4009
vn -0.5669 0.8237 0.0000
vn -0.5669 -0.8237 0.0000
vn -0.4009 -0.8237 0.4009
vn 0.0000 -0.8237 0.5669
vn -0.5329 -0.6572 0.5329
vn 0.0000 -0.6572 0.7537
vn -0.7040 -0.0941 0.7040
vn -0.9955 -0.0941 0.0000
vn 0.4009 -0.8237 0.4009
vn 0.0000 0.8237 0.5669
vn 0.4009 0.8237 0.4009
vn 0.5669 -0.8237 0.0000
vn 0.5669 0.8237 0.0000
vn 0.4009 -0.8237 -0.4009
vn 0.4009 0.8237 -0.4009
vn 0.0000 -0.8237 -0.5669
vn 0.0000 0.8237 -0.5669
vn -0.4009 -0.8237 -0.4009
vn -0.4009 0.8237 -0.4009
vn 0.5329 -0.6572 0.5329
vn 0.0000 -1.0000 0.0000
vn -0.7036 0.0991 0.7036
vn 0.0000 0.0991 0.9951
vn 0.0000 0.2020 0.9794
vn -0.6925 0.2020 0.6925
vn 0.0000 -0.0941 0.9955
vn 0.7040 -0.0941 0.7040
vn 0.7537 -0.6572 0.0000
vn 0.9955 -0.0941 0.0000
vn 0.5329 -0.6572 -0.5329
vn 0.7040 -0.0941 -0.7040
vn 0.0000 -0.6572 -0.7537
vn 0.0000 -0.0941 -0.9955
vn -0.5329 -0.6572 -0.5329
vn -0.7040 -0.0941 -0.7040
vn -0.7537 -0.6572 0.0000
vn 0.7036 0.0991 0.7036
vn 0.6925 0.2020 0.6925
vn 0.9951 0.0991 0.0000
vn 0.7036 0.0991 -0.7036
vn 0.6925 0.2020 -0.6925
vn 0.9794 0.2020 0.0000
vn 0.0000 0.0991 -0.9951
vn -0.7036 0.0991 -0.7036
vn -0.6925 0.2020 -0.6925
vn 0.0000 0.2020 -0.9794
vn -0.9951 0.0991 0.0000
vn -0.9794 0.2020 0.0000
vn -0.9924 -0.1226 0.0000
vn -0.7017 -0.1226 -0.7017
vn 0.0000 -0.1226 -0.9924
vn 0.7017 -0.1226 -0.7017
vn 0.9924 -0.1226 0.0000
vn 0.7017 -0.1226 0.7017
vn -0.7017 -0.1226 0.7017
vn 0.0000 -0.1226 0.9924
usemtl Barrel
s 1
f 38/18/18 32/19/19 31/20/20 37/21/21
f 46/22/22 30/23/23 29/24/24 45/25/25
f 54/26/26 28/27/27 27/28/28 53/29/29
f 58/30/30 33/31/31 32/19/19 38/18/18
f 37/21/21 31/20/20 30/23/23 46/22/22
f 45/25/25 29/24/24 28/32/27 54/33/26
f 53/29/29 27/28/28 26/34/32 65/35/33
f 65/35/33 26/34/32 33/31/31 58/30/30
f 18/36/34 62/37/35 61/38/36 25/39/37
f 62/37/35 63/40/38 60/41/39 61/38/36
f 63/40/38 64/42/40 59/43/41 60/41/39
f 64/42/40 65/35/33 58/30/30 59/43/41
f 19/44/42 50/45/43 62/37/35 18/36/34
f 50/45/43 51/46/44 63/40/38 62/37/35
f 51/46/44 52/47/45 64/42/40 63/40/38
f 52/47/45 53/29/29 65/35/33 64/42/40
f 21/48/46 42/49/47 57/50/48 20/51/49
f 42/49/47 43/52/50 56/53/51 57/50/48
f 43/52/50 44/54/52 55/55/53 56/53/51
f 44/54/52 45/25/25 54/33/26 55/55/53
f 23/56/54 34/57/55 49/58/56 22/59/57
f 34/57/55 35/60/58 48/61/59 49/58/56
f 35/60/58 36/62/60 47/63/61 48/61/59
f 36/62/60 37/21/21 46/22/22 47/63/61
f 25/39/37 61/38/36 41/64/62 24/65/63
f 61/38/36 60/41/39 40/66/64 41/64/62
f 60/41/39 59/43/41 39/67/65 40/66/64
f 59/43/41 58/30/30 38/18/18 39/67/65
f 20/68/49 57/69/48 50/45/43 19/44/42
f 57/69/48 56/70/51 51/46/44 50/45/43
f 56/70/51 55/71/53 52/47/45 51/46/44
f 55/71/53 54/26/26 53/29/29 52/47/45
f 22/59/57 49/58/56 42/49/47 21/48/46
f 49/58/56 48/61/59 43/52/50 42/49/47
f 48/61/59 47/63/61 44/54/52 43/52/50
f 47/63/61 46/22/22 45/25/25 44/54/52
f 24/65/63 41/64/62 34/57/55 23/56/54
f 41/64/62 40/66/64 35/60/58 34/57/55
f 40/66/64 39/67/65 36/62/60 35/60/58
f 39/67/65 38/18/18 37/21/21 36/62/60
f 32/72/19 33/73/31 81/74/66 80/75/67
f 25/76/37 24/77/63 72/78/68 73/79/69
f 67/80/70 73/79/69 89/81/71 83/82/72
f 80/75/67 81/74/66 97/83/73 96/84/74
f 18/85/34 25/76/37 73/79/69 67/80/70
f 19/86/42 18/85/34 67/80/70 66/87/75
f 33/73/31 26/88/32 75/89/76 81/74/66
f 26/88/32 27/90/28 74/91/77 75/89/76
f 20/92/49 19/86/42 66/87/75 68/93/78
f 27/90/28 28/94/27 76/95/79 74/91/77
f 21/96/46 20/92/49 68/93/78 69/97/80
f 28/94/27 29/98/24 77/99/81 76/95/79
f 22/100/57 21/96/46 69/97/80 70/101/82
f 29/98/24 30/102/23 78/103/83 77/99/81
f 23/104/54 22/100/57 70/101/82 71/105/84
f 30/102/23 31/106/20 79/107/85 78/103/83
f 24/77/63 23/104/54 71/105/84 72/78/68
f 31/106/20 32/72/19 80/75/67 79/107/85
f 82/108/86 83/82/72 99/109/87
f 115/110/88 119/111/89 101/112/90 107/113/91
f 66/87/75 67/80/70 83/82/72 82/108/86
f 81/74/66 75/89/76 91/114/92 97/83/73
f 75/89/76 74/91/77 90/115/93 91/114/92
f 68/93/78 66/87/75 82/108/86 84/116/94
f 74/91/77 76/95/79 92/117/95 90/115/93
f 69/97/80 68/93/78 84/116/94 85/118/96
f 76/95/79 77/99/81 93/119/97 92/117/95
f 70/101/82 69/97/80 85/118/96 86/120/98
f 77/99/81 78/103/83 94/121/99 93/119/97
f 71/105/84 70/101/82 86/120/98 87/122/100
f 78/103/83 79/107/85 95/123/101 94/121/99
f 72/78/68 71/105/84 87/122/100 88/124/102
f 79/107/85 80/75/67 96/84/74 95/123/101
f 73/79/69 72/78/68 88/124/102 89/81/71
f 89/81/71 88/124/102 99/109/87
f 119/111/89 120/125/103 100/126/104 101/112/90
f 116/127/105 121/128/106 103/129/107 102/130/108
f 117/131/109 122/132/110 105/133/111 104/134/112
f 118/135/113 115/110/88 107/113/91 106/136/114
f 120/125/103 116/137/105 102/138/108 100/126/104
f 121/128/106 117/131/109 104/134/112 103/129/107
f 122/132/110 118/135/113 106/136/114 105/133/111
f 84/116/94 82/108/86 99/109/87
f 86/120/98 85/118/96 99/109/87
f 88/124/102 87/122/100 99/109/87
f 83/82/72 89/81/71 99/109/87
f 87/122/100 86/120/98 99/109/87
f 85/118/96 84/116/94 99/109/87
f 95/139/101 96/140/74 114/141/115 113/142/116
f 93/143/97 94/144/99 112/145/117 111/146/118
f 90/147/93 92/148/95 110/149/119 109/150/120
f 96/140/74 97/151/73 108/152/121 114/141/115
f 94/144/99 95/139/101 113/142/116 112/145/117
f 92/153/95 93/143/97 111/146/118 110/154/119
f 91/155/92 90/147/93 109/150/120 98/156/122
f 97/151/73 91/155/92 98/156/122 108/152/121
f 113/142/116 114/141/115 118/135/113 122/132/110
f 111/146/118 112/145/117 117/131/109 121/128/106
f 109/150/120 110/149/119 116/137/105 120/125/103
f 114/141/115 108/152/121 115/110/88 118/135/113
f 112/145/117 113/142/116 122/132/110 117/131/109
f 110/154/119 111/146/118 121/128/106 116/127/105
f 98/156/122 109/150/120 120/125/103 119/111/89
f 108/152/121 98/156/122 119/111/89 115/110/88
