# Blender v2.79 (sub 0) OBJ File: 'crate02.blend'
# www.blender.org
mtllib crate01_broken.mtl
o Cube.002
v -0.352000 0.000942 0.352000
v -0.352000 0.704942 0.212477
v -0.352000 0.000942 -0.352000
v -0.352000 0.491681 -0.250869
v 0.352000 0.000942 0.352000
v 0.352000 0.704942 0.352000
v 0.352000 0.000942 -0.352000
v 0.352000 0.704942 -0.352000
v -0.352000 0.237187 0.109833
v 0.085247 0.222111 -0.385364
v 0.352000 0.000942 0.160992
v 0.352000 0.000942 0.286184
v 0.352000 0.704942 0.279155
v 0.352000 0.000942 0.352000
v 0.352000 0.704942 0.352000
v 0.352000 0.000942 -0.275058
v 0.352000 0.000942 -0.139999
v 0.352000 0.000942 0.023142
v -0.054585 0.079575 -0.004080
v 0.039958 0.056063 0.052872
v 0.147408 0.167329 -0.279313
v 0.220769 0.149820 -0.237234
v -0.221757 0.080895 0.295715
v -0.127206 0.057048 0.355990
v 0.352000 0.076634 -0.275361
v 0.352000 0.704942 0.343421
v 0.352000 0.637917 0.279824
v 0.352000 0.004446 0.352000
v 0.352000 0.070307 0.285491
v -0.598432 0.261830 0.090593
v -0.598989 0.257977 0.082948
v -0.536521 0.221956 0.025180
v 0.097615 0.183834 0.079154
v 0.027851 0.161301 0.020961
v -0.203175 0.044019 0.022688
v -0.193367 0.074328 0.083936
v -0.367547 0.225504 0.023917
v -0.362885 0.246542 0.086722
v 0.125117 0.027069 -0.577607
v -0.551288 0.158365 -0.433200
v -0.475536 0.153730 -0.373654
v 0.069629 0.048216 -0.487737
v 0.352000 0.327841 -0.138703
v 0.352000 0.237120 -0.352000
v 0.352000 0.318846 0.018698
v 0.352000 0.322457 0.157781
v 0.352000 0.267743 -0.276124
v 0.352000 0.323561 0.282963
v 0.352000 0.326295 0.249887
v 0.352000 0.491713 0.222880
v 0.352000 0.322919 0.116540
v 0.352000 0.424196 0.094596
v 0.352000 0.424196 0.060837
v 0.352000 0.321231 -0.045503
v 0.352000 0.564295 -0.096141
v 0.352000 0.339799 -0.200794
v -0.132347 0.704942 0.256009
v -0.145325 0.000942 0.352000
v -0.146377 0.484115 0.256242
v 0.018912 0.000942 0.352000
v 0.029154 0.704942 0.288017
v 0.045789 0.324032 0.287968
v -0.352000 0.000942 0.352000
v -0.352000 0.000942 -0.352000
v 0.352000 0.000942 -0.352000
v 0.352000 0.000942 0.352000
vt 0.000100 0.335513
vt 0.500000 0.500000
vt 0.000100 0.999900
vt 0.999900 0.000100
vt 0.891059 0.107595
vt 0.890630 0.000100
vt 0.334494 0.457362
vt 0.275924 0.456706
vt 0.271364 0.000100
vt 0.467134 0.000100
vt 0.000100 0.999900
vt 0.000100 0.000100
vt 0.506189 0.506189
vt 0.999900 0.999900
vt 0.999900 0.000100
vt 0.999900 0.999900
vt 0.000100 0.000100
vt 0.093570 0.000100
vt 0.000100 0.005075
vt 0.000100 0.000100
vt 0.445185 0.554815
vt 0.203623 0.100877
vt 0.556558 0.443442
vt 0.696982 0.464351
vt 0.698822 0.000100
vt 0.145118 0.462156
vt 0.094554 0.098610
vt 0.996093 0.996094
vt 0.684869 0.315131
vt 0.996093 0.003906
vt 0.564622 0.454965
vt 0.473446 0.451578
vt 0.686524 0.003906
vt 0.999900 0.335513
vt 0.892143 0.379003
vt 0.890911 0.786405
vt 0.094554 0.098610
vt 0.000100 0.420961
vt 0.000100 0.005075
vt 0.012283 0.999900
vt 0.102602 0.904712
vt 0.103552 0.999900
vt 0.000100 0.999900
vt 0.100192 0.663365
vt 0.000100 0.663245
vt 0.102602 0.904712
vt 0.012283 0.999900
vt 0.000100 0.999900
vt 0.891059 0.107595
vt 0.999900 0.999900
vt 0.894275 0.912655
vt 0.459255 0.540744
vt 0.473347 0.996094
vt 0.003906 0.996094
vt 0.003906 0.003906
vt 0.458912 0.003906
vt 0.999900 0.000100
vt 0.000100 0.999900
vt 0.000100 0.000100
vt 0.413601 0.601192
vt 0.365657 0.601192
vt 0.785162 0.481334
vt 0.183473 0.697079
vt 0.098145 0.458274
vt 0.636537 0.800157
vt 0.116591 0.184206
vt 0.704814 0.996094
vt 0.780667 0.902259
vt 0.097848 0.428589
vt 0.999900 0.000100
vt 0.999900 0.999900
vn 0.1241 0.0000 -0.9923
vn 1.0000 0.0000 0.0000
vn -1.0000 0.0000 0.0000
vn -0.1741 0.1988 -0.9645
vn 0.0000 -0.1492 -0.9888
vn 0.0371 0.9439 0.3281
vn -0.0000 0.1944 0.9809
vn -0.1944 0.0134 0.9808
vn 0.1840 0.9780 0.0983
vn -0.3508 0.9346 0.0586
vn 0.6825 0.6763 -0.2772
vn 0.0919 0.8865 -0.4534
vn 0.1621 0.9782 -0.1301
vn -0.1944 -0.0086 0.9809
vn 0.0000 -1.0000 0.0000
vn 0.0487 0.8727 -0.4859
vn -0.0223 0.9485 -0.3161
vn -0.4269 0.8358 -0.3452
vn 0.6741 0.6134 -0.4115
vn -0.2047 0.0000 0.9788
usemtl Crate
s off
f 44/1/1 10/2/1 8/3/1
f 7/4/2 25/5/2 16/6/2
f 51/7/2 46/8/2 11/9/2
f 11/9/2 18/10/2 51/7/2
f 1/11/3 2/12/3 9/13/3
f 9/13/3 3/14/3 1/11/3
f 3/15/4 4/16/4 10/2/4
f 7/17/5 3/15/5 10/2/5
f 12/18/2 28/19/2 14/20/2
f 20/21/6 21/22/6 19/23/6
f 43/24/2 17/25/2 25/5/2
f 46/8/2 49/26/2 29/27/2
f 1/28/7 59/29/7 2/30/7
f 54/31/2 45/32/2 18/10/2
f 2/30/8 59/29/8 57/33/8
f 25/5/2 44/34/2 47/35/2
f 23/36/9 20/21/9 19/23/9
f 34/37/10 36/38/10 33/39/10
f 26/40/2 27/41/2 13/42/2
f 27/41/2 26/40/2 15/43/2
f 36/38/11 37/44/11 38/45/11
f 32/46/12 31/47/12 30/48/12
f 42/49/13 40/50/13 41/51/13
f 62/52/7 60/53/7 5/54/7
f 62/52/14 6/55/14 61/56/14
f 65/57/15 63/58/15 64/59/15
f 18/10/2 45/32/2 51/7/2
f 45/32/2 53/60/2 51/7/2
f 53/60/2 52/61/2 51/7/2
f 17/25/2 16/6/2 25/5/2
f 25/5/2 47/35/2 43/24/2
f 47/35/2 56/62/2 43/24/2
f 12/18/2 11/9/2 29/27/2
f 11/9/2 46/8/2 29/27/2
f 46/8/2 50/63/2 49/26/2
f 49/26/2 48/64/2 29/27/2
f 18/10/2 17/25/2 54/31/2
f 17/25/2 43/24/2 54/31/2
f 43/24/2 55/65/2 54/31/2
f 15/43/2 28/19/2 48/64/2
f 28/19/2 29/27/2 48/64/2
f 48/64/2 27/41/2 15/43/2
f 30/48/16 38/45/16 32/46/16
f 38/45/17 37/44/17 32/46/17
f 44/1/1 7/17/1 10/2/1
f 12/18/2 29/27/2 28/19/2
f 20/21/6 22/66/6 21/22/6
f 1/28/7 58/67/7 59/29/7
f 25/5/2 7/4/2 44/34/2
f 23/36/9 24/68/9 20/21/9
f 34/37/18 35/69/18 36/38/18
f 36/38/19 35/69/19 37/44/19
f 42/49/13 39/70/13 40/50/13
f 62/52/20 5/54/20 6/55/20
f 65/57/15 66/71/15 63/58/15
