# Blender v2.79 (sub 0) OBJ File: 'crate02.blend'
# www.blender.org
mtllib crate03.mtl
o Crate_polySurface108_0.002
v -0.296328 0.002441 0.287775
v -0.296328 0.002441 -0.287775
v -0.296328 0.059499 -0.287775
v -0.296328 0.059499 0.287775
v 0.340891 0.639660 -0.287775
v 0.340891 0.639660 0.287776
v 0.283832 0.639660 0.287776
v 0.283832 0.639660 -0.287775
v -0.357995 0.639660 -0.287775
v -0.357995 0.064108 -0.287775
v -0.300937 0.064108 -0.287775
v -0.300937 0.639660 -0.287775
v 0.279223 0.701327 -0.287775
v -0.296328 0.701327 -0.287775
v -0.296328 0.644269 -0.287775
v 0.279223 0.644269 -0.287775
v -0.296328 0.064108 0.349443
v 0.279223 0.064108 0.349443
v 0.279223 0.064108 0.292385
v -0.296328 0.064108 0.292385
v -0.296328 0.639660 -0.349443
v 0.279223 0.639660 -0.349443
v 0.279223 0.639660 -0.292384
v -0.296328 0.639660 -0.292384
v -0.357995 0.002441 0.349443
v -0.357995 0.701327 0.349443
v -0.357995 0.639660 0.287776
v -0.357995 0.064108 0.287775
v -0.357995 0.701327 -0.349443
v -0.357995 0.002441 -0.349443
v -0.296328 0.064108 -0.349443
v 0.340891 0.701327 -0.349443
v 0.340891 0.002441 -0.349443
v 0.279223 0.064108 -0.349443
v 0.340891 0.064108 -0.287775
v 0.340891 0.701327 0.349443
v 0.340891 0.002441 0.349443
v 0.340891 0.064108 0.287775
v 0.279223 0.639660 0.349443
v -0.296328 0.639660 0.349443
v 0.279223 0.002441 -0.287775
v 0.279223 0.002441 0.287775
v -0.296328 0.701327 0.287776
v 0.279223 0.701327 0.287776
v -0.300937 0.064108 0.287775
v -0.300937 0.639660 0.287776
v -0.296328 0.064108 -0.292385
v 0.279223 0.064108 -0.292385
v 0.283832 0.064108 -0.287775
v 0.283832 0.064108 0.287775
v 0.279223 0.639660 0.292385
v -0.296328 0.639660 0.292385
v 0.279223 0.059499 -0.287775
v 0.279223 0.059499 0.287775
v -0.296328 0.644269 0.287776
v 0.279223 0.644269 0.287776
vt 0.465018 0.540015
vt 0.089845 0.582935
vt 0.050943 0.540015
vt 0.465018 0.540015
vt 0.089845 0.582935
vt 0.050943 0.540015
vt 0.465018 0.540015
vt 0.089845 0.582935
vt 0.050943 0.540015
vt 0.465018 0.540015
vt 0.089845 0.582935
vt 0.050943 0.540015
vt 0.465018 0.540015
vt 0.089845 0.582935
vt 0.050943 0.540015
vt 0.465018 0.540015
vt 0.089845 0.582935
vt 0.050943 0.540015
vt 0.498832 0.986005
vt 0.465018 0.540015
vt 0.498832 0.506049
vt 0.017129 0.986005
vt 0.465018 0.952039
vt 0.050943 0.540015
vt 0.050943 0.952039
vt 0.017129 0.506049
vt 0.498832 0.986005
vt 0.465018 0.540015
vt 0.498832 0.506049
vt 0.050943 0.952039
vt 0.465018 0.952039
vt 0.017129 0.986005
vt 0.050943 0.540015
vt 0.017129 0.506049
vt 0.498832 0.986005
vt 0.465018 0.540015
vt 0.498832 0.506049
vt 0.050943 0.952039
vt 0.465018 0.952039
vt 0.017129 0.986005
vt 0.050943 0.540015
vt 0.017129 0.506049
vt 0.498832 0.986005
vt 0.498832 0.506049
vt 0.017129 0.986005
vt 0.465018 0.952039
vt 0.050943 0.952039
vt 0.017129 0.506049
vt 0.465018 0.952039
vt 0.017129 0.986005
vt 0.498832 0.986005
vt 0.050943 0.952039
vt 0.465018 0.540015
vt 0.498832 0.506049
vt 0.465018 0.952039
vt 0.050943 0.540015
vt 0.050943 0.952039
vt 0.017129 0.506049
vt 0.426117 0.916317
vt 0.089845 0.582935
vt 0.426117 0.582935
vt 0.426117 0.916317
vt 0.089845 0.582935
vt 0.426117 0.582935
vt 0.426117 0.916317
vt 0.089845 0.582935
vt 0.426117 0.582935
vt 0.426117 0.916317
vt 0.426117 0.582935
vt 0.426117 0.916317
vt 0.426117 0.582935
vt 0.426117 0.916317
vt 0.089845 0.582935
vt 0.426117 0.582935
vt 0.465018 0.952039
vt 0.089845 0.916317
vt 0.426117 0.916317
vt 0.050943 0.952039
vt 0.426117 0.916317
vt 0.465018 0.952039
vt 0.050943 0.952039
vt 0.426117 0.916317
vt 0.465018 0.952039
vt 0.089845 0.916317
vt 0.089845 0.916317
vt 0.050943 0.540015
vt 0.089845 0.916317
vt 0.050943 0.952039
vt 0.426117 0.582935
vt 0.465018 0.540015
vt 0.050943 0.952039
vt 0.426117 0.916317
vt 0.465018 0.952039
vt 0.089845 0.916317
vt 0.050943 0.952039
vt 0.050943 0.540015
vt 0.089845 0.916317
vt 0.050943 0.952039
vt 0.089845 0.916317
vt 0.050943 0.952039
vt 0.465018 0.952039
vt 0.426117 0.582935
vt 0.465018 0.540015
vt 0.465018 0.952039
vt 0.426117 0.582935
vt 0.465018 0.540015
vt 0.465018 0.952039
vt 0.426117 0.582935
vt 0.465018 0.540015
vt 0.426117 0.582935
vt 0.426117 0.582935
vt 0.426117 0.582935
vt 0.426117 0.582935
vt 0.089845 0.916317
vt 0.089845 0.916317
vt 0.089845 0.916317
vt 0.089845 0.916317
vt 0.050943 0.952039
vt 0.089845 0.916317
vt 0.089845 0.916317
vt 0.089845 0.582935
vt 0.089845 0.916317
vt 0.089845 0.582935
vt 0.426117 0.916317
vt 0.426117 0.916317
vt 0.426117 0.916317
vn 1.0000 0.0000 0.0000
vn 0.0000 -1.0000 -0.0000
vn 0.0000 -0.0000 1.0000
vn 0.0000 1.0000 0.0000
vn -1.0000 -0.0000 0.0000
vn 0.0000 0.0000 -1.0000
usemtl None
s 1
f 2/1/1 4/2/1 1/3/1
f 6/4/2 8/5/2 5/6/2
f 10/7/3 12/8/3 9/9/3
f 14/10/3 16/11/3 13/12/3
f 18/13/4 20/14/4 17/15/4
f 22/16/2 24/17/2 21/18/2
f 26/19/5 28/20/5 25/21/5
f 29/22/5 27/23/5 26/19/5
f 29/22/5 10/24/5 9/25/5
f 25/21/5 10/24/5 30/26/5
f 29/27/6 31/28/6 30/29/6
f 29/27/6 22/30/6 21/31/6
f 32/32/6 34/33/6 22/30/6
f 30/29/6 34/33/6 33/34/6
f 32/35/1 35/36/1 33/37/1
f 32/35/1 6/38/1 5/39/1
f 36/40/1 38/41/1 6/38/1
f 33/37/1 38/41/1 37/42/1
f 36/43/3 18/13/3 37/44/3
f 26/45/3 39/46/3 36/43/3
f 26/45/3 17/15/3 40/47/3
f 25/48/3 18/13/3 17/15/3
f 30/29/2 41/49/2 2/1/2
f 37/50/2 41/49/2 33/51/2
f 25/48/2 42/52/2 37/50/2
f 30/29/2 1/3/2 25/48/2
f 29/27/4 13/53/4 32/54/4
f 26/45/4 14/55/4 29/27/4
f 26/45/4 44/56/4 43/57/4
f 32/54/4 44/56/4 36/58/4
f 46/59/5 11/60/5 45/61/5
f 24/62/6 48/63/6 47/64/6
f 8/65/1 50/66/1 49/67/1
f 51/68/3 20/14/3 19/69/3
f 53/70/2 4/2/2 3/71/2
f 15/72/4 56/73/4 16/74/4
f 22/75/5 48/76/5 23/77/5
f 40/47/2 51/68/2 39/46/2
f 13/78/5 56/79/5 44/80/5
f 38/81/6 7/82/6 6/83/6
f 41/49/5 54/84/5 53/70/5
f 17/15/1 52/85/1 40/47/1
f 43/86/1 15/87/1 14/88/1
f 1/3/6 54/84/6 42/52/6
f 44/80/6 55/89/6 43/90/6
f 27/91/6 45/92/6 28/93/6
f 21/18/1 47/94/1 31/95/1
f 28/96/4 11/97/4 10/98/4
f 5/6/3 49/99/3 35/100/3
f 31/101/4 48/102/4 34/103/4
f 18/13/5 51/68/5 19/69/5
f 9/104/2 46/105/2 27/106/2
f 35/107/4 50/108/4 38/109/4
f 41/49/3 3/71/3 2/1/3
f 2/1/1 3/71/1 4/2/1
f 6/4/2 7/110/2 8/5/2
f 10/7/3 11/111/3 12/8/3
f 14/10/3 15/112/3 16/11/3
f 18/13/4 19/69/4 20/14/4
f 22/16/2 23/113/2 24/17/2
f 26/19/5 27/23/5 28/20/5
f 29/22/5 9/25/5 27/23/5
f 29/22/5 30/26/5 10/24/5
f 25/21/5 28/20/5 10/24/5
f 29/27/6 21/31/6 31/28/6
f 29/27/6 32/32/6 22/30/6
f 32/32/6 33/34/6 34/33/6
f 30/29/6 31/28/6 34/33/6
f 32/35/1 5/39/1 35/36/1
f 32/35/1 36/40/1 6/38/1
f 36/40/1 37/42/1 38/41/1
f 33/37/1 35/36/1 38/41/1
f 36/43/3 39/46/3 18/13/3
f 26/45/3 40/47/3 39/46/3
f 26/45/3 25/48/3 17/15/3
f 25/48/3 37/44/3 18/13/3
f 30/29/2 33/51/2 41/49/2
f 37/50/2 42/52/2 41/49/2
f 25/48/2 1/3/2 42/52/2
f 30/29/2 2/1/2 1/3/2
f 29/27/4 14/55/4 13/53/4
f 26/45/4 43/57/4 14/55/4
f 26/45/4 36/58/4 44/56/4
f 32/54/4 13/53/4 44/56/4
f 46/59/5 12/114/5 11/60/5
f 24/62/6 23/115/6 48/63/6
f 8/65/1 7/116/1 50/66/1
f 51/68/3 52/85/3 20/14/3
f 53/70/2 54/84/2 4/2/2
f 15/72/4 55/117/4 56/73/4
f 22/75/5 34/118/5 48/76/5
f 40/47/2 52/85/2 51/68/2
f 13/78/5 16/119/5 56/79/5
f 38/81/6 50/120/6 7/82/6
f 41/49/5 42/52/5 54/84/5
f 17/15/1 20/14/1 52/85/1
f 43/86/1 55/121/1 15/87/1
f 1/3/6 4/2/6 54/84/6
f 44/80/6 56/79/6 55/89/6
f 27/91/6 46/122/6 45/92/6
f 21/18/1 24/17/1 47/94/1
f 28/96/4 45/123/4 11/97/4
f 5/6/3 8/5/3 49/99/3
f 31/101/4 47/124/4 48/102/4
f 18/13/5 39/46/5 51/68/5
f 9/104/2 12/125/2 46/105/2
f 35/107/4 49/126/4 50/108/4
f 41/49/3 53/70/3 3/71/3
